<?xml version="1.0" encoding="utf-8" standalone="no"?>
<!DOCTYPE svg PUBLIC "-//W3C//DTD SVG 1.1//EN"
  "http://www.w3.org/Graphics/SVG/1.1/DTD/svg11.dtd">
<svg xmlns:xlink="http://www.w3.org/1999/xlink" width="892.67976pt" height="368.39952pt" viewBox="0 0 892.67976 368.39952" xmlns="http://www.w3.org/2000/svg" version="1.1">
 <metadata>
  <rdf:RDF xmlns:dc="http://purl.org/dc/elements/1.1/" xmlns:cc="http://creativecommons.org/ns#" xmlns:rdf="http://www.w3.org/1999/02/22-rdf-syntax-ns#">
   <cc:Work>
    <dc:type rdf:resource="http://purl.org/dc/dcmitype/StillImage"/>
    <dc:date>2026-05-26T19:40:16.677922</dc:date>
    <dc:format>image/svg+xml</dc:format>
    <dc:creator>
     <cc:Agent>
      <dc:title>Matplotlib v3.10.8, https://matplotlib.org/</dc:title>
     </cc:Agent>
    </dc:creator>
   </cc:Work>
  </rdf:RDF>
 </metadata>
 <defs>
  <style type="text/css">*{stroke-linejoin: round; stroke-linecap: butt}</style>
 </defs>
 <g id="figure_1">
  <g id="patch_1">
   <path d="M 0 368.39952 
L 892.67976 368.39952 
L 892.67976 0 
L 0 0 
z
" style="fill: #ffffff"/>
  </g>
  <g id="axes_1">
   <g id="patch_2">
    <path d="M 44.53923 107.435402 
L 843.83702 107.435402 
L 843.83702 7.2 
L 44.53923 7.2 
z
" style="fill: #ffffff"/>
   </g>
   <g id="FillBetweenPolyCollection_1">
    <defs>
     <path id="m078ce13be3" d="M 80.870948 -309.259357 
L 80.870948 -265.520273 
L 109.936322 -265.520273 
L 109.936322 -309.259357 
L 109.936322 -309.259357 
L 80.870948 -309.259357 
z
" style="stroke: #008000; stroke-opacity: 0.4"/>
    </defs>
    <g clip-path="url(#pf7a7cd1ca6)">
     <use xlink:href="#m078ce13be3" x="0" y="368.39952" style="fill: #008000; fill-opacity: 0.4; stroke: #008000; stroke-opacity: 0.4"/>
    </g>
   </g>
   <g id="FillBetweenPolyCollection_2">
    <defs>
     <path id="m5493aa1061" d="M 80.870948 -356.643365 
L 80.870948 -331.1289 
L 109.936322 -331.1289 
L 109.936322 -356.643365 
L 109.936322 -356.643365 
L 80.870948 -356.643365 
z
" style="stroke: #008000; stroke-opacity: 0.4"/>
    </defs>
    <g clip-path="url(#pf7a7cd1ca6)">
     <use xlink:href="#m5493aa1061" x="0" y="368.39952" style="fill: #008000; fill-opacity: 0.4; stroke: #008000; stroke-opacity: 0.4"/>
    </g>
   </g>
   <g id="FillBetweenPolyCollection_3">
    <defs>
     <path id="m8cb86e1974" d="M 109.936322 -356.643365 
L 109.936322 -265.520273 
L 139.001696 -265.520273 
L 139.001696 -356.643365 
L 139.001696 -356.643365 
L 109.936322 -356.643365 
z
" style="stroke: #008000; stroke-opacity: 0.4"/>
    </defs>
    <g clip-path="url(#pf7a7cd1ca6)">
     <use xlink:href="#m8cb86e1974" x="0" y="368.39952" style="fill: #008000; fill-opacity: 0.4; stroke: #008000; stroke-opacity: 0.4"/>
    </g>
   </g>
   <g id="FillBetweenPolyCollection_4">
    <defs>
     <path id="m416d43e1a6" d="M 139.001696 -356.643365 
L 139.001696 -265.520273 
L 168.06707 -265.520273 
L 168.06707 -356.643365 
L 168.06707 -356.643365 
L 139.001696 -356.643365 
z
" style="stroke: #008000; stroke-opacity: 0.4"/>
    </defs>
    <g clip-path="url(#pf7a7cd1ca6)">
     <use xlink:href="#m416d43e1a6" x="0" y="368.39952" style="fill: #008000; fill-opacity: 0.4; stroke: #008000; stroke-opacity: 0.4"/>
    </g>
   </g>
   <g id="FillBetweenPolyCollection_5">
    <defs>
     <path id="m2fea13f8e0" d="M 168.06707 -356.643365 
L 168.06707 -265.520273 
L 197.132444 -265.520273 
L 197.132444 -356.643365 
L 197.132444 -356.643365 
L 168.06707 -356.643365 
z
" style="stroke: #008000; stroke-opacity: 0.4"/>
    </defs>
    <g clip-path="url(#pf7a7cd1ca6)">
     <use xlink:href="#m2fea13f8e0" x="0" y="368.39952" style="fill: #008000; fill-opacity: 0.4; stroke: #008000; stroke-opacity: 0.4"/>
    </g>
   </g>
   <g id="FillBetweenPolyCollection_6">
    <defs>
     <path id="mf7c4cd0ecc" d="M 197.132444 -356.643365 
L 197.132444 -265.520273 
L 226.197819 -265.520273 
L 226.197819 -356.643365 
L 226.197819 -356.643365 
L 197.132444 -356.643365 
z
" style="stroke: #008000; stroke-opacity: 0.4"/>
    </defs>
    <g clip-path="url(#pf7a7cd1ca6)">
     <use xlink:href="#mf7c4cd0ecc" x="0" y="368.39952" style="fill: #008000; fill-opacity: 0.4; stroke: #008000; stroke-opacity: 0.4"/>
    </g>
   </g>
   <g id="FillBetweenPolyCollection_7">
    <defs>
     <path id="m004fc9c8d6" d="M 226.197819 -356.643365 
L 226.197819 -265.520273 
L 255.263193 -265.520273 
L 255.263193 -356.643365 
L 255.263193 -356.643365 
L 226.197819 -356.643365 
z
" style="stroke: #008000; stroke-opacity: 0.4"/>
    </defs>
    <g clip-path="url(#pf7a7cd1ca6)">
     <use xlink:href="#m004fc9c8d6" x="0" y="368.39952" style="fill: #008000; fill-opacity: 0.4; stroke: #008000; stroke-opacity: 0.4"/>
    </g>
   </g>
   <g id="FillBetweenPolyCollection_8">
    <defs>
     <path id="m21d4c16ba3" d="M 255.263193 -356.643365 
L 255.263193 -265.520273 
L 284.328567 -265.520273 
L 284.328567 -356.643365 
L 284.328567 -356.643365 
L 255.263193 -356.643365 
z
" style="stroke: #008000; stroke-opacity: 0.4"/>
    </defs>
    <g clip-path="url(#pf7a7cd1ca6)">
     <use xlink:href="#m21d4c16ba3" x="0" y="368.39952" style="fill: #008000; fill-opacity: 0.4; stroke: #008000; stroke-opacity: 0.4"/>
    </g>
   </g>
   <g id="FillBetweenPolyCollection_9">
    <defs>
     <path id="m0f63cf8ad9" d="M 284.328567 -356.643365 
L 284.328567 -265.520273 
L 313.393941 -265.520273 
L 313.393941 -356.643365 
L 313.393941 -356.643365 
L 284.328567 -356.643365 
z
" style="stroke: #008000; stroke-opacity: 0.4"/>
    </defs>
    <g clip-path="url(#pf7a7cd1ca6)">
     <use xlink:href="#m0f63cf8ad9" x="0" y="368.39952" style="fill: #008000; fill-opacity: 0.4; stroke: #008000; stroke-opacity: 0.4"/>
    </g>
   </g>
   <g id="FillBetweenPolyCollection_10">
    <defs>
     <path id="m6fb2a3be45" d="M 313.393941 -356.643365 
L 313.393941 -265.520273 
L 342.459315 -265.520273 
L 342.459315 -356.643365 
L 342.459315 -356.643365 
L 313.393941 -356.643365 
z
" style="stroke: #008000; stroke-opacity: 0.4"/>
    </defs>
    <g clip-path="url(#pf7a7cd1ca6)">
     <use xlink:href="#m6fb2a3be45" x="0" y="368.39952" style="fill: #008000; fill-opacity: 0.4; stroke: #008000; stroke-opacity: 0.4"/>
    </g>
   </g>
   <g id="FillBetweenPolyCollection_11">
    <defs>
     <path id="mb4d62bdcd3" d="M 342.459315 -356.643365 
L 342.459315 -265.520273 
L 371.52469 -265.520273 
L 371.52469 -356.643365 
L 371.52469 -356.643365 
L 342.459315 -356.643365 
z
" style="stroke: #008000; stroke-opacity: 0.4"/>
    </defs>
    <g clip-path="url(#pf7a7cd1ca6)">
     <use xlink:href="#mb4d62bdcd3" x="0" y="368.39952" style="fill: #008000; fill-opacity: 0.4; stroke: #008000; stroke-opacity: 0.4"/>
    </g>
   </g>
   <g id="FillBetweenPolyCollection_12">
    <defs>
     <path id="m3dab8aebd9" d="M 371.52469 -356.643365 
L 371.52469 -265.520273 
L 400.590064 -265.520273 
L 400.590064 -356.643365 
L 400.590064 -356.643365 
L 371.52469 -356.643365 
z
" style="stroke: #008000; stroke-opacity: 0.4"/>
    </defs>
    <g clip-path="url(#pf7a7cd1ca6)">
     <use xlink:href="#m3dab8aebd9" x="0" y="368.39952" style="fill: #008000; fill-opacity: 0.4; stroke: #008000; stroke-opacity: 0.4"/>
    </g>
   </g>
   <g id="FillBetweenPolyCollection_13">
    <defs>
     <path id="m91a2359cd9" d="M 400.590064 -356.643365 
L 400.590064 -265.520273 
L 429.655438 -265.520273 
L 429.655438 -356.643365 
L 429.655438 -356.643365 
L 400.590064 -356.643365 
z
" style="stroke: #008000; stroke-opacity: 0.4"/>
    </defs>
    <g clip-path="url(#pf7a7cd1ca6)">
     <use xlink:href="#m91a2359cd9" x="0" y="368.39952" style="fill: #008000; fill-opacity: 0.4; stroke: #008000; stroke-opacity: 0.4"/>
    </g>
   </g>
   <g id="FillBetweenPolyCollection_14">
    <defs>
     <path id="m4503f83678" d="M 429.655438 -356.643365 
L 429.655438 -265.520273 
L 458.720812 -265.520273 
L 458.720812 -356.643365 
L 458.720812 -356.643365 
L 429.655438 -356.643365 
z
" style="stroke: #008000; stroke-opacity: 0.4"/>
    </defs>
    <g clip-path="url(#pf7a7cd1ca6)">
     <use xlink:href="#m4503f83678" x="0" y="368.39952" style="fill: #008000; fill-opacity: 0.4; stroke: #008000; stroke-opacity: 0.4"/>
    </g>
   </g>
   <g id="FillBetweenPolyCollection_15">
    <defs>
     <path id="m42f370607a" d="M 458.720812 -356.643365 
L 458.720812 -265.520273 
L 487.786186 -265.520273 
L 487.786186 -356.643365 
L 487.786186 -356.643365 
L 458.720812 -356.643365 
z
" style="stroke: #008000; stroke-opacity: 0.4"/>
    </defs>
    <g clip-path="url(#pf7a7cd1ca6)">
     <use xlink:href="#m42f370607a" x="0" y="368.39952" style="fill: #008000; fill-opacity: 0.4; stroke: #008000; stroke-opacity: 0.4"/>
    </g>
   </g>
   <g id="FillBetweenPolyCollection_16">
    <defs>
     <path id="md73320e414" d="M 487.786186 -356.643365 
L 487.786186 -265.520273 
L 516.85156 -265.520273 
L 516.85156 -356.643365 
L 516.85156 -356.643365 
L 487.786186 -356.643365 
z
" style="stroke: #008000; stroke-opacity: 0.4"/>
    </defs>
    <g clip-path="url(#pf7a7cd1ca6)">
     <use xlink:href="#md73320e414" x="0" y="368.39952" style="fill: #008000; fill-opacity: 0.4; stroke: #008000; stroke-opacity: 0.4"/>
    </g>
   </g>
   <g id="FillBetweenPolyCollection_17">
    <defs>
     <path id="m4f2ab94b4b" d="M 516.85156 -356.643365 
L 516.85156 -265.520273 
L 545.916935 -265.520273 
L 545.916935 -356.643365 
L 545.916935 -356.643365 
L 516.85156 -356.643365 
z
" style="stroke: #008000; stroke-opacity: 0.4"/>
    </defs>
    <g clip-path="url(#pf7a7cd1ca6)">
     <use xlink:href="#m4f2ab94b4b" x="0" y="368.39952" style="fill: #008000; fill-opacity: 0.4; stroke: #008000; stroke-opacity: 0.4"/>
    </g>
   </g>
   <g id="FillBetweenPolyCollection_18">
    <defs>
     <path id="mc8d89795df" d="M 545.916935 -356.643365 
L 545.916935 -265.520273 
L 574.982309 -265.520273 
L 574.982309 -356.643365 
L 574.982309 -356.643365 
L 545.916935 -356.643365 
z
" style="stroke: #008000; stroke-opacity: 0.4"/>
    </defs>
    <g clip-path="url(#pf7a7cd1ca6)">
     <use xlink:href="#mc8d89795df" x="0" y="368.39952" style="fill: #008000; fill-opacity: 0.4; stroke: #008000; stroke-opacity: 0.4"/>
    </g>
   </g>
   <g id="FillBetweenPolyCollection_19">
    <defs>
     <path id="mb3262f0009" d="M 574.982309 -356.643365 
L 574.982309 -265.520273 
L 604.047683 -265.520273 
L 604.047683 -356.643365 
L 604.047683 -356.643365 
L 574.982309 -356.643365 
z
" style="stroke: #008000; stroke-opacity: 0.4"/>
    </defs>
    <g clip-path="url(#pf7a7cd1ca6)">
     <use xlink:href="#mb3262f0009" x="0" y="368.39952" style="fill: #008000; fill-opacity: 0.4; stroke: #008000; stroke-opacity: 0.4"/>
    </g>
   </g>
   <g id="FillBetweenPolyCollection_20">
    <defs>
     <path id="mc23aa3529f" d="M 604.047683 -356.643365 
L 604.047683 -265.520273 
L 633.113057 -265.520273 
L 633.113057 -356.643365 
L 633.113057 -356.643365 
L 604.047683 -356.643365 
z
" style="stroke: #008000; stroke-opacity: 0.4"/>
    </defs>
    <g clip-path="url(#pf7a7cd1ca6)">
     <use xlink:href="#mc23aa3529f" x="0" y="368.39952" style="fill: #008000; fill-opacity: 0.4; stroke: #008000; stroke-opacity: 0.4"/>
    </g>
   </g>
   <g id="FillBetweenPolyCollection_21">
    <defs>
     <path id="mecc8293f23" d="M 633.113057 -356.643365 
L 633.113057 -265.520273 
L 662.178431 -265.520273 
L 662.178431 -356.643365 
L 662.178431 -356.643365 
L 633.113057 -356.643365 
z
" style="stroke: #008000; stroke-opacity: 0.4"/>
    </defs>
    <g clip-path="url(#pf7a7cd1ca6)">
     <use xlink:href="#mecc8293f23" x="0" y="368.39952" style="fill: #008000; fill-opacity: 0.4; stroke: #008000; stroke-opacity: 0.4"/>
    </g>
   </g>
   <g id="FillBetweenPolyCollection_22">
    <defs>
     <path id="m963ccf7973" d="M 662.178431 -356.643365 
L 662.178431 -265.520273 
L 691.243806 -265.520273 
L 691.243806 -356.643365 
L 691.243806 -356.643365 
L 662.178431 -356.643365 
z
" style="stroke: #008000; stroke-opacity: 0.4"/>
    </defs>
    <g clip-path="url(#pf7a7cd1ca6)">
     <use xlink:href="#m963ccf7973" x="0" y="368.39952" style="fill: #008000; fill-opacity: 0.4; stroke: #008000; stroke-opacity: 0.4"/>
    </g>
   </g>
   <g id="FillBetweenPolyCollection_23">
    <defs>
     <path id="m2ef750a019" d="M 691.243806 -356.643365 
L 691.243806 -265.520273 
L 720.30918 -265.520273 
L 720.30918 -356.643365 
L 720.30918 -356.643365 
L 691.243806 -356.643365 
z
" style="stroke: #008000; stroke-opacity: 0.4"/>
    </defs>
    <g clip-path="url(#pf7a7cd1ca6)">
     <use xlink:href="#m2ef750a019" x="0" y="368.39952" style="fill: #008000; fill-opacity: 0.4; stroke: #008000; stroke-opacity: 0.4"/>
    </g>
   </g>
   <g id="FillBetweenPolyCollection_24">
    <defs>
     <path id="md74217ad45" d="M 720.30918 -356.643365 
L 720.30918 -265.520273 
L 749.374554 -265.520273 
L 749.374554 -356.643365 
L 749.374554 -356.643365 
L 720.30918 -356.643365 
z
" style="stroke: #008000; stroke-opacity: 0.4"/>
    </defs>
    <g clip-path="url(#pf7a7cd1ca6)">
     <use xlink:href="#md74217ad45" x="0" y="368.39952" style="fill: #008000; fill-opacity: 0.4; stroke: #008000; stroke-opacity: 0.4"/>
    </g>
   </g>
   <g id="FillBetweenPolyCollection_25">
    <defs>
     <path id="m4a522a65ab" d="M 749.374554 -305.614434 
L 749.374554 -265.520273 
L 778.439928 -265.520273 
L 778.439928 -305.614434 
L 778.439928 -305.614434 
L 749.374554 -305.614434 
z
" style="stroke: #008000; stroke-opacity: 0.4"/>
    </defs>
    <g clip-path="url(#pf7a7cd1ca6)">
     <use xlink:href="#m4a522a65ab" x="0" y="368.39952" style="fill: #008000; fill-opacity: 0.4; stroke: #008000; stroke-opacity: 0.4"/>
    </g>
   </g>
   <g id="FillBetweenPolyCollection_26">
    <defs>
     <path id="md1ea6c17f0" d="M 749.374554 -356.643365 
L 749.374554 -331.1289 
L 778.439928 -331.1289 
L 778.439928 -356.643365 
L 778.439928 -356.643365 
L 749.374554 -356.643365 
z
" style="stroke: #008000; stroke-opacity: 0.4"/>
    </defs>
    <g clip-path="url(#pf7a7cd1ca6)">
     <use xlink:href="#md1ea6c17f0" x="0" y="368.39952" style="fill: #008000; fill-opacity: 0.4; stroke: #008000; stroke-opacity: 0.4"/>
    </g>
   </g>
   <g id="FillBetweenPolyCollection_27">
    <defs>
     <path id="m47e19b2a43" d="M 778.439928 -301.96951 
L 778.439928 -265.520273 
L 807.505302 -265.520273 
L 807.505302 -301.96951 
L 807.505302 -301.96951 
L 778.439928 -301.96951 
z
" style="stroke: #008000; stroke-opacity: 0.4"/>
    </defs>
    <g clip-path="url(#pf7a7cd1ca6)">
     <use xlink:href="#m47e19b2a43" x="0" y="368.39952" style="fill: #008000; fill-opacity: 0.4; stroke: #008000; stroke-opacity: 0.4"/>
    </g>
   </g>
   <g id="FillBetweenPolyCollection_28">
    <defs>
     <path id="m32a664bc3a" d="M 778.439928 -356.643365 
L 778.439928 -331.1289 
L 807.505302 -331.1289 
L 807.505302 -356.643365 
L 807.505302 -356.643365 
L 778.439928 -356.643365 
z
" style="stroke: #008000; stroke-opacity: 0.4"/>
    </defs>
    <g clip-path="url(#pf7a7cd1ca6)">
     <use xlink:href="#m32a664bc3a" x="0" y="368.39952" style="fill: #008000; fill-opacity: 0.4; stroke: #008000; stroke-opacity: 0.4"/>
    </g>
   </g>
   <g id="matplotlib.axis_1">
    <g id="xtick_1">
     <g id="line2d_1">
      <defs>
       <path id="m9de2957ee5" d="M 0 0 
L 0 3.5 
" style="stroke: #000000; stroke-width: 0.8"/>
      </defs>
      <g>
       <use xlink:href="#m9de2957ee5" x="95.403635" y="107.435402" style="stroke: #000000; stroke-width: 0.8"/>
      </g>
     </g>
    </g>
    <g id="xtick_2">
     <g id="line2d_2">
      <g>
       <use xlink:href="#m9de2957ee5" x="153.534383" y="107.435402" style="stroke: #000000; stroke-width: 0.8"/>
      </g>
     </g>
    </g>
    <g id="xtick_3">
     <g id="line2d_3">
      <g>
       <use xlink:href="#m9de2957ee5" x="211.665132" y="107.435402" style="stroke: #000000; stroke-width: 0.8"/>
      </g>
     </g>
    </g>
    <g id="xtick_4">
     <g id="line2d_4">
      <g>
       <use xlink:href="#m9de2957ee5" x="269.79588" y="107.435402" style="stroke: #000000; stroke-width: 0.8"/>
      </g>
     </g>
    </g>
    <g id="xtick_5">
     <g id="line2d_5">
      <g>
       <use xlink:href="#m9de2957ee5" x="327.926628" y="107.435402" style="stroke: #000000; stroke-width: 0.8"/>
      </g>
     </g>
    </g>
    <g id="xtick_6">
     <g id="line2d_6">
      <g>
       <use xlink:href="#m9de2957ee5" x="386.057377" y="107.435402" style="stroke: #000000; stroke-width: 0.8"/>
      </g>
     </g>
    </g>
    <g id="xtick_7">
     <g id="line2d_7">
      <g>
       <use xlink:href="#m9de2957ee5" x="444.188125" y="107.435402" style="stroke: #000000; stroke-width: 0.8"/>
      </g>
     </g>
    </g>
    <g id="xtick_8">
     <g id="line2d_8">
      <g>
       <use xlink:href="#m9de2957ee5" x="502.318873" y="107.435402" style="stroke: #000000; stroke-width: 0.8"/>
      </g>
     </g>
    </g>
    <g id="xtick_9">
     <g id="line2d_9">
      <g>
       <use xlink:href="#m9de2957ee5" x="560.449622" y="107.435402" style="stroke: #000000; stroke-width: 0.8"/>
      </g>
     </g>
    </g>
    <g id="xtick_10">
     <g id="line2d_10">
      <g>
       <use xlink:href="#m9de2957ee5" x="618.58037" y="107.435402" style="stroke: #000000; stroke-width: 0.8"/>
      </g>
     </g>
    </g>
    <g id="xtick_11">
     <g id="line2d_11">
      <g>
       <use xlink:href="#m9de2957ee5" x="676.711118" y="107.435402" style="stroke: #000000; stroke-width: 0.8"/>
      </g>
     </g>
    </g>
    <g id="xtick_12">
     <g id="line2d_12">
      <g>
       <use xlink:href="#m9de2957ee5" x="734.841867" y="107.435402" style="stroke: #000000; stroke-width: 0.8"/>
      </g>
     </g>
    </g>
    <g id="xtick_13">
     <g id="line2d_13">
      <g>
       <use xlink:href="#m9de2957ee5" x="792.972615" y="107.435402" style="stroke: #000000; stroke-width: 0.8"/>
      </g>
     </g>
    </g>
   </g>
   <g id="matplotlib.axis_2">
    <g id="ytick_1">
     <g id="line2d_14">
      <defs>
       <path id="m4483b6b1aa" d="M 0 0 
L -3.5 0 
" style="stroke: #000000; stroke-width: 0.8"/>
      </defs>
      <g>
       <use xlink:href="#m4483b6b1aa" x="44.53923" y="101.056785" style="stroke: #000000; stroke-width: 0.8"/>
      </g>
     </g>
     <g id="text_1">
      <!-- 0 -->
      <g transform="translate(31.17673 104.856004) scale(0.1 -0.1)">
       <defs>
        <path id="DejaVuSans-30" d="M 2034 4250 
Q 1547 4250 1301 3770 
Q 1056 3291 1056 2328 
Q 1056 1369 1301 889 
Q 1547 409 2034 409 
Q 2525 409 2770 889 
Q 3016 1369 3016 2328 
Q 3016 3291 2770 3770 
Q 2525 4250 2034 4250 
z
M 2034 4750 
Q 2819 4750 3233 4129 
Q 3647 3509 3647 2328 
Q 3647 1150 3233 529 
Q 2819 -91 2034 -91 
Q 1250 -91 836 529 
Q 422 1150 422 2328 
Q 422 3509 836 4129 
Q 1250 4750 2034 4750 
z
" transform="scale(0.015625)"/>
       </defs>
       <use xlink:href="#DejaVuSans-30"/>
      </g>
     </g>
    </g>
    <g id="ytick_2">
     <g id="line2d_15">
      <g>
       <use xlink:href="#m4483b6b1aa" x="44.53923" y="64.607548" style="stroke: #000000; stroke-width: 0.8"/>
      </g>
     </g>
     <g id="text_2">
      <!-- 10 -->
      <g transform="translate(24.81423 68.406767) scale(0.1 -0.1)">
       <defs>
        <path id="DejaVuSans-31" d="M 794 531 
L 1825 531 
L 1825 4091 
L 703 3866 
L 703 4441 
L 1819 4666 
L 2450 4666 
L 2450 531 
L 3481 531 
L 3481 0 
L 794 0 
L 794 531 
z
" transform="scale(0.015625)"/>
       </defs>
       <use xlink:href="#DejaVuSans-31"/>
       <use xlink:href="#DejaVuSans-30" transform="translate(63.623047 0)"/>
      </g>
     </g>
    </g>
    <g id="ytick_3">
     <g id="line2d_16">
      <g>
       <use xlink:href="#m4483b6b1aa" x="44.53923" y="28.158311" style="stroke: #000000; stroke-width: 0.8"/>
      </g>
     </g>
     <g id="text_3">
      <!-- 20 -->
      <g transform="translate(24.81423 31.95753) scale(0.1 -0.1)">
       <defs>
        <path id="DejaVuSans-32" d="M 1228 531 
L 3431 531 
L 3431 0 
L 469 0 
L 469 531 
Q 828 903 1448 1529 
Q 2069 2156 2228 2338 
Q 2531 2678 2651 2914 
Q 2772 3150 2772 3378 
Q 2772 3750 2511 3984 
Q 2250 4219 1831 4219 
Q 1534 4219 1204 4116 
Q 875 4013 500 3803 
L 500 4441 
Q 881 4594 1212 4672 
Q 1544 4750 1819 4750 
Q 2544 4750 2975 4387 
Q 3406 4025 3406 3419 
Q 3406 3131 3298 2873 
Q 3191 2616 2906 2266 
Q 2828 2175 2409 1742 
Q 1991 1309 1228 531 
z
" transform="scale(0.015625)"/>
       </defs>
       <use xlink:href="#DejaVuSans-32"/>
       <use xlink:href="#DejaVuSans-30" transform="translate(63.623047 0)"/>
      </g>
     </g>
    </g>
   </g>
   <g id="line2d_17">
    <path d="M 95.403635 75.740499 
L 124.469009 76.062019 
L 153.534383 76.595925 
L 182.599757 77.283963 
L 211.665132 78.069199 
L 240.730506 78.904464 
L 269.79588 79.751514 
L 298.861254 80.574696 
L 327.926628 81.333316 
L 356.992002 81.976642 
L 386.057377 82.445851 
L 415.122751 82.685802 
L 444.188125 82.663533 
L 473.253499 82.382252 
L 502.318873 81.879881 
L 531.384248 81.213381 
L 560.449622 80.440774 
L 589.514996 79.61101 
L 618.58037 78.763476 
L 647.645744 77.933712 
L 676.711118 77.161105 
L 705.776493 76.494605 
L 734.841867 75.992234 
L 763.907241 75.710953 
L 792.972615 75.688684 
" clip-path="url(#pf7a7cd1ca6)" style="fill: none; stroke-dasharray: 5.55,2.4; stroke-dashoffset: 0; stroke: #000000; stroke-width: 1.5"/>
   </g>
   <g id="line2d_18">
    <path d="M 95.403635 38.894903 
L 124.469009 38.573383 
L 153.534383 38.039477 
L 182.599757 37.351439 
L 211.665132 36.566203 
L 240.730506 35.730937 
L 269.79588 34.883888 
L 298.861254 34.060705 
L 327.926628 33.302086 
L 356.992002 32.658759 
L 386.057377 32.189551 
L 415.122751 31.9496 
L 444.188125 31.971868 
L 473.253499 32.25315 
L 502.318873 32.755521 
L 531.384248 33.42202 
L 560.449622 34.194628 
L 589.514996 35.024392 
L 618.58037 35.871926 
L 647.645744 36.70169 
L 676.711118 37.474297 
L 705.776493 38.140797 
L 734.841867 38.643167 
L 763.907241 38.924449 
L 792.972615 38.946718 
" clip-path="url(#pf7a7cd1ca6)" style="fill: none; stroke-dasharray: 9.6,2.4,1.5,2.4; stroke-dashoffset: 0; stroke: #000000; stroke-width: 1.5"/>
   </g>
   <g id="patch_3">
    <path d="M 44.53923 107.435402 
L 44.53923 7.2 
" style="fill: none; stroke: #000000; stroke-width: 0.8; stroke-linejoin: miter; stroke-linecap: square"/>
   </g>
   <g id="patch_4">
    <path d="M 843.83702 107.435402 
L 843.83702 7.2 
" style="fill: none; stroke: #000000; stroke-width: 0.8; stroke-linejoin: miter; stroke-linecap: square"/>
   </g>
   <g id="patch_5">
    <path d="M 44.53923 107.435402 
L 843.83702 107.435402 
" style="fill: none; stroke: #000000; stroke-width: 0.8; stroke-linejoin: miter; stroke-linecap: square"/>
   </g>
   <g id="patch_6">
    <path d="M 44.53923 7.2 
L 843.83702 7.2 
" style="fill: none; stroke: #000000; stroke-width: 0.8; stroke-linejoin: miter; stroke-linecap: square"/>
   </g>
  </g>
  <g id="axes_2">
   <g id="patch_7">
    <path d="M 44.53923 217.171283 
L 843.83702 217.171283 
L 843.83702 116.935882 
L 44.53923 116.935882 
z
" style="fill: #ffffff"/>
   </g>
   <g id="FillBetweenPolyCollection_29">
    <defs>
     <path id="mcf1205fd5d" d="M 109.936322 -174.00901 
L 109.936322 -170.364086 
L 139.001696 -170.364086 
L 139.001696 -174.00901 
L 139.001696 -174.00901 
L 109.936322 -174.00901 
z
" style="stroke: #008000; stroke-opacity: 0.4"/>
    </defs>
    <g clip-path="url(#pf82f05fb82)">
     <use xlink:href="#mcf1205fd5d" x="0" y="368.39952" style="fill: #008000; fill-opacity: 0.4; stroke: #008000; stroke-opacity: 0.4"/>
    </g>
   </g>
   <g id="FillBetweenPolyCollection_30">
    <defs>
     <path id="m2ba80ee32c" d="M 139.001696 -174.00901 
L 139.001696 -159.429315 
L 168.06707 -159.429315 
L 168.06707 -174.00901 
L 168.06707 -174.00901 
L 139.001696 -174.00901 
z
" style="stroke: #008000; stroke-opacity: 0.4"/>
    </defs>
    <g clip-path="url(#pf82f05fb82)">
     <use xlink:href="#m2ba80ee32c" x="0" y="368.39952" style="fill: #008000; fill-opacity: 0.4; stroke: #008000; stroke-opacity: 0.4"/>
    </g>
   </g>
   <g id="FillBetweenPolyCollection_31">
    <defs>
     <path id="mce01096449" d="M 168.06707 -177.653933 
L 168.06707 -155.784391 
L 197.132444 -155.784391 
L 197.132444 -177.653933 
L 197.132444 -177.653933 
L 168.06707 -177.653933 
z
" style="stroke: #008000; stroke-opacity: 0.4"/>
    </defs>
    <g clip-path="url(#pf82f05fb82)">
     <use xlink:href="#mce01096449" x="0" y="368.39952" style="fill: #008000; fill-opacity: 0.4; stroke: #008000; stroke-opacity: 0.4"/>
    </g>
   </g>
   <g id="FillBetweenPolyCollection_32">
    <defs>
     <path id="m32e8bf7a78" d="M 168.06707 -246.907484 
L 168.06707 -232.327789 
L 197.132444 -232.327789 
L 197.132444 -246.907484 
L 197.132444 -246.907484 
L 168.06707 -246.907484 
z
" style="stroke: #008000; stroke-opacity: 0.4"/>
    </defs>
    <g clip-path="url(#pf82f05fb82)">
     <use xlink:href="#m32e8bf7a78" x="0" y="368.39952" style="fill: #008000; fill-opacity: 0.4; stroke: #008000; stroke-opacity: 0.4"/>
    </g>
   </g>
   <g id="FillBetweenPolyCollection_33">
    <defs>
     <path id="mbf409dffff" d="M 197.132444 -246.907484 
L 197.132444 -155.784391 
L 226.197819 -155.784391 
L 226.197819 -246.907484 
L 226.197819 -246.907484 
L 197.132444 -246.907484 
z
" style="stroke: #008000; stroke-opacity: 0.4"/>
    </defs>
    <g clip-path="url(#pf82f05fb82)">
     <use xlink:href="#mbf409dffff" x="0" y="368.39952" style="fill: #008000; fill-opacity: 0.4; stroke: #008000; stroke-opacity: 0.4"/>
    </g>
   </g>
   <g id="FillBetweenPolyCollection_34">
    <defs>
     <path id="mbfaea5b9f9" d="M 226.197819 -246.907484 
L 226.197819 -155.784391 
L 255.263193 -155.784391 
L 255.263193 -246.907484 
L 255.263193 -246.907484 
L 226.197819 -246.907484 
z
" style="stroke: #008000; stroke-opacity: 0.4"/>
    </defs>
    <g clip-path="url(#pf82f05fb82)">
     <use xlink:href="#mbfaea5b9f9" x="0" y="368.39952" style="fill: #008000; fill-opacity: 0.4; stroke: #008000; stroke-opacity: 0.4"/>
    </g>
   </g>
   <g id="FillBetweenPolyCollection_35">
    <defs>
     <path id="ma9e2a79a25" d="M 255.263193 -246.907484 
L 255.263193 -155.784391 
L 284.328567 -155.784391 
L 284.328567 -246.907484 
L 284.328567 -246.907484 
L 255.263193 -246.907484 
z
" style="stroke: #008000; stroke-opacity: 0.4"/>
    </defs>
    <g clip-path="url(#pf82f05fb82)">
     <use xlink:href="#ma9e2a79a25" x="0" y="368.39952" style="fill: #008000; fill-opacity: 0.4; stroke: #008000; stroke-opacity: 0.4"/>
    </g>
   </g>
   <g id="FillBetweenPolyCollection_36">
    <defs>
     <path id="me23f61339c" d="M 284.328567 -246.907484 
L 284.328567 -155.784391 
L 313.393941 -155.784391 
L 313.393941 -246.907484 
L 313.393941 -246.907484 
L 284.328567 -246.907484 
z
" style="stroke: #008000; stroke-opacity: 0.4"/>
    </defs>
    <g clip-path="url(#pf82f05fb82)">
     <use xlink:href="#me23f61339c" x="0" y="368.39952" style="fill: #008000; fill-opacity: 0.4; stroke: #008000; stroke-opacity: 0.4"/>
    </g>
   </g>
   <g id="FillBetweenPolyCollection_37">
    <defs>
     <path id="m888030f778" d="M 313.393941 -246.907484 
L 313.393941 -155.784391 
L 342.459315 -155.784391 
L 342.459315 -246.907484 
L 342.459315 -246.907484 
L 313.393941 -246.907484 
z
" style="stroke: #008000; stroke-opacity: 0.4"/>
    </defs>
    <g clip-path="url(#pf82f05fb82)">
     <use xlink:href="#m888030f778" x="0" y="368.39952" style="fill: #008000; fill-opacity: 0.4; stroke: #008000; stroke-opacity: 0.4"/>
    </g>
   </g>
   <g id="FillBetweenPolyCollection_38">
    <defs>
     <path id="mefc1863bcf" d="M 342.459315 -246.907484 
L 342.459315 -155.784391 
L 371.52469 -155.784391 
L 371.52469 -246.907484 
L 371.52469 -246.907484 
L 342.459315 -246.907484 
z
" style="stroke: #008000; stroke-opacity: 0.4"/>
    </defs>
    <g clip-path="url(#pf82f05fb82)">
     <use xlink:href="#mefc1863bcf" x="0" y="368.39952" style="fill: #008000; fill-opacity: 0.4; stroke: #008000; stroke-opacity: 0.4"/>
    </g>
   </g>
   <g id="FillBetweenPolyCollection_39">
    <defs>
     <path id="m3dc9e0b701" d="M 371.52469 -246.907484 
L 371.52469 -155.784391 
L 400.590064 -155.784391 
L 400.590064 -246.907484 
L 400.590064 -246.907484 
L 371.52469 -246.907484 
z
" style="stroke: #008000; stroke-opacity: 0.4"/>
    </defs>
    <g clip-path="url(#pf82f05fb82)">
     <use xlink:href="#m3dc9e0b701" x="0" y="368.39952" style="fill: #008000; fill-opacity: 0.4; stroke: #008000; stroke-opacity: 0.4"/>
    </g>
   </g>
   <g id="FillBetweenPolyCollection_40">
    <defs>
     <path id="md94376e537" d="M 400.590064 -246.907484 
L 400.590064 -155.784391 
L 429.655438 -155.784391 
L 429.655438 -246.907484 
L 429.655438 -246.907484 
L 400.590064 -246.907484 
z
" style="stroke: #008000; stroke-opacity: 0.4"/>
    </defs>
    <g clip-path="url(#pf82f05fb82)">
     <use xlink:href="#md94376e537" x="0" y="368.39952" style="fill: #008000; fill-opacity: 0.4; stroke: #008000; stroke-opacity: 0.4"/>
    </g>
   </g>
   <g id="FillBetweenPolyCollection_41">
    <defs>
     <path id="md25567f203" d="M 429.655438 -246.907484 
L 429.655438 -155.784391 
L 458.720812 -155.784391 
L 458.720812 -246.907484 
L 458.720812 -246.907484 
L 429.655438 -246.907484 
z
" style="stroke: #008000; stroke-opacity: 0.4"/>
    </defs>
    <g clip-path="url(#pf82f05fb82)">
     <use xlink:href="#md25567f203" x="0" y="368.39952" style="fill: #008000; fill-opacity: 0.4; stroke: #008000; stroke-opacity: 0.4"/>
    </g>
   </g>
   <g id="FillBetweenPolyCollection_42">
    <defs>
     <path id="m8fb88869ac" d="M 458.720812 -246.907484 
L 458.720812 -155.784391 
L 487.786186 -155.784391 
L 487.786186 -246.907484 
L 487.786186 -246.907484 
L 458.720812 -246.907484 
z
" style="stroke: #008000; stroke-opacity: 0.4"/>
    </defs>
    <g clip-path="url(#pf82f05fb82)">
     <use xlink:href="#m8fb88869ac" x="0" y="368.39952" style="fill: #008000; fill-opacity: 0.4; stroke: #008000; stroke-opacity: 0.4"/>
    </g>
   </g>
   <g id="FillBetweenPolyCollection_43">
    <defs>
     <path id="m29fb80acd9" d="M 487.786186 -246.907484 
L 487.786186 -155.784391 
L 516.85156 -155.784391 
L 516.85156 -246.907484 
L 516.85156 -246.907484 
L 487.786186 -246.907484 
z
" style="stroke: #008000; stroke-opacity: 0.4"/>
    </defs>
    <g clip-path="url(#pf82f05fb82)">
     <use xlink:href="#m29fb80acd9" x="0" y="368.39952" style="fill: #008000; fill-opacity: 0.4; stroke: #008000; stroke-opacity: 0.4"/>
    </g>
   </g>
   <g id="FillBetweenPolyCollection_44">
    <defs>
     <path id="m42068aed4d" d="M 516.85156 -246.907484 
L 516.85156 -155.784391 
L 545.916935 -155.784391 
L 545.916935 -246.907484 
L 545.916935 -246.907484 
L 516.85156 -246.907484 
z
" style="stroke: #008000; stroke-opacity: 0.4"/>
    </defs>
    <g clip-path="url(#pf82f05fb82)">
     <use xlink:href="#m42068aed4d" x="0" y="368.39952" style="fill: #008000; fill-opacity: 0.4; stroke: #008000; stroke-opacity: 0.4"/>
    </g>
   </g>
   <g id="FillBetweenPolyCollection_45">
    <defs>
     <path id="me7eeebb28a" d="M 545.916935 -246.907484 
L 545.916935 -155.784391 
L 574.982309 -155.784391 
L 574.982309 -246.907484 
L 574.982309 -246.907484 
L 545.916935 -246.907484 
z
" style="stroke: #008000; stroke-opacity: 0.4"/>
    </defs>
    <g clip-path="url(#pf82f05fb82)">
     <use xlink:href="#me7eeebb28a" x="0" y="368.39952" style="fill: #008000; fill-opacity: 0.4; stroke: #008000; stroke-opacity: 0.4"/>
    </g>
   </g>
   <g id="FillBetweenPolyCollection_46">
    <defs>
     <path id="m8633565f91" d="M 574.982309 -246.907484 
L 574.982309 -155.784391 
L 604.047683 -155.784391 
L 604.047683 -246.907484 
L 604.047683 -246.907484 
L 574.982309 -246.907484 
z
" style="stroke: #008000; stroke-opacity: 0.4"/>
    </defs>
    <g clip-path="url(#pf82f05fb82)">
     <use xlink:href="#m8633565f91" x="0" y="368.39952" style="fill: #008000; fill-opacity: 0.4; stroke: #008000; stroke-opacity: 0.4"/>
    </g>
   </g>
   <g id="FillBetweenPolyCollection_47">
    <defs>
     <path id="m3c5bf624d9" d="M 604.047683 -246.907484 
L 604.047683 -155.784391 
L 633.113057 -155.784391 
L 633.113057 -246.907484 
L 633.113057 -246.907484 
L 604.047683 -246.907484 
z
" style="stroke: #008000; stroke-opacity: 0.4"/>
    </defs>
    <g clip-path="url(#pf82f05fb82)">
     <use xlink:href="#m3c5bf624d9" x="0" y="368.39952" style="fill: #008000; fill-opacity: 0.4; stroke: #008000; stroke-opacity: 0.4"/>
    </g>
   </g>
   <g id="FillBetweenPolyCollection_48">
    <defs>
     <path id="m8e7be845bb" d="M 633.113057 -246.907484 
L 633.113057 -155.784391 
L 662.178431 -155.784391 
L 662.178431 -246.907484 
L 662.178431 -246.907484 
L 633.113057 -246.907484 
z
" style="stroke: #008000; stroke-opacity: 0.4"/>
    </defs>
    <g clip-path="url(#pf82f05fb82)">
     <use xlink:href="#m8e7be845bb" x="0" y="368.39952" style="fill: #008000; fill-opacity: 0.4; stroke: #008000; stroke-opacity: 0.4"/>
    </g>
   </g>
   <g id="FillBetweenPolyCollection_49">
    <defs>
     <path id="m9f9bef52ed" d="M 662.178431 -177.653933 
L 662.178431 -155.784391 
L 691.243806 -155.784391 
L 691.243806 -177.653933 
L 691.243806 -177.653933 
L 662.178431 -177.653933 
z
" style="stroke: #008000; stroke-opacity: 0.4"/>
    </defs>
    <g clip-path="url(#pf82f05fb82)">
     <use xlink:href="#m9f9bef52ed" x="0" y="368.39952" style="fill: #008000; fill-opacity: 0.4; stroke: #008000; stroke-opacity: 0.4"/>
    </g>
   </g>
   <g id="FillBetweenPolyCollection_50">
    <defs>
     <path id="m3d09e7cbf5" d="M 662.178431 -246.907484 
L 662.178431 -235.972713 
L 691.243806 -235.972713 
L 691.243806 -246.907484 
L 691.243806 -246.907484 
L 662.178431 -246.907484 
z
" style="stroke: #008000; stroke-opacity: 0.4"/>
    </defs>
    <g clip-path="url(#pf82f05fb82)">
     <use xlink:href="#m3d09e7cbf5" x="0" y="368.39952" style="fill: #008000; fill-opacity: 0.4; stroke: #008000; stroke-opacity: 0.4"/>
    </g>
   </g>
   <g id="FillBetweenPolyCollection_51">
    <defs>
     <path id="md65785e3a2" d="M 691.243806 -174.00901 
L 691.243806 -159.429315 
L 720.30918 -159.429315 
L 720.30918 -174.00901 
L 720.30918 -174.00901 
L 691.243806 -174.00901 
z
" style="stroke: #008000; stroke-opacity: 0.4"/>
    </defs>
    <g clip-path="url(#pf82f05fb82)">
     <use xlink:href="#md65785e3a2" x="0" y="368.39952" style="fill: #008000; fill-opacity: 0.4; stroke: #008000; stroke-opacity: 0.4"/>
    </g>
   </g>
   <g id="FillBetweenPolyCollection_52">
    <defs>
     <path id="m36b3394bcd" d="M 720.30918 -174.00901 
L 720.30918 -170.364086 
L 749.374554 -170.364086 
L 749.374554 -174.00901 
L 749.374554 -174.00901 
L 720.30918 -174.00901 
z
" style="stroke: #008000; stroke-opacity: 0.4"/>
    </defs>
    <g clip-path="url(#pf82f05fb82)">
     <use xlink:href="#m36b3394bcd" x="0" y="368.39952" style="fill: #008000; fill-opacity: 0.4; stroke: #008000; stroke-opacity: 0.4"/>
    </g>
   </g>
   <g id="matplotlib.axis_3">
    <g id="xtick_14">
     <g id="line2d_19">
      <g>
       <use xlink:href="#m9de2957ee5" x="95.403635" y="217.171283" style="stroke: #000000; stroke-width: 0.8"/>
      </g>
     </g>
    </g>
    <g id="xtick_15">
     <g id="line2d_20">
      <g>
       <use xlink:href="#m9de2957ee5" x="153.534383" y="217.171283" style="stroke: #000000; stroke-width: 0.8"/>
      </g>
     </g>
    </g>
    <g id="xtick_16">
     <g id="line2d_21">
      <g>
       <use xlink:href="#m9de2957ee5" x="211.665132" y="217.171283" style="stroke: #000000; stroke-width: 0.8"/>
      </g>
     </g>
    </g>
    <g id="xtick_17">
     <g id="line2d_22">
      <g>
       <use xlink:href="#m9de2957ee5" x="269.79588" y="217.171283" style="stroke: #000000; stroke-width: 0.8"/>
      </g>
     </g>
    </g>
    <g id="xtick_18">
     <g id="line2d_23">
      <g>
       <use xlink:href="#m9de2957ee5" x="327.926628" y="217.171283" style="stroke: #000000; stroke-width: 0.8"/>
      </g>
     </g>
    </g>
    <g id="xtick_19">
     <g id="line2d_24">
      <g>
       <use xlink:href="#m9de2957ee5" x="386.057377" y="217.171283" style="stroke: #000000; stroke-width: 0.8"/>
      </g>
     </g>
    </g>
    <g id="xtick_20">
     <g id="line2d_25">
      <g>
       <use xlink:href="#m9de2957ee5" x="444.188125" y="217.171283" style="stroke: #000000; stroke-width: 0.8"/>
      </g>
     </g>
    </g>
    <g id="xtick_21">
     <g id="line2d_26">
      <g>
       <use xlink:href="#m9de2957ee5" x="502.318873" y="217.171283" style="stroke: #000000; stroke-width: 0.8"/>
      </g>
     </g>
    </g>
    <g id="xtick_22">
     <g id="line2d_27">
      <g>
       <use xlink:href="#m9de2957ee5" x="560.449622" y="217.171283" style="stroke: #000000; stroke-width: 0.8"/>
      </g>
     </g>
    </g>
    <g id="xtick_23">
     <g id="line2d_28">
      <g>
       <use xlink:href="#m9de2957ee5" x="618.58037" y="217.171283" style="stroke: #000000; stroke-width: 0.8"/>
      </g>
     </g>
    </g>
    <g id="xtick_24">
     <g id="line2d_29">
      <g>
       <use xlink:href="#m9de2957ee5" x="676.711118" y="217.171283" style="stroke: #000000; stroke-width: 0.8"/>
      </g>
     </g>
    </g>
    <g id="xtick_25">
     <g id="line2d_30">
      <g>
       <use xlink:href="#m9de2957ee5" x="734.841867" y="217.171283" style="stroke: #000000; stroke-width: 0.8"/>
      </g>
     </g>
    </g>
    <g id="xtick_26">
     <g id="line2d_31">
      <g>
       <use xlink:href="#m9de2957ee5" x="792.972615" y="217.171283" style="stroke: #000000; stroke-width: 0.8"/>
      </g>
     </g>
    </g>
   </g>
   <g id="matplotlib.axis_4">
    <g id="ytick_4">
     <g id="line2d_32">
      <g>
       <use xlink:href="#m4483b6b1aa" x="44.53923" y="210.792667" style="stroke: #000000; stroke-width: 0.8"/>
      </g>
     </g>
     <g id="text_4">
      <!-- 0 -->
      <g transform="translate(31.17673 214.591886) scale(0.1 -0.1)">
       <use xlink:href="#DejaVuSans-30"/>
      </g>
     </g>
    </g>
    <g id="ytick_5">
     <g id="line2d_33">
      <g>
       <use xlink:href="#m4483b6b1aa" x="44.53923" y="174.34343" style="stroke: #000000; stroke-width: 0.8"/>
      </g>
     </g>
     <g id="text_5">
      <!-- 10 -->
      <g transform="translate(24.81423 178.142649) scale(0.1 -0.1)">
       <use xlink:href="#DejaVuSans-31"/>
       <use xlink:href="#DejaVuSans-30" transform="translate(63.623047 0)"/>
      </g>
     </g>
    </g>
    <g id="ytick_6">
     <g id="line2d_34">
      <g>
       <use xlink:href="#m4483b6b1aa" x="44.53923" y="137.894193" style="stroke: #000000; stroke-width: 0.8"/>
      </g>
     </g>
     <g id="text_6">
      <!-- 20 -->
      <g transform="translate(24.81423 141.693412) scale(0.1 -0.1)">
       <use xlink:href="#DejaVuSans-32"/>
       <use xlink:href="#DejaVuSans-30" transform="translate(63.623047 0)"/>
      </g>
     </g>
    </g>
   </g>
   <g id="line2d_35">
    <path d="M 95.403635 182.82043 
L 124.469009 183.412674 
L 153.534383 184.38053 
L 182.599757 185.605497 
L 211.665132 186.982417 
L 240.730506 188.43327 
L 269.79588 189.901007 
L 298.861254 191.334324 
L 327.926628 192.670617 
L 356.992002 193.822759 
L 386.057377 194.678319 
L 415.122751 195.122025 
L 444.188125 195.080651 
L 473.253499 194.56146 
L 502.318873 193.648068 
L 531.384248 192.45798 
L 560.449622 191.100233 
L 589.514996 189.657338 
L 618.58037 188.188912 
L 647.645744 186.746016 
L 676.711118 185.388269 
L 705.776493 184.198181 
L 734.841867 183.28479 
L 763.907241 182.765598 
L 792.972615 182.724224 
" clip-path="url(#pf82f05fb82)" style="fill: none; stroke-dasharray: 5.55,2.4; stroke-dashoffset: 0; stroke: #000000; stroke-width: 1.5"/>
   </g>
   <g id="line2d_36">
    <path d="M 95.403635 151.286735 
L 124.469009 150.694491 
L 153.534383 149.726635 
L 182.599757 148.501668 
L 211.665132 147.124748 
L 240.730506 145.673895 
L 269.79588 144.206158 
L 298.861254 142.772841 
L 327.926628 141.436548 
L 356.992002 140.284406 
L 386.057377 139.428846 
L 415.122751 138.98514 
L 444.188125 139.026514 
L 473.253499 139.545705 
L 502.318873 140.459097 
L 531.384248 141.649185 
L 560.449622 143.006932 
L 589.514996 144.449827 
L 618.58037 145.918253 
L 647.645744 147.361149 
L 676.711118 148.718896 
L 705.776493 149.908984 
L 734.841867 150.822375 
L 763.907241 151.341567 
L 792.972615 151.382941 
" clip-path="url(#pf82f05fb82)" style="fill: none; stroke-dasharray: 9.6,2.4,1.5,2.4; stroke-dashoffset: 0; stroke: #000000; stroke-width: 1.5"/>
   </g>
   <g id="patch_8">
    <path d="M 44.53923 217.171283 
L 44.53923 116.935882 
" style="fill: none; stroke: #000000; stroke-width: 0.8; stroke-linejoin: miter; stroke-linecap: square"/>
   </g>
   <g id="patch_9">
    <path d="M 843.83702 217.171283 
L 843.83702 116.935882 
" style="fill: none; stroke: #000000; stroke-width: 0.8; stroke-linejoin: miter; stroke-linecap: square"/>
   </g>
   <g id="patch_10">
    <path d="M 44.53923 217.171283 
L 843.83702 217.171283 
" style="fill: none; stroke: #000000; stroke-width: 0.8; stroke-linejoin: miter; stroke-linecap: square"/>
   </g>
   <g id="patch_11">
    <path d="M 44.53923 116.935882 
L 843.83702 116.935882 
" style="fill: none; stroke: #000000; stroke-width: 0.8; stroke-linejoin: miter; stroke-linecap: square"/>
   </g>
  </g>
  <g id="axes_3">
   <g id="patch_12">
    <path d="M 44.53923 326.907165 
L 843.83702 326.907165 
L 843.83702 226.671763 
L 44.53923 226.671763 
z
" style="fill: #ffffff"/>
   </g>
   <g id="FillBetweenPolyCollection_53">
    <defs>
     <path id="m9baaf9c536" d="M 197.132444 -67.918052 
L 197.132444 -60.628204 
L 226.197819 -60.628204 
L 226.197819 -67.918052 
L 226.197819 -67.918052 
L 197.132444 -67.918052 
z
" style="stroke: #008000; stroke-opacity: 0.4"/>
    </defs>
    <g clip-path="url(#p3f0f0346f4)">
     <use xlink:href="#m9baaf9c536" x="0" y="368.39952" style="fill: #008000; fill-opacity: 0.4; stroke: #008000; stroke-opacity: 0.4"/>
    </g>
   </g>
   <g id="FillBetweenPolyCollection_54">
    <defs>
     <path id="m8ef65abfea" d="M 226.197819 -67.918052 
L 226.197819 -46.04851 
L 255.263193 -46.04851 
L 255.263193 -67.918052 
L 255.263193 -67.918052 
L 226.197819 -67.918052 
z
" style="stroke: #008000; stroke-opacity: 0.4"/>
    </defs>
    <g clip-path="url(#p3f0f0346f4)">
     <use xlink:href="#m8ef65abfea" x="0" y="368.39952" style="fill: #008000; fill-opacity: 0.4; stroke: #008000; stroke-opacity: 0.4"/>
    </g>
   </g>
   <g id="FillBetweenPolyCollection_55">
    <defs>
     <path id="m72f5d9ffee" d="M 226.197819 -137.171602 
L 226.197819 -126.236831 
L 255.263193 -126.236831 
L 255.263193 -137.171602 
L 255.263193 -137.171602 
L 226.197819 -137.171602 
z
" style="stroke: #008000; stroke-opacity: 0.4"/>
    </defs>
    <g clip-path="url(#p3f0f0346f4)">
     <use xlink:href="#m72f5d9ffee" x="0" y="368.39952" style="fill: #008000; fill-opacity: 0.4; stroke: #008000; stroke-opacity: 0.4"/>
    </g>
   </g>
   <g id="FillBetweenPolyCollection_56">
    <defs>
     <path id="m48a2804d56" d="M 255.263193 -137.171602 
L 255.263193 -46.04851 
L 284.328567 -46.04851 
L 284.328567 -137.171602 
L 284.328567 -137.171602 
L 255.263193 -137.171602 
z
" style="stroke: #008000; stroke-opacity: 0.4"/>
    </defs>
    <g clip-path="url(#p3f0f0346f4)">
     <use xlink:href="#m48a2804d56" x="0" y="368.39952" style="fill: #008000; fill-opacity: 0.4; stroke: #008000; stroke-opacity: 0.4"/>
    </g>
   </g>
   <g id="FillBetweenPolyCollection_57">
    <defs>
     <path id="m85ce7313ac" d="M 284.328567 -137.171602 
L 284.328567 -46.04851 
L 313.393941 -46.04851 
L 313.393941 -137.171602 
L 313.393941 -137.171602 
L 284.328567 -137.171602 
z
" style="stroke: #008000; stroke-opacity: 0.4"/>
    </defs>
    <g clip-path="url(#p3f0f0346f4)">
     <use xlink:href="#m85ce7313ac" x="0" y="368.39952" style="fill: #008000; fill-opacity: 0.4; stroke: #008000; stroke-opacity: 0.4"/>
    </g>
   </g>
   <g id="FillBetweenPolyCollection_58">
    <defs>
     <path id="m69dbc5c201" d="M 313.393941 -137.171602 
L 313.393941 -46.04851 
L 342.459315 -46.04851 
L 342.459315 -137.171602 
L 342.459315 -137.171602 
L 313.393941 -137.171602 
z
" style="stroke: #008000; stroke-opacity: 0.4"/>
    </defs>
    <g clip-path="url(#p3f0f0346f4)">
     <use xlink:href="#m69dbc5c201" x="0" y="368.39952" style="fill: #008000; fill-opacity: 0.4; stroke: #008000; stroke-opacity: 0.4"/>
    </g>
   </g>
   <g id="FillBetweenPolyCollection_59">
    <defs>
     <path id="m07740c9fca" d="M 342.459315 -137.171602 
L 342.459315 -46.04851 
L 371.52469 -46.04851 
L 371.52469 -137.171602 
L 371.52469 -137.171602 
L 342.459315 -137.171602 
z
" style="stroke: #008000; stroke-opacity: 0.4"/>
    </defs>
    <g clip-path="url(#p3f0f0346f4)">
     <use xlink:href="#m07740c9fca" x="0" y="368.39952" style="fill: #008000; fill-opacity: 0.4; stroke: #008000; stroke-opacity: 0.4"/>
    </g>
   </g>
   <g id="FillBetweenPolyCollection_60">
    <defs>
     <path id="m9ea607c938" d="M 371.52469 -137.171602 
L 371.52469 -46.04851 
L 400.590064 -46.04851 
L 400.590064 -137.171602 
L 400.590064 -137.171602 
L 371.52469 -137.171602 
z
" style="stroke: #008000; stroke-opacity: 0.4"/>
    </defs>
    <g clip-path="url(#p3f0f0346f4)">
     <use xlink:href="#m9ea607c938" x="0" y="368.39952" style="fill: #008000; fill-opacity: 0.4; stroke: #008000; stroke-opacity: 0.4"/>
    </g>
   </g>
   <g id="FillBetweenPolyCollection_61">
    <defs>
     <path id="m82ab1f8eee" d="M 400.590064 -137.171602 
L 400.590064 -46.04851 
L 429.655438 -46.04851 
L 429.655438 -137.171602 
L 429.655438 -137.171602 
L 400.590064 -137.171602 
z
" style="stroke: #008000; stroke-opacity: 0.4"/>
    </defs>
    <g clip-path="url(#p3f0f0346f4)">
     <use xlink:href="#m82ab1f8eee" x="0" y="368.39952" style="fill: #008000; fill-opacity: 0.4; stroke: #008000; stroke-opacity: 0.4"/>
    </g>
   </g>
   <g id="FillBetweenPolyCollection_62">
    <defs>
     <path id="mbcf6641377" d="M 429.655438 -137.171602 
L 429.655438 -46.04851 
L 458.720812 -46.04851 
L 458.720812 -137.171602 
L 458.720812 -137.171602 
L 429.655438 -137.171602 
z
" style="stroke: #008000; stroke-opacity: 0.4"/>
    </defs>
    <g clip-path="url(#p3f0f0346f4)">
     <use xlink:href="#mbcf6641377" x="0" y="368.39952" style="fill: #008000; fill-opacity: 0.4; stroke: #008000; stroke-opacity: 0.4"/>
    </g>
   </g>
   <g id="FillBetweenPolyCollection_63">
    <defs>
     <path id="m13237ed2a4" d="M 458.720812 -137.171602 
L 458.720812 -46.04851 
L 487.786186 -46.04851 
L 487.786186 -137.171602 
L 487.786186 -137.171602 
L 458.720812 -137.171602 
z
" style="stroke: #008000; stroke-opacity: 0.4"/>
    </defs>
    <g clip-path="url(#p3f0f0346f4)">
     <use xlink:href="#m13237ed2a4" x="0" y="368.39952" style="fill: #008000; fill-opacity: 0.4; stroke: #008000; stroke-opacity: 0.4"/>
    </g>
   </g>
   <g id="FillBetweenPolyCollection_64">
    <defs>
     <path id="m50895401dd" d="M 487.786186 -137.171602 
L 487.786186 -46.04851 
L 516.85156 -46.04851 
L 516.85156 -137.171602 
L 516.85156 -137.171602 
L 487.786186 -137.171602 
z
" style="stroke: #008000; stroke-opacity: 0.4"/>
    </defs>
    <g clip-path="url(#p3f0f0346f4)">
     <use xlink:href="#m50895401dd" x="0" y="368.39952" style="fill: #008000; fill-opacity: 0.4; stroke: #008000; stroke-opacity: 0.4"/>
    </g>
   </g>
   <g id="FillBetweenPolyCollection_65">
    <defs>
     <path id="m0140c6ee48" d="M 516.85156 -137.171602 
L 516.85156 -46.04851 
L 545.916935 -46.04851 
L 545.916935 -137.171602 
L 545.916935 -137.171602 
L 516.85156 -137.171602 
z
" style="stroke: #008000; stroke-opacity: 0.4"/>
    </defs>
    <g clip-path="url(#p3f0f0346f4)">
     <use xlink:href="#m0140c6ee48" x="0" y="368.39952" style="fill: #008000; fill-opacity: 0.4; stroke: #008000; stroke-opacity: 0.4"/>
    </g>
   </g>
   <g id="FillBetweenPolyCollection_66">
    <defs>
     <path id="m014708c932" d="M 545.916935 -137.171602 
L 545.916935 -46.04851 
L 574.982309 -46.04851 
L 574.982309 -137.171602 
L 574.982309 -137.171602 
L 545.916935 -137.171602 
z
" style="stroke: #008000; stroke-opacity: 0.4"/>
    </defs>
    <g clip-path="url(#p3f0f0346f4)">
     <use xlink:href="#m014708c932" x="0" y="368.39952" style="fill: #008000; fill-opacity: 0.4; stroke: #008000; stroke-opacity: 0.4"/>
    </g>
   </g>
   <g id="FillBetweenPolyCollection_67">
    <defs>
     <path id="md1c5411343" d="M 574.982309 -137.171602 
L 574.982309 -46.04851 
L 604.047683 -46.04851 
L 604.047683 -137.171602 
L 604.047683 -137.171602 
L 574.982309 -137.171602 
z
" style="stroke: #008000; stroke-opacity: 0.4"/>
    </defs>
    <g clip-path="url(#p3f0f0346f4)">
     <use xlink:href="#md1c5411343" x="0" y="368.39952" style="fill: #008000; fill-opacity: 0.4; stroke: #008000; stroke-opacity: 0.4"/>
    </g>
   </g>
   <g id="FillBetweenPolyCollection_68">
    <defs>
     <path id="m03aba8c371" d="M 604.047683 -67.918052 
L 604.047683 -46.04851 
L 633.113057 -46.04851 
L 633.113057 -67.918052 
L 633.113057 -67.918052 
L 604.047683 -67.918052 
z
" style="stroke: #008000; stroke-opacity: 0.4"/>
    </defs>
    <g clip-path="url(#p3f0f0346f4)">
     <use xlink:href="#m03aba8c371" x="0" y="368.39952" style="fill: #008000; fill-opacity: 0.4; stroke: #008000; stroke-opacity: 0.4"/>
    </g>
   </g>
   <g id="FillBetweenPolyCollection_69">
    <defs>
     <path id="m6b61ff5c26" d="M 604.047683 -137.171602 
L 604.047683 -129.881755 
L 633.113057 -129.881755 
L 633.113057 -137.171602 
L 633.113057 -137.171602 
L 604.047683 -137.171602 
z
" style="stroke: #008000; stroke-opacity: 0.4"/>
    </defs>
    <g clip-path="url(#p3f0f0346f4)">
     <use xlink:href="#m6b61ff5c26" x="0" y="368.39952" style="fill: #008000; fill-opacity: 0.4; stroke: #008000; stroke-opacity: 0.4"/>
    </g>
   </g>
   <g id="FillBetweenPolyCollection_70">
    <defs>
     <path id="m059a79baca" d="M 633.113057 -67.918052 
L 633.113057 -60.628204 
L 662.178431 -60.628204 
L 662.178431 -67.918052 
L 662.178431 -67.918052 
L 633.113057 -67.918052 
z
" style="stroke: #008000; stroke-opacity: 0.4"/>
    </defs>
    <g clip-path="url(#p3f0f0346f4)">
     <use xlink:href="#m059a79baca" x="0" y="368.39952" style="fill: #008000; fill-opacity: 0.4; stroke: #008000; stroke-opacity: 0.4"/>
    </g>
   </g>
   <g id="FillBetweenPolyCollection_71"/>
   <g id="matplotlib.axis_5">
    <g id="xtick_27">
     <g id="line2d_37">
      <g>
       <use xlink:href="#m9de2957ee5" x="95.403635" y="326.907165" style="stroke: #000000; stroke-width: 0.8"/>
      </g>
     </g>
     <g id="text_7">
      <!-- 0 -->
      <g transform="translate(92.222385 341.505602) scale(0.1 -0.1)">
       <use xlink:href="#DejaVuSans-30"/>
      </g>
     </g>
    </g>
    <g id="xtick_28">
     <g id="line2d_38">
      <g>
       <use xlink:href="#m9de2957ee5" x="153.534383" y="326.907165" style="stroke: #000000; stroke-width: 0.8"/>
      </g>
     </g>
     <g id="text_8">
      <!-- 30 -->
      <g transform="translate(147.171883 341.505602) scale(0.1 -0.1)">
       <defs>
        <path id="DejaVuSans-33" d="M 2597 2516 
Q 3050 2419 3304 2112 
Q 3559 1806 3559 1356 
Q 3559 666 3084 287 
Q 2609 -91 1734 -91 
Q 1441 -91 1130 -33 
Q 819 25 488 141 
L 488 750 
Q 750 597 1062 519 
Q 1375 441 1716 441 
Q 2309 441 2620 675 
Q 2931 909 2931 1356 
Q 2931 1769 2642 2001 
Q 2353 2234 1838 2234 
L 1294 2234 
L 1294 2753 
L 1863 2753 
Q 2328 2753 2575 2939 
Q 2822 3125 2822 3475 
Q 2822 3834 2567 4026 
Q 2313 4219 1838 4219 
Q 1578 4219 1281 4162 
Q 984 4106 628 3988 
L 628 4550 
Q 988 4650 1302 4700 
Q 1616 4750 1894 4750 
Q 2613 4750 3031 4423 
Q 3450 4097 3450 3541 
Q 3450 3153 3228 2886 
Q 3006 2619 2597 2516 
z
" transform="scale(0.015625)"/>
       </defs>
       <use xlink:href="#DejaVuSans-33"/>
       <use xlink:href="#DejaVuSans-30" transform="translate(63.623047 0)"/>
      </g>
     </g>
    </g>
    <g id="xtick_29">
     <g id="line2d_39">
      <g>
       <use xlink:href="#m9de2957ee5" x="211.665132" y="326.907165" style="stroke: #000000; stroke-width: 0.8"/>
      </g>
     </g>
     <g id="text_9">
      <!-- 60 -->
      <g transform="translate(205.302632 341.505602) scale(0.1 -0.1)">
       <defs>
        <path id="DejaVuSans-36" d="M 2113 2584 
Q 1688 2584 1439 2293 
Q 1191 2003 1191 1497 
Q 1191 994 1439 701 
Q 1688 409 2113 409 
Q 2538 409 2786 701 
Q 3034 994 3034 1497 
Q 3034 2003 2786 2293 
Q 2538 2584 2113 2584 
z
M 3366 4563 
L 3366 3988 
Q 3128 4100 2886 4159 
Q 2644 4219 2406 4219 
Q 1781 4219 1451 3797 
Q 1122 3375 1075 2522 
Q 1259 2794 1537 2939 
Q 1816 3084 2150 3084 
Q 2853 3084 3261 2657 
Q 3669 2231 3669 1497 
Q 3669 778 3244 343 
Q 2819 -91 2113 -91 
Q 1303 -91 875 529 
Q 447 1150 447 2328 
Q 447 3434 972 4092 
Q 1497 4750 2381 4750 
Q 2619 4750 2861 4703 
Q 3103 4656 3366 4563 
z
" transform="scale(0.015625)"/>
       </defs>
       <use xlink:href="#DejaVuSans-36"/>
       <use xlink:href="#DejaVuSans-30" transform="translate(63.623047 0)"/>
      </g>
     </g>
    </g>
    <g id="xtick_30">
     <g id="line2d_40">
      <g>
       <use xlink:href="#m9de2957ee5" x="269.79588" y="326.907165" style="stroke: #000000; stroke-width: 0.8"/>
      </g>
     </g>
     <g id="text_10">
      <!-- 90 -->
      <g transform="translate(263.43338 341.505602) scale(0.1 -0.1)">
       <defs>
        <path id="DejaVuSans-39" d="M 703 97 
L 703 672 
Q 941 559 1184 500 
Q 1428 441 1663 441 
Q 2288 441 2617 861 
Q 2947 1281 2994 2138 
Q 2813 1869 2534 1725 
Q 2256 1581 1919 1581 
Q 1219 1581 811 2004 
Q 403 2428 403 3163 
Q 403 3881 828 4315 
Q 1253 4750 1959 4750 
Q 2769 4750 3195 4129 
Q 3622 3509 3622 2328 
Q 3622 1225 3098 567 
Q 2575 -91 1691 -91 
Q 1453 -91 1209 -44 
Q 966 3 703 97 
z
M 1959 2075 
Q 2384 2075 2632 2365 
Q 2881 2656 2881 3163 
Q 2881 3666 2632 3958 
Q 2384 4250 1959 4250 
Q 1534 4250 1286 3958 
Q 1038 3666 1038 3163 
Q 1038 2656 1286 2365 
Q 1534 2075 1959 2075 
z
" transform="scale(0.015625)"/>
       </defs>
       <use xlink:href="#DejaVuSans-39"/>
       <use xlink:href="#DejaVuSans-30" transform="translate(63.623047 0)"/>
      </g>
     </g>
    </g>
    <g id="xtick_31">
     <g id="line2d_41">
      <g>
       <use xlink:href="#m9de2957ee5" x="327.926628" y="326.907165" style="stroke: #000000; stroke-width: 0.8"/>
      </g>
     </g>
     <g id="text_11">
      <!-- 120 -->
      <g transform="translate(318.382878 341.505602) scale(0.1 -0.1)">
       <use xlink:href="#DejaVuSans-31"/>
       <use xlink:href="#DejaVuSans-32" transform="translate(63.623047 0)"/>
       <use xlink:href="#DejaVuSans-30" transform="translate(127.246094 0)"/>
      </g>
     </g>
    </g>
    <g id="xtick_32">
     <g id="line2d_42">
      <g>
       <use xlink:href="#m9de2957ee5" x="386.057377" y="326.907165" style="stroke: #000000; stroke-width: 0.8"/>
      </g>
     </g>
     <g id="text_12">
      <!-- 150 -->
      <g transform="translate(376.513627 341.505602) scale(0.1 -0.1)">
       <defs>
        <path id="DejaVuSans-35" d="M 691 4666 
L 3169 4666 
L 3169 4134 
L 1269 4134 
L 1269 2991 
Q 1406 3038 1543 3061 
Q 1681 3084 1819 3084 
Q 2600 3084 3056 2656 
Q 3513 2228 3513 1497 
Q 3513 744 3044 326 
Q 2575 -91 1722 -91 
Q 1428 -91 1123 -41 
Q 819 9 494 109 
L 494 744 
Q 775 591 1075 516 
Q 1375 441 1709 441 
Q 2250 441 2565 725 
Q 2881 1009 2881 1497 
Q 2881 1984 2565 2268 
Q 2250 2553 1709 2553 
Q 1456 2553 1204 2497 
Q 953 2441 691 2322 
L 691 4666 
z
" transform="scale(0.015625)"/>
       </defs>
       <use xlink:href="#DejaVuSans-31"/>
       <use xlink:href="#DejaVuSans-35" transform="translate(63.623047 0)"/>
       <use xlink:href="#DejaVuSans-30" transform="translate(127.246094 0)"/>
      </g>
     </g>
    </g>
    <g id="xtick_33">
     <g id="line2d_43">
      <g>
       <use xlink:href="#m9de2957ee5" x="444.188125" y="326.907165" style="stroke: #000000; stroke-width: 0.8"/>
      </g>
     </g>
     <g id="text_13">
      <!-- 180 -->
      <g transform="translate(434.644375 341.505602) scale(0.1 -0.1)">
       <defs>
        <path id="DejaVuSans-38" d="M 2034 2216 
Q 1584 2216 1326 1975 
Q 1069 1734 1069 1313 
Q 1069 891 1326 650 
Q 1584 409 2034 409 
Q 2484 409 2743 651 
Q 3003 894 3003 1313 
Q 3003 1734 2745 1975 
Q 2488 2216 2034 2216 
z
M 1403 2484 
Q 997 2584 770 2862 
Q 544 3141 544 3541 
Q 544 4100 942 4425 
Q 1341 4750 2034 4750 
Q 2731 4750 3128 4425 
Q 3525 4100 3525 3541 
Q 3525 3141 3298 2862 
Q 3072 2584 2669 2484 
Q 3125 2378 3379 2068 
Q 3634 1759 3634 1313 
Q 3634 634 3220 271 
Q 2806 -91 2034 -91 
Q 1263 -91 848 271 
Q 434 634 434 1313 
Q 434 1759 690 2068 
Q 947 2378 1403 2484 
z
M 1172 3481 
Q 1172 3119 1398 2916 
Q 1625 2713 2034 2713 
Q 2441 2713 2670 2916 
Q 2900 3119 2900 3481 
Q 2900 3844 2670 4047 
Q 2441 4250 2034 4250 
Q 1625 4250 1398 4047 
Q 1172 3844 1172 3481 
z
" transform="scale(0.015625)"/>
       </defs>
       <use xlink:href="#DejaVuSans-31"/>
       <use xlink:href="#DejaVuSans-38" transform="translate(63.623047 0)"/>
       <use xlink:href="#DejaVuSans-30" transform="translate(127.246094 0)"/>
      </g>
     </g>
    </g>
    <g id="xtick_34">
     <g id="line2d_44">
      <g>
       <use xlink:href="#m9de2957ee5" x="502.318873" y="326.907165" style="stroke: #000000; stroke-width: 0.8"/>
      </g>
     </g>
     <g id="text_14">
      <!-- 210 -->
      <g transform="translate(492.775123 341.505602) scale(0.1 -0.1)">
       <use xlink:href="#DejaVuSans-32"/>
       <use xlink:href="#DejaVuSans-31" transform="translate(63.623047 0)"/>
       <use xlink:href="#DejaVuSans-30" transform="translate(127.246094 0)"/>
      </g>
     </g>
    </g>
    <g id="xtick_35">
     <g id="line2d_45">
      <g>
       <use xlink:href="#m9de2957ee5" x="560.449622" y="326.907165" style="stroke: #000000; stroke-width: 0.8"/>
      </g>
     </g>
     <g id="text_15">
      <!-- 240 -->
      <g transform="translate(550.905872 341.505602) scale(0.1 -0.1)">
       <defs>
        <path id="DejaVuSans-34" d="M 2419 4116 
L 825 1625 
L 2419 1625 
L 2419 4116 
z
M 2253 4666 
L 3047 4666 
L 3047 1625 
L 3713 1625 
L 3713 1100 
L 3047 1100 
L 3047 0 
L 2419 0 
L 2419 1100 
L 313 1100 
L 313 1709 
L 2253 4666 
z
" transform="scale(0.015625)"/>
       </defs>
       <use xlink:href="#DejaVuSans-32"/>
       <use xlink:href="#DejaVuSans-34" transform="translate(63.623047 0)"/>
       <use xlink:href="#DejaVuSans-30" transform="translate(127.246094 0)"/>
      </g>
     </g>
    </g>
    <g id="xtick_36">
     <g id="line2d_46">
      <g>
       <use xlink:href="#m9de2957ee5" x="618.58037" y="326.907165" style="stroke: #000000; stroke-width: 0.8"/>
      </g>
     </g>
     <g id="text_16">
      <!-- 270 -->
      <g transform="translate(609.03662 341.505602) scale(0.1 -0.1)">
       <defs>
        <path id="DejaVuSans-37" d="M 525 4666 
L 3525 4666 
L 3525 4397 
L 1831 0 
L 1172 0 
L 2766 4134 
L 525 4134 
L 525 4666 
z
" transform="scale(0.015625)"/>
       </defs>
       <use xlink:href="#DejaVuSans-32"/>
       <use xlink:href="#DejaVuSans-37" transform="translate(63.623047 0)"/>
       <use xlink:href="#DejaVuSans-30" transform="translate(127.246094 0)"/>
      </g>
     </g>
    </g>
    <g id="xtick_37">
     <g id="line2d_47">
      <g>
       <use xlink:href="#m9de2957ee5" x="676.711118" y="326.907165" style="stroke: #000000; stroke-width: 0.8"/>
      </g>
     </g>
     <g id="text_17">
      <!-- 300 -->
      <g transform="translate(667.167368 341.505602) scale(0.1 -0.1)">
       <use xlink:href="#DejaVuSans-33"/>
       <use xlink:href="#DejaVuSans-30" transform="translate(63.623047 0)"/>
       <use xlink:href="#DejaVuSans-30" transform="translate(127.246094 0)"/>
      </g>
     </g>
    </g>
    <g id="xtick_38">
     <g id="line2d_48">
      <g>
       <use xlink:href="#m9de2957ee5" x="734.841867" y="326.907165" style="stroke: #000000; stroke-width: 0.8"/>
      </g>
     </g>
     <g id="text_18">
      <!-- 330 -->
      <g transform="translate(725.298117 341.505602) scale(0.1 -0.1)">
       <use xlink:href="#DejaVuSans-33"/>
       <use xlink:href="#DejaVuSans-33" transform="translate(63.623047 0)"/>
       <use xlink:href="#DejaVuSans-30" transform="translate(127.246094 0)"/>
      </g>
     </g>
    </g>
    <g id="xtick_39">
     <g id="line2d_49">
      <g>
       <use xlink:href="#m9de2957ee5" x="792.972615" y="326.907165" style="stroke: #000000; stroke-width: 0.8"/>
      </g>
     </g>
     <g id="text_19">
      <!-- 360 -->
      <g transform="translate(783.428865 341.505602) scale(0.1 -0.1)">
       <use xlink:href="#DejaVuSans-33"/>
       <use xlink:href="#DejaVuSans-36" transform="translate(63.623047 0)"/>
       <use xlink:href="#DejaVuSans-30" transform="translate(127.246094 0)"/>
      </g>
     </g>
    </g>
   </g>
   <g id="matplotlib.axis_6">
    <g id="ytick_7">
     <g id="line2d_50">
      <g>
       <use xlink:href="#m4483b6b1aa" x="44.53923" y="320.528549" style="stroke: #000000; stroke-width: 0.8"/>
      </g>
     </g>
     <g id="text_20">
      <!-- 0 -->
      <g transform="translate(31.17673 324.327767) scale(0.1 -0.1)">
       <use xlink:href="#DejaVuSans-30"/>
      </g>
     </g>
    </g>
    <g id="ytick_8">
     <g id="line2d_51">
      <g>
       <use xlink:href="#m4483b6b1aa" x="44.53923" y="284.079312" style="stroke: #000000; stroke-width: 0.8"/>
      </g>
     </g>
     <g id="text_21">
      <!-- 10 -->
      <g transform="translate(24.81423 287.87853) scale(0.1 -0.1)">
       <use xlink:href="#DejaVuSans-31"/>
       <use xlink:href="#DejaVuSans-30" transform="translate(63.623047 0)"/>
      </g>
     </g>
    </g>
    <g id="ytick_9">
     <g id="line2d_52">
      <g>
       <use xlink:href="#m4483b6b1aa" x="44.53923" y="247.630075" style="stroke: #000000; stroke-width: 0.8"/>
      </g>
     </g>
     <g id="text_22">
      <!-- 20 -->
      <g transform="translate(24.81423 251.429293) scale(0.1 -0.1)">
       <use xlink:href="#DejaVuSans-32"/>
       <use xlink:href="#DejaVuSans-30" transform="translate(63.623047 0)"/>
      </g>
     </g>
    </g>
   </g>
   <g id="line2d_53">
    <path d="M 95.403635 287.160889 
L 124.469009 288.478619 
L 153.534383 290.464933 
L 182.599757 292.795096 
L 211.665132 295.275264 
L 240.730506 297.810203 
L 269.79588 300.355551 
L 298.861254 302.878792 
L 327.926628 305.323356 
L 356.992002 307.566746 
L 386.057377 309.372173 
L 415.122751 310.381291 
L 444.188125 310.284488 
L 473.253499 309.115911 
L 502.318873 307.215149 
L 531.384248 304.925433 
L 560.449622 302.461622 
L 589.514996 299.931884 
L 618.58037 297.386129 
L 647.645744 294.856391 
L 676.711118 292.39258 
L 705.776493 290.102864 
L 734.841867 288.202102 
L 763.907241 287.033524 
L 792.972615 286.936722 
" clip-path="url(#p3f0f0346f4)" style="fill: none; stroke-dasharray: 5.55,2.4; stroke-dashoffset: 0; stroke: #000000; stroke-width: 1.5"/>
   </g>
   <g id="line2d_54">
    <path d="M 95.403635 266.41804 
L 124.469009 265.100309 
L 153.534383 263.113996 
L 182.599757 260.783833 
L 211.665132 258.303664 
L 240.730506 255.768726 
L 269.79588 253.223377 
L 298.861254 250.700137 
L 327.926628 248.255572 
L 356.992002 246.012182 
L 386.057377 244.206755 
L 415.122751 243.197638 
L 444.188125 243.29444 
L 473.253499 244.463018 
L 502.318873 246.363779 
L 531.384248 248.653495 
L 560.449622 251.117306 
L 589.514996 253.647045 
L 618.58037 256.192799 
L 647.645744 258.722538 
L 676.711118 261.186349 
L 705.776493 263.476065 
L 734.841867 265.376826 
L 763.907241 266.545404 
L 792.972615 266.642206 
" clip-path="url(#p3f0f0346f4)" style="fill: none; stroke-dasharray: 9.6,2.4,1.5,2.4; stroke-dashoffset: 0; stroke: #000000; stroke-width: 1.5"/>
   </g>
   <g id="line2d_55"/>
   <g id="line2d_56"/>
   <g id="patch_13">
    <path d="M 44.53923 326.907165 
L 44.53923 226.671763 
" style="fill: none; stroke: #000000; stroke-width: 0.8; stroke-linejoin: miter; stroke-linecap: square"/>
   </g>
   <g id="patch_14">
    <path d="M 843.83702 326.907165 
L 843.83702 226.671763 
" style="fill: none; stroke: #000000; stroke-width: 0.8; stroke-linejoin: miter; stroke-linecap: square"/>
   </g>
   <g id="patch_15">
    <path d="M 44.53923 326.907165 
L 843.83702 326.907165 
" style="fill: none; stroke: #000000; stroke-width: 0.8; stroke-linejoin: miter; stroke-linecap: square"/>
   </g>
   <g id="patch_16">
    <path d="M 44.53923 226.671763 
L 843.83702 226.671763 
" style="fill: none; stroke: #000000; stroke-width: 0.8; stroke-linejoin: miter; stroke-linecap: square"/>
   </g>
   <g id="legend_1">
    <g id="patch_17">
     <path d="M 705.810458 321.907165 
L 836.83702 321.907165 
Q 838.83702 321.907165 838.83702 319.907165 
L 838.83702 276.87279 
Q 838.83702 274.87279 836.83702 274.87279 
L 705.810458 274.87279 
Q 703.810458 274.87279 703.810458 276.87279 
L 703.810458 319.907165 
Q 703.810458 321.907165 705.810458 321.907165 
z
" style="fill: #ffffff; opacity: 0.8; stroke: #cccccc; stroke-linejoin: miter"/>
    </g>
    <g id="line2d_57">
     <path d="M 707.810458 282.971227 
L 717.810458 282.971227 
L 727.810458 282.971227 
" style="fill: none; stroke-dasharray: 5.55,2.4; stroke-dashoffset: 0; stroke: #000000; stroke-width: 1.5"/>
    </g>
    <g id="text_23">
     <!-- Sunrise Time -->
     <g transform="translate(735.810458 286.471227) scale(0.1 -0.1)">
      <defs>
       <path id="DejaVuSans-53" d="M 3425 4513 
L 3425 3897 
Q 3066 4069 2747 4153 
Q 2428 4238 2131 4238 
Q 1616 4238 1336 4038 
Q 1056 3838 1056 3469 
Q 1056 3159 1242 3001 
Q 1428 2844 1947 2747 
L 2328 2669 
Q 3034 2534 3370 2195 
Q 3706 1856 3706 1288 
Q 3706 609 3251 259 
Q 2797 -91 1919 -91 
Q 1588 -91 1214 -16 
Q 841 59 441 206 
L 441 856 
Q 825 641 1194 531 
Q 1563 422 1919 422 
Q 2459 422 2753 634 
Q 3047 847 3047 1241 
Q 3047 1584 2836 1778 
Q 2625 1972 2144 2069 
L 1759 2144 
Q 1053 2284 737 2584 
Q 422 2884 422 3419 
Q 422 4038 858 4394 
Q 1294 4750 2059 4750 
Q 2388 4750 2728 4690 
Q 3069 4631 3425 4513 
z
" transform="scale(0.015625)"/>
       <path id="DejaVuSans-75" d="M 544 1381 
L 544 3500 
L 1119 3500 
L 1119 1403 
Q 1119 906 1312 657 
Q 1506 409 1894 409 
Q 2359 409 2629 706 
Q 2900 1003 2900 1516 
L 2900 3500 
L 3475 3500 
L 3475 0 
L 2900 0 
L 2900 538 
Q 2691 219 2414 64 
Q 2138 -91 1772 -91 
Q 1169 -91 856 284 
Q 544 659 544 1381 
z
M 1991 3584 
L 1991 3584 
z
" transform="scale(0.015625)"/>
       <path id="DejaVuSans-6e" d="M 3513 2113 
L 3513 0 
L 2938 0 
L 2938 2094 
Q 2938 2591 2744 2837 
Q 2550 3084 2163 3084 
Q 1697 3084 1428 2787 
Q 1159 2491 1159 1978 
L 1159 0 
L 581 0 
L 581 3500 
L 1159 3500 
L 1159 2956 
Q 1366 3272 1645 3428 
Q 1925 3584 2291 3584 
Q 2894 3584 3203 3211 
Q 3513 2838 3513 2113 
z
" transform="scale(0.015625)"/>
       <path id="DejaVuSans-72" d="M 2631 2963 
Q 2534 3019 2420 3045 
Q 2306 3072 2169 3072 
Q 1681 3072 1420 2755 
Q 1159 2438 1159 1844 
L 1159 0 
L 581 0 
L 581 3500 
L 1159 3500 
L 1159 2956 
Q 1341 3275 1631 3429 
Q 1922 3584 2338 3584 
Q 2397 3584 2469 3576 
Q 2541 3569 2628 3553 
L 2631 2963 
z
" transform="scale(0.015625)"/>
       <path id="DejaVuSans-69" d="M 603 3500 
L 1178 3500 
L 1178 0 
L 603 0 
L 603 3500 
z
M 603 4863 
L 1178 4863 
L 1178 4134 
L 603 4134 
L 603 4863 
z
" transform="scale(0.015625)"/>
       <path id="DejaVuSans-73" d="M 2834 3397 
L 2834 2853 
Q 2591 2978 2328 3040 
Q 2066 3103 1784 3103 
Q 1356 3103 1142 2972 
Q 928 2841 928 2578 
Q 928 2378 1081 2264 
Q 1234 2150 1697 2047 
L 1894 2003 
Q 2506 1872 2764 1633 
Q 3022 1394 3022 966 
Q 3022 478 2636 193 
Q 2250 -91 1575 -91 
Q 1294 -91 989 -36 
Q 684 19 347 128 
L 347 722 
Q 666 556 975 473 
Q 1284 391 1588 391 
Q 1994 391 2212 530 
Q 2431 669 2431 922 
Q 2431 1156 2273 1281 
Q 2116 1406 1581 1522 
L 1381 1569 
Q 847 1681 609 1914 
Q 372 2147 372 2553 
Q 372 3047 722 3315 
Q 1072 3584 1716 3584 
Q 2034 3584 2315 3537 
Q 2597 3491 2834 3397 
z
" transform="scale(0.015625)"/>
       <path id="DejaVuSans-65" d="M 3597 1894 
L 3597 1613 
L 953 1613 
Q 991 1019 1311 708 
Q 1631 397 2203 397 
Q 2534 397 2845 478 
Q 3156 559 3463 722 
L 3463 178 
Q 3153 47 2828 -22 
Q 2503 -91 2169 -91 
Q 1331 -91 842 396 
Q 353 884 353 1716 
Q 353 2575 817 3079 
Q 1281 3584 2069 3584 
Q 2775 3584 3186 3129 
Q 3597 2675 3597 1894 
z
M 3022 2063 
Q 3016 2534 2758 2815 
Q 2500 3097 2075 3097 
Q 1594 3097 1305 2825 
Q 1016 2553 972 2059 
L 3022 2063 
z
" transform="scale(0.015625)"/>
       <path id="DejaVuSans-20" transform="scale(0.015625)"/>
       <path id="DejaVuSans-54" d="M -19 4666 
L 3928 4666 
L 3928 4134 
L 2272 4134 
L 2272 0 
L 1638 0 
L 1638 4134 
L -19 4134 
L -19 4666 
z
" transform="scale(0.015625)"/>
       <path id="DejaVuSans-6d" d="M 3328 2828 
Q 3544 3216 3844 3400 
Q 4144 3584 4550 3584 
Q 5097 3584 5394 3201 
Q 5691 2819 5691 2113 
L 5691 0 
L 5113 0 
L 5113 2094 
Q 5113 2597 4934 2840 
Q 4756 3084 4391 3084 
Q 3944 3084 3684 2787 
Q 3425 2491 3425 1978 
L 3425 0 
L 2847 0 
L 2847 2094 
Q 2847 2600 2669 2842 
Q 2491 3084 2119 3084 
Q 1678 3084 1418 2786 
Q 1159 2488 1159 1978 
L 1159 0 
L 581 0 
L 581 3500 
L 1159 3500 
L 1159 2956 
Q 1356 3278 1631 3431 
Q 1906 3584 2284 3584 
Q 2666 3584 2933 3390 
Q 3200 3197 3328 2828 
z
" transform="scale(0.015625)"/>
      </defs>
      <use xlink:href="#DejaVuSans-53"/>
      <use xlink:href="#DejaVuSans-75" transform="translate(63.476562 0)"/>
      <use xlink:href="#DejaVuSans-6e" transform="translate(126.855469 0)"/>
      <use xlink:href="#DejaVuSans-72" transform="translate(190.234375 0)"/>
      <use xlink:href="#DejaVuSans-69" transform="translate(231.347656 0)"/>
      <use xlink:href="#DejaVuSans-73" transform="translate(259.130859 0)"/>
      <use xlink:href="#DejaVuSans-65" transform="translate(311.230469 0)"/>
      <use xlink:href="#DejaVuSans-20" transform="translate(372.753906 0)"/>
      <use xlink:href="#DejaVuSans-54" transform="translate(404.541016 0)"/>
      <use xlink:href="#DejaVuSans-69" transform="translate(462.5 0)"/>
      <use xlink:href="#DejaVuSans-6d" transform="translate(490.283203 0)"/>
      <use xlink:href="#DejaVuSans-65" transform="translate(587.695312 0)"/>
     </g>
    </g>
    <g id="line2d_58">
     <path d="M 707.810458 297.649352 
L 717.810458 297.649352 
L 727.810458 297.649352 
" style="fill: none; stroke-dasharray: 9.6,2.4,1.5,2.4; stroke-dashoffset: 0; stroke: #000000; stroke-width: 1.5"/>
    </g>
    <g id="text_24">
     <!-- Sunset Time -->
     <g transform="translate(735.810458 301.149352) scale(0.1 -0.1)">
      <defs>
       <path id="DejaVuSans-74" d="M 1172 4494 
L 1172 3500 
L 2356 3500 
L 2356 3053 
L 1172 3053 
L 1172 1153 
Q 1172 725 1289 603 
Q 1406 481 1766 481 
L 2356 481 
L 2356 0 
L 1766 0 
Q 1100 0 847 248 
Q 594 497 594 1153 
L 594 3053 
L 172 3053 
L 172 3500 
L 594 3500 
L 594 4494 
L 1172 4494 
z
" transform="scale(0.015625)"/>
      </defs>
      <use xlink:href="#DejaVuSans-53"/>
      <use xlink:href="#DejaVuSans-75" transform="translate(63.476562 0)"/>
      <use xlink:href="#DejaVuSans-6e" transform="translate(126.855469 0)"/>
      <use xlink:href="#DejaVuSans-73" transform="translate(190.234375 0)"/>
      <use xlink:href="#DejaVuSans-65" transform="translate(242.333984 0)"/>
      <use xlink:href="#DejaVuSans-74" transform="translate(303.857422 0)"/>
      <use xlink:href="#DejaVuSans-20" transform="translate(343.066406 0)"/>
      <use xlink:href="#DejaVuSans-54" transform="translate(374.853516 0)"/>
      <use xlink:href="#DejaVuSans-69" transform="translate(432.8125 0)"/>
      <use xlink:href="#DejaVuSans-6d" transform="translate(460.595703 0)"/>
      <use xlink:href="#DejaVuSans-65" transform="translate(558.007812 0)"/>
     </g>
    </g>
    <g id="patch_18">
     <path d="M 707.810458 315.827477 
L 727.810458 315.827477 
L 727.810458 308.827477 
L 707.810458 308.827477 
z
" style="fill: #008000; fill-opacity: 0.4; stroke: #008000; stroke-opacity: 0.4; stroke-linejoin: miter"/>
    </g>
    <g id="text_25">
     <!-- Deployable Window -->
     <g transform="translate(735.810458 315.827477) scale(0.1 -0.1)">
      <defs>
       <path id="DejaVuSans-44" d="M 1259 4147 
L 1259 519 
L 2022 519 
Q 2988 519 3436 956 
Q 3884 1394 3884 2338 
Q 3884 3275 3436 3711 
Q 2988 4147 2022 4147 
L 1259 4147 
z
M 628 4666 
L 1925 4666 
Q 3281 4666 3915 4102 
Q 4550 3538 4550 2338 
Q 4550 1131 3912 565 
Q 3275 0 1925 0 
L 628 0 
L 628 4666 
z
" transform="scale(0.015625)"/>
       <path id="DejaVuSans-70" d="M 1159 525 
L 1159 -1331 
L 581 -1331 
L 581 3500 
L 1159 3500 
L 1159 2969 
Q 1341 3281 1617 3432 
Q 1894 3584 2278 3584 
Q 2916 3584 3314 3078 
Q 3713 2572 3713 1747 
Q 3713 922 3314 415 
Q 2916 -91 2278 -91 
Q 1894 -91 1617 61 
Q 1341 213 1159 525 
z
M 3116 1747 
Q 3116 2381 2855 2742 
Q 2594 3103 2138 3103 
Q 1681 3103 1420 2742 
Q 1159 2381 1159 1747 
Q 1159 1113 1420 752 
Q 1681 391 2138 391 
Q 2594 391 2855 752 
Q 3116 1113 3116 1747 
z
" transform="scale(0.015625)"/>
       <path id="DejaVuSans-6c" d="M 603 4863 
L 1178 4863 
L 1178 0 
L 603 0 
L 603 4863 
z
" transform="scale(0.015625)"/>
       <path id="DejaVuSans-6f" d="M 1959 3097 
Q 1497 3097 1228 2736 
Q 959 2375 959 1747 
Q 959 1119 1226 758 
Q 1494 397 1959 397 
Q 2419 397 2687 759 
Q 2956 1122 2956 1747 
Q 2956 2369 2687 2733 
Q 2419 3097 1959 3097 
z
M 1959 3584 
Q 2709 3584 3137 3096 
Q 3566 2609 3566 1747 
Q 3566 888 3137 398 
Q 2709 -91 1959 -91 
Q 1206 -91 779 398 
Q 353 888 353 1747 
Q 353 2609 779 3096 
Q 1206 3584 1959 3584 
z
" transform="scale(0.015625)"/>
       <path id="DejaVuSans-79" d="M 2059 -325 
Q 1816 -950 1584 -1140 
Q 1353 -1331 966 -1331 
L 506 -1331 
L 506 -850 
L 844 -850 
Q 1081 -850 1212 -737 
Q 1344 -625 1503 -206 
L 1606 56 
L 191 3500 
L 800 3500 
L 1894 763 
L 2988 3500 
L 3597 3500 
L 2059 -325 
z
" transform="scale(0.015625)"/>
       <path id="DejaVuSans-61" d="M 2194 1759 
Q 1497 1759 1228 1600 
Q 959 1441 959 1056 
Q 959 750 1161 570 
Q 1363 391 1709 391 
Q 2188 391 2477 730 
Q 2766 1069 2766 1631 
L 2766 1759 
L 2194 1759 
z
M 3341 1997 
L 3341 0 
L 2766 0 
L 2766 531 
Q 2569 213 2275 61 
Q 1981 -91 1556 -91 
Q 1019 -91 701 211 
Q 384 513 384 1019 
Q 384 1609 779 1909 
Q 1175 2209 1959 2209 
L 2766 2209 
L 2766 2266 
Q 2766 2663 2505 2880 
Q 2244 3097 1772 3097 
Q 1472 3097 1187 3025 
Q 903 2953 641 2809 
L 641 3341 
Q 956 3463 1253 3523 
Q 1550 3584 1831 3584 
Q 2591 3584 2966 3190 
Q 3341 2797 3341 1997 
z
" transform="scale(0.015625)"/>
       <path id="DejaVuSans-62" d="M 3116 1747 
Q 3116 2381 2855 2742 
Q 2594 3103 2138 3103 
Q 1681 3103 1420 2742 
Q 1159 2381 1159 1747 
Q 1159 1113 1420 752 
Q 1681 391 2138 391 
Q 2594 391 2855 752 
Q 3116 1113 3116 1747 
z
M 1159 2969 
Q 1341 3281 1617 3432 
Q 1894 3584 2278 3584 
Q 2916 3584 3314 3078 
Q 3713 2572 3713 1747 
Q 3713 922 3314 415 
Q 2916 -91 2278 -91 
Q 1894 -91 1617 61 
Q 1341 213 1159 525 
L 1159 0 
L 581 0 
L 581 4863 
L 1159 4863 
L 1159 2969 
z
" transform="scale(0.015625)"/>
       <path id="DejaVuSans-57" d="M 213 4666 
L 850 4666 
L 1831 722 
L 2809 4666 
L 3519 4666 
L 4500 722 
L 5478 4666 
L 6119 4666 
L 4947 0 
L 4153 0 
L 3169 4050 
L 2175 0 
L 1381 0 
L 213 4666 
z
" transform="scale(0.015625)"/>
       <path id="DejaVuSans-64" d="M 2906 2969 
L 2906 4863 
L 3481 4863 
L 3481 0 
L 2906 0 
L 2906 525 
Q 2725 213 2448 61 
Q 2172 -91 1784 -91 
Q 1150 -91 751 415 
Q 353 922 353 1747 
Q 353 2572 751 3078 
Q 1150 3584 1784 3584 
Q 2172 3584 2448 3432 
Q 2725 3281 2906 2969 
z
M 947 1747 
Q 947 1113 1208 752 
Q 1469 391 1925 391 
Q 2381 391 2643 752 
Q 2906 1113 2906 1747 
Q 2906 2381 2643 2742 
Q 2381 3103 1925 3103 
Q 1469 3103 1208 2742 
Q 947 2381 947 1747 
z
" transform="scale(0.015625)"/>
       <path id="DejaVuSans-77" d="M 269 3500 
L 844 3500 
L 1563 769 
L 2278 3500 
L 2956 3500 
L 3675 769 
L 4391 3500 
L 4966 3500 
L 4050 0 
L 3372 0 
L 2619 2869 
L 1863 0 
L 1184 0 
L 269 3500 
z
" transform="scale(0.015625)"/>
      </defs>
      <use xlink:href="#DejaVuSans-44"/>
      <use xlink:href="#DejaVuSans-65" transform="translate(77.001953 0)"/>
      <use xlink:href="#DejaVuSans-70" transform="translate(138.525391 0)"/>
      <use xlink:href="#DejaVuSans-6c" transform="translate(202.001953 0)"/>
      <use xlink:href="#DejaVuSans-6f" transform="translate(229.785156 0)"/>
      <use xlink:href="#DejaVuSans-79" transform="translate(290.966797 0)"/>
      <use xlink:href="#DejaVuSans-61" transform="translate(350.146484 0)"/>
      <use xlink:href="#DejaVuSans-62" transform="translate(411.425781 0)"/>
      <use xlink:href="#DejaVuSans-6c" transform="translate(474.902344 0)"/>
      <use xlink:href="#DejaVuSans-65" transform="translate(502.685547 0)"/>
      <use xlink:href="#DejaVuSans-20" transform="translate(564.208984 0)"/>
      <use xlink:href="#DejaVuSans-57" transform="translate(595.996094 0)"/>
      <use xlink:href="#DejaVuSans-69" transform="translate(692.623047 0)"/>
      <use xlink:href="#DejaVuSans-6e" transform="translate(720.40625 0)"/>
      <use xlink:href="#DejaVuSans-64" transform="translate(783.785156 0)"/>
      <use xlink:href="#DejaVuSans-6f" transform="translate(847.261719 0)"/>
      <use xlink:href="#DejaVuSans-77" transform="translate(908.443359 0)"/>
     </g>
    </g>
   </g>
  </g>
  <g id="axes_4">
   <g id="matplotlib.axis_7">
    <g id="text_26">
     <!-- 30 -->
     <g transform="translate(852.47452 64.916138) scale(0.1 -0.1)">
      <use xlink:href="#DejaVuSans-33"/>
      <use xlink:href="#DejaVuSans-30" transform="translate(63.623047 0)"/>
     </g>
    </g>
   </g>
   <g id="patch_19">
    <path d="M 44.53923 107.435402 
L 44.53923 7.2 
" style="fill: none; stroke: #000000; stroke-width: 0.8; stroke-linejoin: miter; stroke-linecap: square"/>
   </g>
   <g id="patch_20">
    <path d="M 843.83702 107.435402 
L 843.83702 7.2 
" style="fill: none; stroke: #000000; stroke-width: 0.8; stroke-linejoin: miter; stroke-linecap: square"/>
   </g>
   <g id="patch_21">
    <path d="M 44.53923 107.435402 
L 843.83702 107.435402 
" style="fill: none; stroke: #000000; stroke-width: 0.8; stroke-linejoin: miter; stroke-linecap: square"/>
   </g>
   <g id="patch_22">
    <path d="M 44.53923 7.2 
L 843.83702 7.2 
" style="fill: none; stroke: #000000; stroke-width: 0.8; stroke-linejoin: miter; stroke-linecap: square"/>
   </g>
  </g>
  <g id="axes_5">
   <g id="matplotlib.axis_8">
    <g id="text_27">
     <!-- 45 -->
     <g transform="translate(852.47452 174.65202) scale(0.1 -0.1)">
      <use xlink:href="#DejaVuSans-34"/>
      <use xlink:href="#DejaVuSans-35" transform="translate(63.623047 0)"/>
     </g>
    </g>
   </g>
   <g id="patch_23">
    <path d="M 44.53923 217.171283 
L 44.53923 116.935882 
" style="fill: none; stroke: #000000; stroke-width: 0.8; stroke-linejoin: miter; stroke-linecap: square"/>
   </g>
   <g id="patch_24">
    <path d="M 843.83702 217.171283 
L 843.83702 116.935882 
" style="fill: none; stroke: #000000; stroke-width: 0.8; stroke-linejoin: miter; stroke-linecap: square"/>
   </g>
   <g id="patch_25">
    <path d="M 44.53923 217.171283 
L 843.83702 217.171283 
" style="fill: none; stroke: #000000; stroke-width: 0.8; stroke-linejoin: miter; stroke-linecap: square"/>
   </g>
   <g id="patch_26">
    <path d="M 44.53923 116.935882 
L 843.83702 116.935882 
" style="fill: none; stroke: #000000; stroke-width: 0.8; stroke-linejoin: miter; stroke-linecap: square"/>
   </g>
  </g>
  <g id="axes_6">
   <g id="matplotlib.axis_9">
    <g id="text_28">
     <!-- 60 -->
     <g transform="translate(852.47452 284.387902) scale(0.1 -0.1)">
      <use xlink:href="#DejaVuSans-36"/>
      <use xlink:href="#DejaVuSans-30" transform="translate(63.623047 0)"/>
     </g>
    </g>
   </g>
   <g id="patch_27">
    <path d="M 44.53923 326.907165 
L 44.53923 226.671763 
" style="fill: none; stroke: #000000; stroke-width: 0.8; stroke-linejoin: miter; stroke-linecap: square"/>
   </g>
   <g id="patch_28">
    <path d="M 843.83702 326.907165 
L 843.83702 226.671763 
" style="fill: none; stroke: #000000; stroke-width: 0.8; stroke-linejoin: miter; stroke-linecap: square"/>
   </g>
   <g id="patch_29">
    <path d="M 44.53923 326.907165 
L 843.83702 326.907165 
" style="fill: none; stroke: #000000; stroke-width: 0.8; stroke-linejoin: miter; stroke-linecap: square"/>
   </g>
   <g id="patch_30">
    <path d="M 44.53923 226.671763 
L 843.83702 226.671763 
" style="fill: none; stroke: #000000; stroke-width: 0.8; stroke-linejoin: miter; stroke-linecap: square"/>
   </g>
  </g>
  <g id="text_29">
   <!-- Latitude [deg] -->
   <g transform="translate(877.881322 148.705229) rotate(-270) scale(0.1 -0.1)">
    <defs>
     <path id="DejaVuSans-4c" d="M 628 4666 
L 1259 4666 
L 1259 531 
L 3531 531 
L 3531 0 
L 628 0 
L 628 4666 
z
" transform="scale(0.015625)"/>
     <path id="DejaVuSans-5b" d="M 550 4863 
L 1875 4863 
L 1875 4416 
L 1125 4416 
L 1125 -397 
L 1875 -397 
L 1875 -844 
L 550 -844 
L 550 4863 
z
" transform="scale(0.015625)"/>
     <path id="DejaVuSans-67" d="M 2906 1791 
Q 2906 2416 2648 2759 
Q 2391 3103 1925 3103 
Q 1463 3103 1205 2759 
Q 947 2416 947 1791 
Q 947 1169 1205 825 
Q 1463 481 1925 481 
Q 2391 481 2648 825 
Q 2906 1169 2906 1791 
z
M 3481 434 
Q 3481 -459 3084 -895 
Q 2688 -1331 1869 -1331 
Q 1566 -1331 1297 -1286 
Q 1028 -1241 775 -1147 
L 775 -588 
Q 1028 -725 1275 -790 
Q 1522 -856 1778 -856 
Q 2344 -856 2625 -561 
Q 2906 -266 2906 331 
L 2906 616 
Q 2728 306 2450 153 
Q 2172 0 1784 0 
Q 1141 0 747 490 
Q 353 981 353 1791 
Q 353 2603 747 3093 
Q 1141 3584 1784 3584 
Q 2172 3584 2450 3431 
Q 2728 3278 2906 2969 
L 2906 3500 
L 3481 3500 
L 3481 434 
z
" transform="scale(0.015625)"/>
     <path id="DejaVuSans-5d" d="M 1947 4863 
L 1947 -844 
L 622 -844 
L 622 -397 
L 1369 -397 
L 1369 4416 
L 622 4416 
L 622 4863 
L 1947 4863 
z
" transform="scale(0.015625)"/>
    </defs>
    <use xlink:href="#DejaVuSans-4c"/>
    <use xlink:href="#DejaVuSans-61" transform="translate(55.712891 0)"/>
    <use xlink:href="#DejaVuSans-74" transform="translate(116.992188 0)"/>
    <use xlink:href="#DejaVuSans-69" transform="translate(156.201172 0)"/>
    <use xlink:href="#DejaVuSans-74" transform="translate(183.984375 0)"/>
    <use xlink:href="#DejaVuSans-75" transform="translate(223.193359 0)"/>
    <use xlink:href="#DejaVuSans-64" transform="translate(286.572266 0)"/>
    <use xlink:href="#DejaVuSans-65" transform="translate(350.048828 0)"/>
    <use xlink:href="#DejaVuSans-20" transform="translate(411.572266 0)"/>
    <use xlink:href="#DejaVuSans-5b" transform="translate(443.359375 0)"/>
    <use xlink:href="#DejaVuSans-64" transform="translate(482.373047 0)"/>
    <use xlink:href="#DejaVuSans-65" transform="translate(545.849609 0)"/>
    <use xlink:href="#DejaVuSans-67" transform="translate(607.373047 0)"/>
    <use xlink:href="#DejaVuSans-5d" transform="translate(670.849609 0)"/>
   </g>
  </g>
  <g id="text_30">
   <!-- Hour of day -->
   <g transform="translate(16.318125 219.286635) rotate(-90) scale(0.12 -0.12)">
    <defs>
     <path id="DejaVuSans-48" d="M 628 4666 
L 1259 4666 
L 1259 2753 
L 3553 2753 
L 3553 4666 
L 4184 4666 
L 4184 0 
L 3553 0 
L 3553 2222 
L 1259 2222 
L 1259 0 
L 628 0 
L 628 4666 
z
" transform="scale(0.015625)"/>
     <path id="DejaVuSans-66" d="M 2375 4863 
L 2375 4384 
L 1825 4384 
Q 1516 4384 1395 4259 
Q 1275 4134 1275 3809 
L 1275 3500 
L 2222 3500 
L 2222 3053 
L 1275 3053 
L 1275 0 
L 697 0 
L 697 3053 
L 147 3053 
L 147 3500 
L 697 3500 
L 697 3744 
Q 697 4328 969 4595 
Q 1241 4863 1831 4863 
L 2375 4863 
z
" transform="scale(0.015625)"/>
    </defs>
    <use xlink:href="#DejaVuSans-48"/>
    <use xlink:href="#DejaVuSans-6f" transform="translate(75.195312 0)"/>
    <use xlink:href="#DejaVuSans-75" transform="translate(136.376953 0)"/>
    <use xlink:href="#DejaVuSans-72" transform="translate(199.755859 0)"/>
    <use xlink:href="#DejaVuSans-20" transform="translate(240.869141 0)"/>
    <use xlink:href="#DejaVuSans-6f" transform="translate(272.65625 0)"/>
    <use xlink:href="#DejaVuSans-66" transform="translate(333.837891 0)"/>
    <use xlink:href="#DejaVuSans-20" transform="translate(369.042969 0)"/>
    <use xlink:href="#DejaVuSans-64" transform="translate(400.830078 0)"/>
    <use xlink:href="#DejaVuSans-61" transform="translate(464.306641 0)"/>
    <use xlink:href="#DejaVuSans-79" transform="translate(525.585938 0)"/>
   </g>
  </g>
  <g id="text_31">
   <!-- Day -->
   <g transform="translate(424.351635 358.703895) scale(0.12 -0.12)">
    <use xlink:href="#DejaVuSans-44"/>
    <use xlink:href="#DejaVuSans-61" transform="translate(77.001953 0)"/>
    <use xlink:href="#DejaVuSans-79" transform="translate(138.28125 0)"/>
   </g>
  </g>
 </g>
 <defs>
  <clipPath id="pf7a7cd1ca6">
   <rect x="44.53923" y="7.2" width="799.29779" height="100.235402"/>
  </clipPath>
  <clipPath id="pf82f05fb82">
   <rect x="44.53923" y="116.935882" width="799.29779" height="100.235402"/>
  </clipPath>
  <clipPath id="p3f0f0346f4">
   <rect x="44.53923" y="226.671763" width="799.29779" height="100.235402"/>
  </clipPath>
 </defs>
</svg>
