<?xml version="1.0" encoding="utf-8" standalone="no"?>
<!DOCTYPE svg PUBLIC "-//W3C//DTD SVG 1.1//EN"
  "http://www.w3.org/Graphics/SVG/1.1/DTD/svg11.dtd">
<svg xmlns:xlink="http://www.w3.org/1999/xlink" width="892.67976pt" height="368.39952pt" viewBox="0 0 892.67976 368.39952" xmlns="http://www.w3.org/2000/svg" version="1.1">
 <metadata>
  <rdf:RDF xmlns:dc="http://purl.org/dc/elements/1.1/" xmlns:cc="http://creativecommons.org/ns#" xmlns:rdf="http://www.w3.org/1999/02/22-rdf-syntax-ns#">
   <cc:Work>
    <dc:type rdf:resource="http://purl.org/dc/dcmitype/StillImage"/>
    <dc:date>2026-05-22T11:36:10.265881</dc:date>
    <dc:format>image/svg+xml</dc:format>
    <dc:creator>
     <cc:Agent>
      <dc:title>Matplotlib v3.10.8, https://matplotlib.org/</dc:title>
     </cc:Agent>
    </dc:creator>
   </cc:Work>
  </rdf:RDF>
 </metadata>
 <defs>
  <style type="text/css">*{stroke-linejoin: round; stroke-linecap: butt}</style>
 </defs>
 <g id="figure_1">
  <g id="patch_1">
   <path d="M 0 368.39952 
L 892.67976 368.39952 
L 892.67976 0 
L 0 0 
z
" style="fill: #ffffff"/>
  </g>
  <g id="axes_1">
   <g id="patch_2">
    <path d="M 44.53923 107.435402 
L 842.462801 107.435402 
L 842.462801 7.2 
L 44.53923 7.2 
z
" style="fill: #ffffff"/>
   </g>
   <g id="FillBetweenPolyCollection_1">
    <defs>
     <path id="m758d4dc430" d="M 80.808483 -305.614434 
L 80.808483 -265.520273 
L 109.823886 -265.520273 
L 109.823886 -305.614434 
L 109.823886 -305.614434 
L 80.808483 -305.614434 
z
" style="stroke: #008000; stroke-opacity: 0.4"/>
    </defs>
    <g clip-path="url(#p912010d39a)">
     <use xlink:href="#m758d4dc430" x="0" y="368.39952" style="fill: #008000; fill-opacity: 0.4; stroke: #008000; stroke-opacity: 0.4"/>
    </g>
   </g>
   <g id="FillBetweenPolyCollection_2">
    <defs>
     <path id="m8ef6f38a57" d="M 80.808483 -356.643365 
L 80.808483 -331.1289 
L 109.823886 -331.1289 
L 109.823886 -356.643365 
L 109.823886 -356.643365 
L 80.808483 -356.643365 
z
" style="stroke: #008000; stroke-opacity: 0.4"/>
    </defs>
    <g clip-path="url(#p912010d39a)">
     <use xlink:href="#m8ef6f38a57" x="0" y="368.39952" style="fill: #008000; fill-opacity: 0.4; stroke: #008000; stroke-opacity: 0.4"/>
    </g>
   </g>
   <g id="FillBetweenPolyCollection_3">
    <defs>
     <path id="m403aff9260" d="M 109.823886 -356.643365 
L 109.823886 -265.520273 
L 138.839288 -265.520273 
L 138.839288 -356.643365 
L 138.839288 -356.643365 
L 109.823886 -356.643365 
z
" style="stroke: #008000; stroke-opacity: 0.4"/>
    </defs>
    <g clip-path="url(#p912010d39a)">
     <use xlink:href="#m403aff9260" x="0" y="368.39952" style="fill: #008000; fill-opacity: 0.4; stroke: #008000; stroke-opacity: 0.4"/>
    </g>
   </g>
   <g id="FillBetweenPolyCollection_4">
    <defs>
     <path id="m808dac2771" d="M 138.839288 -356.643365 
L 138.839288 -265.520273 
L 167.854691 -265.520273 
L 167.854691 -356.643365 
L 167.854691 -356.643365 
L 138.839288 -356.643365 
z
" style="stroke: #008000; stroke-opacity: 0.4"/>
    </defs>
    <g clip-path="url(#p912010d39a)">
     <use xlink:href="#m808dac2771" x="0" y="368.39952" style="fill: #008000; fill-opacity: 0.4; stroke: #008000; stroke-opacity: 0.4"/>
    </g>
   </g>
   <g id="FillBetweenPolyCollection_5">
    <defs>
     <path id="mc82d7d229f" d="M 167.854691 -356.643365 
L 167.854691 -265.520273 
L 196.870094 -265.520273 
L 196.870094 -356.643365 
L 196.870094 -356.643365 
L 167.854691 -356.643365 
z
" style="stroke: #008000; stroke-opacity: 0.4"/>
    </defs>
    <g clip-path="url(#p912010d39a)">
     <use xlink:href="#mc82d7d229f" x="0" y="368.39952" style="fill: #008000; fill-opacity: 0.4; stroke: #008000; stroke-opacity: 0.4"/>
    </g>
   </g>
   <g id="FillBetweenPolyCollection_6">
    <defs>
     <path id="m8e6a090000" d="M 196.870094 -356.643365 
L 196.870094 -265.520273 
L 225.885496 -265.520273 
L 225.885496 -356.643365 
L 225.885496 -356.643365 
L 196.870094 -356.643365 
z
" style="stroke: #008000; stroke-opacity: 0.4"/>
    </defs>
    <g clip-path="url(#p912010d39a)">
     <use xlink:href="#m8e6a090000" x="0" y="368.39952" style="fill: #008000; fill-opacity: 0.4; stroke: #008000; stroke-opacity: 0.4"/>
    </g>
   </g>
   <g id="FillBetweenPolyCollection_7">
    <defs>
     <path id="mb2dfce6923" d="M 225.885496 -356.643365 
L 225.885496 -265.520273 
L 254.900899 -265.520273 
L 254.900899 -356.643365 
L 254.900899 -356.643365 
L 225.885496 -356.643365 
z
" style="stroke: #008000; stroke-opacity: 0.4"/>
    </defs>
    <g clip-path="url(#p912010d39a)">
     <use xlink:href="#mb2dfce6923" x="0" y="368.39952" style="fill: #008000; fill-opacity: 0.4; stroke: #008000; stroke-opacity: 0.4"/>
    </g>
   </g>
   <g id="FillBetweenPolyCollection_8">
    <defs>
     <path id="m52007b4860" d="M 254.900899 -356.643365 
L 254.900899 -265.520273 
L 283.916301 -265.520273 
L 283.916301 -356.643365 
L 283.916301 -356.643365 
L 254.900899 -356.643365 
z
" style="stroke: #008000; stroke-opacity: 0.4"/>
    </defs>
    <g clip-path="url(#p912010d39a)">
     <use xlink:href="#m52007b4860" x="0" y="368.39952" style="fill: #008000; fill-opacity: 0.4; stroke: #008000; stroke-opacity: 0.4"/>
    </g>
   </g>
   <g id="FillBetweenPolyCollection_9">
    <defs>
     <path id="m4fc1465ab1" d="M 283.916301 -356.643365 
L 283.916301 -265.520273 
L 312.931704 -265.520273 
L 312.931704 -356.643365 
L 312.931704 -356.643365 
L 283.916301 -356.643365 
z
" style="stroke: #008000; stroke-opacity: 0.4"/>
    </defs>
    <g clip-path="url(#p912010d39a)">
     <use xlink:href="#m4fc1465ab1" x="0" y="368.39952" style="fill: #008000; fill-opacity: 0.4; stroke: #008000; stroke-opacity: 0.4"/>
    </g>
   </g>
   <g id="FillBetweenPolyCollection_10">
    <defs>
     <path id="m80550fd245" d="M 312.931704 -356.643365 
L 312.931704 -265.520273 
L 341.947107 -265.520273 
L 341.947107 -356.643365 
L 341.947107 -356.643365 
L 312.931704 -356.643365 
z
" style="stroke: #008000; stroke-opacity: 0.4"/>
    </defs>
    <g clip-path="url(#p912010d39a)">
     <use xlink:href="#m80550fd245" x="0" y="368.39952" style="fill: #008000; fill-opacity: 0.4; stroke: #008000; stroke-opacity: 0.4"/>
    </g>
   </g>
   <g id="FillBetweenPolyCollection_11">
    <defs>
     <path id="m6f4207f0e5" d="M 341.947107 -356.643365 
L 341.947107 -265.520273 
L 370.962509 -265.520273 
L 370.962509 -356.643365 
L 370.962509 -356.643365 
L 341.947107 -356.643365 
z
" style="stroke: #008000; stroke-opacity: 0.4"/>
    </defs>
    <g clip-path="url(#p912010d39a)">
     <use xlink:href="#m6f4207f0e5" x="0" y="368.39952" style="fill: #008000; fill-opacity: 0.4; stroke: #008000; stroke-opacity: 0.4"/>
    </g>
   </g>
   <g id="FillBetweenPolyCollection_12">
    <defs>
     <path id="m395e0f66f2" d="M 370.962509 -356.643365 
L 370.962509 -265.520273 
L 399.977912 -265.520273 
L 399.977912 -356.643365 
L 399.977912 -356.643365 
L 370.962509 -356.643365 
z
" style="stroke: #008000; stroke-opacity: 0.4"/>
    </defs>
    <g clip-path="url(#p912010d39a)">
     <use xlink:href="#m395e0f66f2" x="0" y="368.39952" style="fill: #008000; fill-opacity: 0.4; stroke: #008000; stroke-opacity: 0.4"/>
    </g>
   </g>
   <g id="FillBetweenPolyCollection_13">
    <defs>
     <path id="ma6683868f1" d="M 399.977912 -356.643365 
L 399.977912 -265.520273 
L 428.993314 -265.520273 
L 428.993314 -356.643365 
L 428.993314 -356.643365 
L 399.977912 -356.643365 
z
" style="stroke: #008000; stroke-opacity: 0.4"/>
    </defs>
    <g clip-path="url(#p912010d39a)">
     <use xlink:href="#ma6683868f1" x="0" y="368.39952" style="fill: #008000; fill-opacity: 0.4; stroke: #008000; stroke-opacity: 0.4"/>
    </g>
   </g>
   <g id="FillBetweenPolyCollection_14">
    <defs>
     <path id="mf34d94813a" d="M 428.993314 -356.643365 
L 428.993314 -265.520273 
L 458.008717 -265.520273 
L 458.008717 -356.643365 
L 458.008717 -356.643365 
L 428.993314 -356.643365 
z
" style="stroke: #008000; stroke-opacity: 0.4"/>
    </defs>
    <g clip-path="url(#p912010d39a)">
     <use xlink:href="#mf34d94813a" x="0" y="368.39952" style="fill: #008000; fill-opacity: 0.4; stroke: #008000; stroke-opacity: 0.4"/>
    </g>
   </g>
   <g id="FillBetweenPolyCollection_15">
    <defs>
     <path id="m8b20d8e9d2" d="M 458.008717 -356.643365 
L 458.008717 -265.520273 
L 487.02412 -265.520273 
L 487.02412 -356.643365 
L 487.02412 -356.643365 
L 458.008717 -356.643365 
z
" style="stroke: #008000; stroke-opacity: 0.4"/>
    </defs>
    <g clip-path="url(#p912010d39a)">
     <use xlink:href="#m8b20d8e9d2" x="0" y="368.39952" style="fill: #008000; fill-opacity: 0.4; stroke: #008000; stroke-opacity: 0.4"/>
    </g>
   </g>
   <g id="FillBetweenPolyCollection_16">
    <defs>
     <path id="mf739e85d99" d="M 487.02412 -356.643365 
L 487.02412 -265.520273 
L 516.039522 -265.520273 
L 516.039522 -356.643365 
L 516.039522 -356.643365 
L 487.02412 -356.643365 
z
" style="stroke: #008000; stroke-opacity: 0.4"/>
    </defs>
    <g clip-path="url(#p912010d39a)">
     <use xlink:href="#mf739e85d99" x="0" y="368.39952" style="fill: #008000; fill-opacity: 0.4; stroke: #008000; stroke-opacity: 0.4"/>
    </g>
   </g>
   <g id="FillBetweenPolyCollection_17">
    <defs>
     <path id="mab88bdc23b" d="M 516.039522 -356.643365 
L 516.039522 -265.520273 
L 545.054925 -265.520273 
L 545.054925 -356.643365 
L 545.054925 -356.643365 
L 516.039522 -356.643365 
z
" style="stroke: #008000; stroke-opacity: 0.4"/>
    </defs>
    <g clip-path="url(#p912010d39a)">
     <use xlink:href="#mab88bdc23b" x="0" y="368.39952" style="fill: #008000; fill-opacity: 0.4; stroke: #008000; stroke-opacity: 0.4"/>
    </g>
   </g>
   <g id="FillBetweenPolyCollection_18">
    <defs>
     <path id="m646011ee93" d="M 545.054925 -356.643365 
L 545.054925 -265.520273 
L 574.070327 -265.520273 
L 574.070327 -356.643365 
L 574.070327 -356.643365 
L 545.054925 -356.643365 
z
" style="stroke: #008000; stroke-opacity: 0.4"/>
    </defs>
    <g clip-path="url(#p912010d39a)">
     <use xlink:href="#m646011ee93" x="0" y="368.39952" style="fill: #008000; fill-opacity: 0.4; stroke: #008000; stroke-opacity: 0.4"/>
    </g>
   </g>
   <g id="FillBetweenPolyCollection_19">
    <defs>
     <path id="m9f0366e894" d="M 574.070327 -356.643365 
L 574.070327 -265.520273 
L 603.08573 -265.520273 
L 603.08573 -356.643365 
L 603.08573 -356.643365 
L 574.070327 -356.643365 
z
" style="stroke: #008000; stroke-opacity: 0.4"/>
    </defs>
    <g clip-path="url(#p912010d39a)">
     <use xlink:href="#m9f0366e894" x="0" y="368.39952" style="fill: #008000; fill-opacity: 0.4; stroke: #008000; stroke-opacity: 0.4"/>
    </g>
   </g>
   <g id="FillBetweenPolyCollection_20">
    <defs>
     <path id="mfeb23b498f" d="M 603.08573 -356.643365 
L 603.08573 -265.520273 
L 632.101132 -265.520273 
L 632.101132 -356.643365 
L 632.101132 -356.643365 
L 603.08573 -356.643365 
z
" style="stroke: #008000; stroke-opacity: 0.4"/>
    </defs>
    <g clip-path="url(#p912010d39a)">
     <use xlink:href="#mfeb23b498f" x="0" y="368.39952" style="fill: #008000; fill-opacity: 0.4; stroke: #008000; stroke-opacity: 0.4"/>
    </g>
   </g>
   <g id="FillBetweenPolyCollection_21">
    <defs>
     <path id="m891cc1bb3b" d="M 632.101132 -356.643365 
L 632.101132 -265.520273 
L 661.116535 -265.520273 
L 661.116535 -356.643365 
L 661.116535 -356.643365 
L 632.101132 -356.643365 
z
" style="stroke: #008000; stroke-opacity: 0.4"/>
    </defs>
    <g clip-path="url(#p912010d39a)">
     <use xlink:href="#m891cc1bb3b" x="0" y="368.39952" style="fill: #008000; fill-opacity: 0.4; stroke: #008000; stroke-opacity: 0.4"/>
    </g>
   </g>
   <g id="FillBetweenPolyCollection_22">
    <defs>
     <path id="mf6addbcf75" d="M 661.116535 -356.643365 
L 661.116535 -265.520273 
L 690.131938 -265.520273 
L 690.131938 -356.643365 
L 690.131938 -356.643365 
L 661.116535 -356.643365 
z
" style="stroke: #008000; stroke-opacity: 0.4"/>
    </defs>
    <g clip-path="url(#p912010d39a)">
     <use xlink:href="#mf6addbcf75" x="0" y="368.39952" style="fill: #008000; fill-opacity: 0.4; stroke: #008000; stroke-opacity: 0.4"/>
    </g>
   </g>
   <g id="FillBetweenPolyCollection_23">
    <defs>
     <path id="m47860eb796" d="M 690.131938 -356.643365 
L 690.131938 -265.520273 
L 719.14734 -265.520273 
L 719.14734 -356.643365 
L 719.14734 -356.643365 
L 690.131938 -356.643365 
z
" style="stroke: #008000; stroke-opacity: 0.4"/>
    </defs>
    <g clip-path="url(#p912010d39a)">
     <use xlink:href="#m47860eb796" x="0" y="368.39952" style="fill: #008000; fill-opacity: 0.4; stroke: #008000; stroke-opacity: 0.4"/>
    </g>
   </g>
   <g id="FillBetweenPolyCollection_24">
    <defs>
     <path id="m07460a2db9" d="M 719.14734 -356.643365 
L 719.14734 -265.520273 
L 748.162743 -265.520273 
L 748.162743 -356.643365 
L 748.162743 -356.643365 
L 719.14734 -356.643365 
z
" style="stroke: #008000; stroke-opacity: 0.4"/>
    </defs>
    <g clip-path="url(#p912010d39a)">
     <use xlink:href="#m07460a2db9" x="0" y="368.39952" style="fill: #008000; fill-opacity: 0.4; stroke: #008000; stroke-opacity: 0.4"/>
    </g>
   </g>
   <g id="FillBetweenPolyCollection_25">
    <defs>
     <path id="mf7a21993c3" d="M 748.162743 -301.96951 
L 748.162743 -265.520273 
L 777.178145 -265.520273 
L 777.178145 -301.96951 
L 777.178145 -301.96951 
L 748.162743 -301.96951 
z
" style="stroke: #008000; stroke-opacity: 0.4"/>
    </defs>
    <g clip-path="url(#p912010d39a)">
     <use xlink:href="#mf7a21993c3" x="0" y="368.39952" style="fill: #008000; fill-opacity: 0.4; stroke: #008000; stroke-opacity: 0.4"/>
    </g>
   </g>
   <g id="FillBetweenPolyCollection_26">
    <defs>
     <path id="m71a7baf232" d="M 748.162743 -356.643365 
L 748.162743 -331.1289 
L 777.178145 -331.1289 
L 777.178145 -356.643365 
L 777.178145 -356.643365 
L 748.162743 -356.643365 
z
" style="stroke: #008000; stroke-opacity: 0.4"/>
    </defs>
    <g clip-path="url(#p912010d39a)">
     <use xlink:href="#m71a7baf232" x="0" y="368.39952" style="fill: #008000; fill-opacity: 0.4; stroke: #008000; stroke-opacity: 0.4"/>
    </g>
   </g>
   <g id="FillBetweenPolyCollection_27">
    <defs>
     <path id="mb9d2f91dea" d="M 777.178145 -298.324586 
L 777.178145 -265.520273 
L 806.193548 -265.520273 
L 806.193548 -298.324586 
L 806.193548 -298.324586 
L 777.178145 -298.324586 
z
" style="stroke: #008000; stroke-opacity: 0.4"/>
    </defs>
    <g clip-path="url(#p912010d39a)">
     <use xlink:href="#mb9d2f91dea" x="0" y="368.39952" style="fill: #008000; fill-opacity: 0.4; stroke: #008000; stroke-opacity: 0.4"/>
    </g>
   </g>
   <g id="FillBetweenPolyCollection_28">
    <defs>
     <path id="m92aba6c43b" d="M 777.178145 -356.643365 
L 777.178145 -331.1289 
L 806.193548 -331.1289 
L 806.193548 -356.643365 
L 806.193548 -356.643365 
L 777.178145 -356.643365 
z
" style="stroke: #008000; stroke-opacity: 0.4"/>
    </defs>
    <g clip-path="url(#p912010d39a)">
     <use xlink:href="#m92aba6c43b" x="0" y="368.39952" style="fill: #008000; fill-opacity: 0.4; stroke: #008000; stroke-opacity: 0.4"/>
    </g>
   </g>
   <g id="matplotlib.axis_1">
    <g id="xtick_1">
     <g id="line2d_1">
      <defs>
       <path id="m8721808f30" d="M 0 0 
L 0 3.5 
" style="stroke: #000000; stroke-width: 0.8"/>
      </defs>
      <g>
       <use xlink:href="#m8721808f30" x="95.316185" y="107.435402" style="stroke: #000000; stroke-width: 0.8"/>
      </g>
     </g>
    </g>
    <g id="xtick_2">
     <g id="line2d_2">
      <g>
       <use xlink:href="#m8721808f30" x="153.34699" y="107.435402" style="stroke: #000000; stroke-width: 0.8"/>
      </g>
     </g>
    </g>
    <g id="xtick_3">
     <g id="line2d_3">
      <g>
       <use xlink:href="#m8721808f30" x="211.377795" y="107.435402" style="stroke: #000000; stroke-width: 0.8"/>
      </g>
     </g>
    </g>
    <g id="xtick_4">
     <g id="line2d_4">
      <g>
       <use xlink:href="#m8721808f30" x="269.4086" y="107.435402" style="stroke: #000000; stroke-width: 0.8"/>
      </g>
     </g>
    </g>
    <g id="xtick_5">
     <g id="line2d_5">
      <g>
       <use xlink:href="#m8721808f30" x="327.439405" y="107.435402" style="stroke: #000000; stroke-width: 0.8"/>
      </g>
     </g>
    </g>
    <g id="xtick_6">
     <g id="line2d_6">
      <g>
       <use xlink:href="#m8721808f30" x="385.47021" y="107.435402" style="stroke: #000000; stroke-width: 0.8"/>
      </g>
     </g>
    </g>
    <g id="xtick_7">
     <g id="line2d_7">
      <g>
       <use xlink:href="#m8721808f30" x="443.501016" y="107.435402" style="stroke: #000000; stroke-width: 0.8"/>
      </g>
     </g>
    </g>
    <g id="xtick_8">
     <g id="line2d_8">
      <g>
       <use xlink:href="#m8721808f30" x="501.531821" y="107.435402" style="stroke: #000000; stroke-width: 0.8"/>
      </g>
     </g>
    </g>
    <g id="xtick_9">
     <g id="line2d_9">
      <g>
       <use xlink:href="#m8721808f30" x="559.562626" y="107.435402" style="stroke: #000000; stroke-width: 0.8"/>
      </g>
     </g>
    </g>
    <g id="xtick_10">
     <g id="line2d_10">
      <g>
       <use xlink:href="#m8721808f30" x="617.593431" y="107.435402" style="stroke: #000000; stroke-width: 0.8"/>
      </g>
     </g>
    </g>
    <g id="xtick_11">
     <g id="line2d_11">
      <g>
       <use xlink:href="#m8721808f30" x="675.624236" y="107.435402" style="stroke: #000000; stroke-width: 0.8"/>
      </g>
     </g>
    </g>
    <g id="xtick_12">
     <g id="line2d_12">
      <g>
       <use xlink:href="#m8721808f30" x="733.655042" y="107.435402" style="stroke: #000000; stroke-width: 0.8"/>
      </g>
     </g>
    </g>
    <g id="xtick_13">
     <g id="line2d_13">
      <g>
       <use xlink:href="#m8721808f30" x="791.685847" y="107.435402" style="stroke: #000000; stroke-width: 0.8"/>
      </g>
     </g>
    </g>
   </g>
   <g id="matplotlib.axis_2">
    <g id="ytick_1">
     <g id="line2d_14">
      <defs>
       <path id="m0e49439ad0" d="M 0 0 
L -3.5 0 
" style="stroke: #000000; stroke-width: 0.8"/>
      </defs>
      <g>
       <use xlink:href="#m0e49439ad0" x="44.53923" y="101.056785" style="stroke: #000000; stroke-width: 0.8"/>
      </g>
     </g>
     <g id="text_1">
      <!-- 0 -->
      <g transform="translate(31.17673 104.856004) scale(0.1 -0.1)">
       <defs>
        <path id="DejaVuSans-30" d="M 2034 4250 
Q 1547 4250 1301 3770 
Q 1056 3291 1056 2328 
Q 1056 1369 1301 889 
Q 1547 409 2034 409 
Q 2525 409 2770 889 
Q 3016 1369 3016 2328 
Q 3016 3291 2770 3770 
Q 2525 4250 2034 4250 
z
M 2034 4750 
Q 2819 4750 3233 4129 
Q 3647 3509 3647 2328 
Q 3647 1150 3233 529 
Q 2819 -91 2034 -91 
Q 1250 -91 836 529 
Q 422 1150 422 2328 
Q 422 3509 836 4129 
Q 1250 4750 2034 4750 
z
" transform="scale(0.015625)"/>
       </defs>
       <use xlink:href="#DejaVuSans-30"/>
      </g>
     </g>
    </g>
    <g id="ytick_2">
     <g id="line2d_15">
      <g>
       <use xlink:href="#m0e49439ad0" x="44.53923" y="64.607548" style="stroke: #000000; stroke-width: 0.8"/>
      </g>
     </g>
     <g id="text_2">
      <!-- 10 -->
      <g transform="translate(24.81423 68.406767) scale(0.1 -0.1)">
       <defs>
        <path id="DejaVuSans-31" d="M 794 531 
L 1825 531 
L 1825 4091 
L 703 3866 
L 703 4441 
L 1819 4666 
L 2450 4666 
L 2450 531 
L 3481 531 
L 3481 0 
L 794 0 
L 794 531 
z
" transform="scale(0.015625)"/>
       </defs>
       <use xlink:href="#DejaVuSans-31"/>
       <use xlink:href="#DejaVuSans-30" transform="translate(63.623047 0)"/>
      </g>
     </g>
    </g>
    <g id="ytick_3">
     <g id="line2d_16">
      <g>
       <use xlink:href="#m0e49439ad0" x="44.53923" y="28.158311" style="stroke: #000000; stroke-width: 0.8"/>
      </g>
     </g>
     <g id="text_3">
      <!-- 20 -->
      <g transform="translate(24.81423 31.95753) scale(0.1 -0.1)">
       <defs>
        <path id="DejaVuSans-32" d="M 1228 531 
L 3431 531 
L 3431 0 
L 469 0 
L 469 531 
Q 828 903 1448 1529 
Q 2069 2156 2228 2338 
Q 2531 2678 2651 2914 
Q 2772 3150 2772 3378 
Q 2772 3750 2511 3984 
Q 2250 4219 1831 4219 
Q 1534 4219 1204 4116 
Q 875 4013 500 3803 
L 500 4441 
Q 881 4594 1212 4672 
Q 1544 4750 1819 4750 
Q 2544 4750 2975 4387 
Q 3406 4025 3406 3419 
Q 3406 3131 3298 2873 
Q 3191 2616 2906 2266 
Q 2828 2175 2409 1742 
Q 1991 1309 1228 531 
z
" transform="scale(0.015625)"/>
       </defs>
       <use xlink:href="#DejaVuSans-32"/>
       <use xlink:href="#DejaVuSans-30" transform="translate(63.623047 0)"/>
      </g>
     </g>
    </g>
   </g>
   <g id="line2d_17">
    <path d="M 95.316185 75.740499 
L 124.331587 76.062019 
L 153.34699 76.595925 
L 182.362392 77.283963 
L 211.377795 78.069199 
L 240.393197 78.904464 
L 269.4086 79.751514 
L 298.424003 80.574696 
L 327.439405 81.333316 
L 356.454808 81.976642 
L 385.47021 82.445851 
L 414.485613 82.685802 
L 443.501016 82.663533 
L 472.516418 82.382252 
L 501.531821 81.879881 
L 530.547223 81.213381 
L 559.562626 80.440774 
L 588.578029 79.61101 
L 617.593431 78.763476 
L 646.608834 77.933712 
L 675.624236 77.161105 
L 704.639639 76.494605 
L 733.655042 75.992234 
L 762.670444 75.710953 
L 791.685847 75.688684 
" clip-path="url(#p912010d39a)" style="fill: none; stroke-dasharray: 5.55,2.4; stroke-dashoffset: 0; stroke: #000000; stroke-width: 1.5"/>
   </g>
   <g id="line2d_18">
    <path d="M 95.316185 38.894903 
L 124.331587 38.573383 
L 153.34699 38.039477 
L 182.362392 37.351439 
L 211.377795 36.566203 
L 240.393197 35.730937 
L 269.4086 34.883888 
L 298.424003 34.060705 
L 327.439405 33.302086 
L 356.454808 32.658759 
L 385.47021 32.189551 
L 414.485613 31.9496 
L 443.501016 31.971868 
L 472.516418 32.25315 
L 501.531821 32.755521 
L 530.547223 33.42202 
L 559.562626 34.194628 
L 588.578029 35.024392 
L 617.593431 35.871926 
L 646.608834 36.70169 
L 675.624236 37.474297 
L 704.639639 38.140797 
L 733.655042 38.643167 
L 762.670444 38.924449 
L 791.685847 38.946718 
" clip-path="url(#p912010d39a)" style="fill: none; stroke-dasharray: 9.6,2.4,1.5,2.4; stroke-dashoffset: 0; stroke: #000000; stroke-width: 1.5"/>
   </g>
   <g id="patch_3">
    <path d="M 44.53923 107.435402 
L 44.53923 7.2 
" style="fill: none; stroke: #000000; stroke-width: 0.8; stroke-linejoin: miter; stroke-linecap: square"/>
   </g>
   <g id="patch_4">
    <path d="M 842.462801 107.435402 
L 842.462801 7.2 
" style="fill: none; stroke: #000000; stroke-width: 0.8; stroke-linejoin: miter; stroke-linecap: square"/>
   </g>
   <g id="patch_5">
    <path d="M 44.53923 107.435402 
L 842.462801 107.435402 
" style="fill: none; stroke: #000000; stroke-width: 0.8; stroke-linejoin: miter; stroke-linecap: square"/>
   </g>
   <g id="patch_6">
    <path d="M 44.53923 7.2 
L 842.462801 7.2 
" style="fill: none; stroke: #000000; stroke-width: 0.8; stroke-linejoin: miter; stroke-linecap: square"/>
   </g>
  </g>
  <g id="axes_2">
   <g id="patch_7">
    <path d="M 44.53923 217.171283 
L 842.462801 217.171283 
L 842.462801 116.935882 
L 44.53923 116.935882 
z
" style="fill: #ffffff"/>
   </g>
   <g id="FillBetweenPolyCollection_29">
    <defs>
     <path id="m59f1589a1f" d="M 138.839288 -174.00901 
L 138.839288 -159.429315 
L 167.854691 -159.429315 
L 167.854691 -174.00901 
L 167.854691 -174.00901 
L 138.839288 -174.00901 
z
" style="stroke: #008000; stroke-opacity: 0.4"/>
    </defs>
    <g clip-path="url(#p0a75a73cb7)">
     <use xlink:href="#m59f1589a1f" x="0" y="368.39952" style="fill: #008000; fill-opacity: 0.4; stroke: #008000; stroke-opacity: 0.4"/>
    </g>
   </g>
   <g id="FillBetweenPolyCollection_30">
    <defs>
     <path id="m317202df95" d="M 167.854691 -174.00901 
L 167.854691 -155.784391 
L 196.870094 -155.784391 
L 196.870094 -174.00901 
L 196.870094 -174.00901 
L 167.854691 -174.00901 
z
" style="stroke: #008000; stroke-opacity: 0.4"/>
    </defs>
    <g clip-path="url(#p0a75a73cb7)">
     <use xlink:href="#m317202df95" x="0" y="368.39952" style="fill: #008000; fill-opacity: 0.4; stroke: #008000; stroke-opacity: 0.4"/>
    </g>
   </g>
   <g id="FillBetweenPolyCollection_31">
    <defs>
     <path id="m92655f4481" d="M 167.854691 -246.907484 
L 167.854691 -232.327789 
L 196.870094 -232.327789 
L 196.870094 -246.907484 
L 196.870094 -246.907484 
L 167.854691 -246.907484 
z
" style="stroke: #008000; stroke-opacity: 0.4"/>
    </defs>
    <g clip-path="url(#p0a75a73cb7)">
     <use xlink:href="#m92655f4481" x="0" y="368.39952" style="fill: #008000; fill-opacity: 0.4; stroke: #008000; stroke-opacity: 0.4"/>
    </g>
   </g>
   <g id="FillBetweenPolyCollection_32">
    <defs>
     <path id="m7169cb6a5e" d="M 196.870094 -246.907484 
L 196.870094 -155.784391 
L 225.885496 -155.784391 
L 225.885496 -246.907484 
L 225.885496 -246.907484 
L 196.870094 -246.907484 
z
" style="stroke: #008000; stroke-opacity: 0.4"/>
    </defs>
    <g clip-path="url(#p0a75a73cb7)">
     <use xlink:href="#m7169cb6a5e" x="0" y="368.39952" style="fill: #008000; fill-opacity: 0.4; stroke: #008000; stroke-opacity: 0.4"/>
    </g>
   </g>
   <g id="FillBetweenPolyCollection_33">
    <defs>
     <path id="m42af5cc6a6" d="M 225.885496 -246.907484 
L 225.885496 -155.784391 
L 254.900899 -155.784391 
L 254.900899 -246.907484 
L 254.900899 -246.907484 
L 225.885496 -246.907484 
z
" style="stroke: #008000; stroke-opacity: 0.4"/>
    </defs>
    <g clip-path="url(#p0a75a73cb7)">
     <use xlink:href="#m42af5cc6a6" x="0" y="368.39952" style="fill: #008000; fill-opacity: 0.4; stroke: #008000; stroke-opacity: 0.4"/>
    </g>
   </g>
   <g id="FillBetweenPolyCollection_34">
    <defs>
     <path id="m1e80c7814e" d="M 254.900899 -246.907484 
L 254.900899 -155.784391 
L 283.916301 -155.784391 
L 283.916301 -246.907484 
L 283.916301 -246.907484 
L 254.900899 -246.907484 
z
" style="stroke: #008000; stroke-opacity: 0.4"/>
    </defs>
    <g clip-path="url(#p0a75a73cb7)">
     <use xlink:href="#m1e80c7814e" x="0" y="368.39952" style="fill: #008000; fill-opacity: 0.4; stroke: #008000; stroke-opacity: 0.4"/>
    </g>
   </g>
   <g id="FillBetweenPolyCollection_35">
    <defs>
     <path id="mb24765f1d4" d="M 283.916301 -246.907484 
L 283.916301 -155.784391 
L 312.931704 -155.784391 
L 312.931704 -246.907484 
L 312.931704 -246.907484 
L 283.916301 -246.907484 
z
" style="stroke: #008000; stroke-opacity: 0.4"/>
    </defs>
    <g clip-path="url(#p0a75a73cb7)">
     <use xlink:href="#mb24765f1d4" x="0" y="368.39952" style="fill: #008000; fill-opacity: 0.4; stroke: #008000; stroke-opacity: 0.4"/>
    </g>
   </g>
   <g id="FillBetweenPolyCollection_36">
    <defs>
     <path id="m5ee7576c2d" d="M 312.931704 -246.907484 
L 312.931704 -155.784391 
L 341.947107 -155.784391 
L 341.947107 -246.907484 
L 341.947107 -246.907484 
L 312.931704 -246.907484 
z
" style="stroke: #008000; stroke-opacity: 0.4"/>
    </defs>
    <g clip-path="url(#p0a75a73cb7)">
     <use xlink:href="#m5ee7576c2d" x="0" y="368.39952" style="fill: #008000; fill-opacity: 0.4; stroke: #008000; stroke-opacity: 0.4"/>
    </g>
   </g>
   <g id="FillBetweenPolyCollection_37">
    <defs>
     <path id="m0599101041" d="M 341.947107 -246.907484 
L 341.947107 -155.784391 
L 370.962509 -155.784391 
L 370.962509 -246.907484 
L 370.962509 -246.907484 
L 341.947107 -246.907484 
z
" style="stroke: #008000; stroke-opacity: 0.4"/>
    </defs>
    <g clip-path="url(#p0a75a73cb7)">
     <use xlink:href="#m0599101041" x="0" y="368.39952" style="fill: #008000; fill-opacity: 0.4; stroke: #008000; stroke-opacity: 0.4"/>
    </g>
   </g>
   <g id="FillBetweenPolyCollection_38">
    <defs>
     <path id="m760a70b007" d="M 370.962509 -246.907484 
L 370.962509 -155.784391 
L 399.977912 -155.784391 
L 399.977912 -246.907484 
L 399.977912 -246.907484 
L 370.962509 -246.907484 
z
" style="stroke: #008000; stroke-opacity: 0.4"/>
    </defs>
    <g clip-path="url(#p0a75a73cb7)">
     <use xlink:href="#m760a70b007" x="0" y="368.39952" style="fill: #008000; fill-opacity: 0.4; stroke: #008000; stroke-opacity: 0.4"/>
    </g>
   </g>
   <g id="FillBetweenPolyCollection_39">
    <defs>
     <path id="mc0b631176d" d="M 399.977912 -246.907484 
L 399.977912 -155.784391 
L 428.993314 -155.784391 
L 428.993314 -246.907484 
L 428.993314 -246.907484 
L 399.977912 -246.907484 
z
" style="stroke: #008000; stroke-opacity: 0.4"/>
    </defs>
    <g clip-path="url(#p0a75a73cb7)">
     <use xlink:href="#mc0b631176d" x="0" y="368.39952" style="fill: #008000; fill-opacity: 0.4; stroke: #008000; stroke-opacity: 0.4"/>
    </g>
   </g>
   <g id="FillBetweenPolyCollection_40">
    <defs>
     <path id="m68d4a0705a" d="M 428.993314 -246.907484 
L 428.993314 -155.784391 
L 458.008717 -155.784391 
L 458.008717 -246.907484 
L 458.008717 -246.907484 
L 428.993314 -246.907484 
z
" style="stroke: #008000; stroke-opacity: 0.4"/>
    </defs>
    <g clip-path="url(#p0a75a73cb7)">
     <use xlink:href="#m68d4a0705a" x="0" y="368.39952" style="fill: #008000; fill-opacity: 0.4; stroke: #008000; stroke-opacity: 0.4"/>
    </g>
   </g>
   <g id="FillBetweenPolyCollection_41">
    <defs>
     <path id="m85de5aab3a" d="M 458.008717 -246.907484 
L 458.008717 -155.784391 
L 487.02412 -155.784391 
L 487.02412 -246.907484 
L 487.02412 -246.907484 
L 458.008717 -246.907484 
z
" style="stroke: #008000; stroke-opacity: 0.4"/>
    </defs>
    <g clip-path="url(#p0a75a73cb7)">
     <use xlink:href="#m85de5aab3a" x="0" y="368.39952" style="fill: #008000; fill-opacity: 0.4; stroke: #008000; stroke-opacity: 0.4"/>
    </g>
   </g>
   <g id="FillBetweenPolyCollection_42">
    <defs>
     <path id="m68dd3bdba4" d="M 487.02412 -246.907484 
L 487.02412 -155.784391 
L 516.039522 -155.784391 
L 516.039522 -246.907484 
L 516.039522 -246.907484 
L 487.02412 -246.907484 
z
" style="stroke: #008000; stroke-opacity: 0.4"/>
    </defs>
    <g clip-path="url(#p0a75a73cb7)">
     <use xlink:href="#m68dd3bdba4" x="0" y="368.39952" style="fill: #008000; fill-opacity: 0.4; stroke: #008000; stroke-opacity: 0.4"/>
    </g>
   </g>
   <g id="FillBetweenPolyCollection_43">
    <defs>
     <path id="m993f6f029e" d="M 516.039522 -246.907484 
L 516.039522 -155.784391 
L 545.054925 -155.784391 
L 545.054925 -246.907484 
L 545.054925 -246.907484 
L 516.039522 -246.907484 
z
" style="stroke: #008000; stroke-opacity: 0.4"/>
    </defs>
    <g clip-path="url(#p0a75a73cb7)">
     <use xlink:href="#m993f6f029e" x="0" y="368.39952" style="fill: #008000; fill-opacity: 0.4; stroke: #008000; stroke-opacity: 0.4"/>
    </g>
   </g>
   <g id="FillBetweenPolyCollection_44">
    <defs>
     <path id="mf4100a0750" d="M 545.054925 -246.907484 
L 545.054925 -155.784391 
L 574.070327 -155.784391 
L 574.070327 -246.907484 
L 574.070327 -246.907484 
L 545.054925 -246.907484 
z
" style="stroke: #008000; stroke-opacity: 0.4"/>
    </defs>
    <g clip-path="url(#p0a75a73cb7)">
     <use xlink:href="#mf4100a0750" x="0" y="368.39952" style="fill: #008000; fill-opacity: 0.4; stroke: #008000; stroke-opacity: 0.4"/>
    </g>
   </g>
   <g id="FillBetweenPolyCollection_45">
    <defs>
     <path id="m20cc769043" d="M 574.070327 -246.907484 
L 574.070327 -155.784391 
L 603.08573 -155.784391 
L 603.08573 -246.907484 
L 603.08573 -246.907484 
L 574.070327 -246.907484 
z
" style="stroke: #008000; stroke-opacity: 0.4"/>
    </defs>
    <g clip-path="url(#p0a75a73cb7)">
     <use xlink:href="#m20cc769043" x="0" y="368.39952" style="fill: #008000; fill-opacity: 0.4; stroke: #008000; stroke-opacity: 0.4"/>
    </g>
   </g>
   <g id="FillBetweenPolyCollection_46">
    <defs>
     <path id="m90a4436e88" d="M 603.08573 -246.907484 
L 603.08573 -155.784391 
L 632.101132 -155.784391 
L 632.101132 -246.907484 
L 632.101132 -246.907484 
L 603.08573 -246.907484 
z
" style="stroke: #008000; stroke-opacity: 0.4"/>
    </defs>
    <g clip-path="url(#p0a75a73cb7)">
     <use xlink:href="#m90a4436e88" x="0" y="368.39952" style="fill: #008000; fill-opacity: 0.4; stroke: #008000; stroke-opacity: 0.4"/>
    </g>
   </g>
   <g id="FillBetweenPolyCollection_47">
    <defs>
     <path id="m49f048a8eb" d="M 632.101132 -246.907484 
L 632.101132 -155.784391 
L 661.116535 -155.784391 
L 661.116535 -246.907484 
L 661.116535 -246.907484 
L 632.101132 -246.907484 
z
" style="stroke: #008000; stroke-opacity: 0.4"/>
    </defs>
    <g clip-path="url(#p0a75a73cb7)">
     <use xlink:href="#m49f048a8eb" x="0" y="368.39952" style="fill: #008000; fill-opacity: 0.4; stroke: #008000; stroke-opacity: 0.4"/>
    </g>
   </g>
   <g id="FillBetweenPolyCollection_48">
    <defs>
     <path id="m3d6e50e557" d="M 661.116535 -174.00901 
L 661.116535 -155.784391 
L 690.131938 -155.784391 
L 690.131938 -174.00901 
L 690.131938 -174.00901 
L 661.116535 -174.00901 
z
" style="stroke: #008000; stroke-opacity: 0.4"/>
    </defs>
    <g clip-path="url(#p0a75a73cb7)">
     <use xlink:href="#m3d6e50e557" x="0" y="368.39952" style="fill: #008000; fill-opacity: 0.4; stroke: #008000; stroke-opacity: 0.4"/>
    </g>
   </g>
   <g id="FillBetweenPolyCollection_49">
    <defs>
     <path id="m0cfbb1680e" d="M 661.116535 -246.907484 
L 661.116535 -235.972713 
L 690.131938 -235.972713 
L 690.131938 -246.907484 
L 690.131938 -246.907484 
L 661.116535 -246.907484 
z
" style="stroke: #008000; stroke-opacity: 0.4"/>
    </defs>
    <g clip-path="url(#p0a75a73cb7)">
     <use xlink:href="#m0cfbb1680e" x="0" y="368.39952" style="fill: #008000; fill-opacity: 0.4; stroke: #008000; stroke-opacity: 0.4"/>
    </g>
   </g>
   <g id="FillBetweenPolyCollection_50">
    <defs>
     <path id="mb8b72bfc5a" d="M 690.131938 -174.00901 
L 690.131938 -163.074239 
L 719.14734 -163.074239 
L 719.14734 -174.00901 
L 719.14734 -174.00901 
L 690.131938 -174.00901 
z
" style="stroke: #008000; stroke-opacity: 0.4"/>
    </defs>
    <g clip-path="url(#p0a75a73cb7)">
     <use xlink:href="#mb8b72bfc5a" x="0" y="368.39952" style="fill: #008000; fill-opacity: 0.4; stroke: #008000; stroke-opacity: 0.4"/>
    </g>
   </g>
   <g id="matplotlib.axis_3">
    <g id="xtick_14">
     <g id="line2d_19">
      <g>
       <use xlink:href="#m8721808f30" x="95.316185" y="217.171283" style="stroke: #000000; stroke-width: 0.8"/>
      </g>
     </g>
    </g>
    <g id="xtick_15">
     <g id="line2d_20">
      <g>
       <use xlink:href="#m8721808f30" x="153.34699" y="217.171283" style="stroke: #000000; stroke-width: 0.8"/>
      </g>
     </g>
    </g>
    <g id="xtick_16">
     <g id="line2d_21">
      <g>
       <use xlink:href="#m8721808f30" x="211.377795" y="217.171283" style="stroke: #000000; stroke-width: 0.8"/>
      </g>
     </g>
    </g>
    <g id="xtick_17">
     <g id="line2d_22">
      <g>
       <use xlink:href="#m8721808f30" x="269.4086" y="217.171283" style="stroke: #000000; stroke-width: 0.8"/>
      </g>
     </g>
    </g>
    <g id="xtick_18">
     <g id="line2d_23">
      <g>
       <use xlink:href="#m8721808f30" x="327.439405" y="217.171283" style="stroke: #000000; stroke-width: 0.8"/>
      </g>
     </g>
    </g>
    <g id="xtick_19">
     <g id="line2d_24">
      <g>
       <use xlink:href="#m8721808f30" x="385.47021" y="217.171283" style="stroke: #000000; stroke-width: 0.8"/>
      </g>
     </g>
    </g>
    <g id="xtick_20">
     <g id="line2d_25">
      <g>
       <use xlink:href="#m8721808f30" x="443.501016" y="217.171283" style="stroke: #000000; stroke-width: 0.8"/>
      </g>
     </g>
    </g>
    <g id="xtick_21">
     <g id="line2d_26">
      <g>
       <use xlink:href="#m8721808f30" x="501.531821" y="217.171283" style="stroke: #000000; stroke-width: 0.8"/>
      </g>
     </g>
    </g>
    <g id="xtick_22">
     <g id="line2d_27">
      <g>
       <use xlink:href="#m8721808f30" x="559.562626" y="217.171283" style="stroke: #000000; stroke-width: 0.8"/>
      </g>
     </g>
    </g>
    <g id="xtick_23">
     <g id="line2d_28">
      <g>
       <use xlink:href="#m8721808f30" x="617.593431" y="217.171283" style="stroke: #000000; stroke-width: 0.8"/>
      </g>
     </g>
    </g>
    <g id="xtick_24">
     <g id="line2d_29">
      <g>
       <use xlink:href="#m8721808f30" x="675.624236" y="217.171283" style="stroke: #000000; stroke-width: 0.8"/>
      </g>
     </g>
    </g>
    <g id="xtick_25">
     <g id="line2d_30">
      <g>
       <use xlink:href="#m8721808f30" x="733.655042" y="217.171283" style="stroke: #000000; stroke-width: 0.8"/>
      </g>
     </g>
    </g>
    <g id="xtick_26">
     <g id="line2d_31">
      <g>
       <use xlink:href="#m8721808f30" x="791.685847" y="217.171283" style="stroke: #000000; stroke-width: 0.8"/>
      </g>
     </g>
    </g>
   </g>
   <g id="matplotlib.axis_4">
    <g id="ytick_4">
     <g id="line2d_32">
      <g>
       <use xlink:href="#m0e49439ad0" x="44.53923" y="210.792667" style="stroke: #000000; stroke-width: 0.8"/>
      </g>
     </g>
     <g id="text_4">
      <!-- 0 -->
      <g transform="translate(31.17673 214.591886) scale(0.1 -0.1)">
       <use xlink:href="#DejaVuSans-30"/>
      </g>
     </g>
    </g>
    <g id="ytick_5">
     <g id="line2d_33">
      <g>
       <use xlink:href="#m0e49439ad0" x="44.53923" y="174.34343" style="stroke: #000000; stroke-width: 0.8"/>
      </g>
     </g>
     <g id="text_5">
      <!-- 10 -->
      <g transform="translate(24.81423 178.142649) scale(0.1 -0.1)">
       <use xlink:href="#DejaVuSans-31"/>
       <use xlink:href="#DejaVuSans-30" transform="translate(63.623047 0)"/>
      </g>
     </g>
    </g>
    <g id="ytick_6">
     <g id="line2d_34">
      <g>
       <use xlink:href="#m0e49439ad0" x="44.53923" y="137.894193" style="stroke: #000000; stroke-width: 0.8"/>
      </g>
     </g>
     <g id="text_6">
      <!-- 20 -->
      <g transform="translate(24.81423 141.693412) scale(0.1 -0.1)">
       <use xlink:href="#DejaVuSans-32"/>
       <use xlink:href="#DejaVuSans-30" transform="translate(63.623047 0)"/>
      </g>
     </g>
    </g>
   </g>
   <g id="line2d_35">
    <path d="M 95.316185 182.82043 
L 124.331587 183.412674 
L 153.34699 184.38053 
L 182.362392 185.605497 
L 211.377795 186.982417 
L 240.393197 188.43327 
L 269.4086 189.901007 
L 298.424003 191.334324 
L 327.439405 192.670617 
L 356.454808 193.822759 
L 385.47021 194.678319 
L 414.485613 195.122025 
L 443.501016 195.080651 
L 472.516418 194.56146 
L 501.531821 193.648068 
L 530.547223 192.45798 
L 559.562626 191.100233 
L 588.578029 189.657338 
L 617.593431 188.188912 
L 646.608834 186.746016 
L 675.624236 185.388269 
L 704.639639 184.198181 
L 733.655042 183.28479 
L 762.670444 182.765598 
L 791.685847 182.724224 
" clip-path="url(#p0a75a73cb7)" style="fill: none; stroke-dasharray: 5.55,2.4; stroke-dashoffset: 0; stroke: #000000; stroke-width: 1.5"/>
   </g>
   <g id="line2d_36">
    <path d="M 95.316185 151.286735 
L 124.331587 150.694491 
L 153.34699 149.726635 
L 182.362392 148.501668 
L 211.377795 147.124748 
L 240.393197 145.673895 
L 269.4086 144.206158 
L 298.424003 142.772841 
L 327.439405 141.436548 
L 356.454808 140.284406 
L 385.47021 139.428846 
L 414.485613 138.98514 
L 443.501016 139.026514 
L 472.516418 139.545705 
L 501.531821 140.459097 
L 530.547223 141.649185 
L 559.562626 143.006932 
L 588.578029 144.449827 
L 617.593431 145.918253 
L 646.608834 147.361149 
L 675.624236 148.718896 
L 704.639639 149.908984 
L 733.655042 150.822375 
L 762.670444 151.341567 
L 791.685847 151.382941 
" clip-path="url(#p0a75a73cb7)" style="fill: none; stroke-dasharray: 9.6,2.4,1.5,2.4; stroke-dashoffset: 0; stroke: #000000; stroke-width: 1.5"/>
   </g>
   <g id="patch_8">
    <path d="M 44.53923 217.171283 
L 44.53923 116.935882 
" style="fill: none; stroke: #000000; stroke-width: 0.8; stroke-linejoin: miter; stroke-linecap: square"/>
   </g>
   <g id="patch_9">
    <path d="M 842.462801 217.171283 
L 842.462801 116.935882 
" style="fill: none; stroke: #000000; stroke-width: 0.8; stroke-linejoin: miter; stroke-linecap: square"/>
   </g>
   <g id="patch_10">
    <path d="M 44.53923 217.171283 
L 842.462801 217.171283 
" style="fill: none; stroke: #000000; stroke-width: 0.8; stroke-linejoin: miter; stroke-linecap: square"/>
   </g>
   <g id="patch_11">
    <path d="M 44.53923 116.935882 
L 842.462801 116.935882 
" style="fill: none; stroke: #000000; stroke-width: 0.8; stroke-linejoin: miter; stroke-linecap: square"/>
   </g>
  </g>
  <g id="axes_3">
   <g id="patch_12">
    <path d="M 44.53923 326.907165 
L 842.462801 326.907165 
L 842.462801 226.671763 
L 44.53923 226.671763 
z
" style="fill: #ffffff"/>
   </g>
   <g id="FillBetweenPolyCollection_51">
    <defs>
     <path id="m3f8017c007" d="M 196.870094 -64.273128 
L 196.870094 -60.628204 
L 225.885496 -60.628204 
L 225.885496 -64.273128 
L 225.885496 -64.273128 
L 196.870094 -64.273128 
z
" style="stroke: #008000; stroke-opacity: 0.4"/>
    </defs>
    <g clip-path="url(#p6457d328a1)">
     <use xlink:href="#m3f8017c007" x="0" y="368.39952" style="fill: #008000; fill-opacity: 0.4; stroke: #008000; stroke-opacity: 0.4"/>
    </g>
   </g>
   <g id="FillBetweenPolyCollection_52">
    <defs>
     <path id="m5a7ee7887e" d="M 225.885496 -67.918052 
L 225.885496 -46.04851 
L 254.900899 -46.04851 
L 254.900899 -67.918052 
L 254.900899 -67.918052 
L 225.885496 -67.918052 
z
" style="stroke: #008000; stroke-opacity: 0.4"/>
    </defs>
    <g clip-path="url(#p6457d328a1)">
     <use xlink:href="#m5a7ee7887e" x="0" y="368.39952" style="fill: #008000; fill-opacity: 0.4; stroke: #008000; stroke-opacity: 0.4"/>
    </g>
   </g>
   <g id="FillBetweenPolyCollection_53">
    <defs>
     <path id="mf04026527b" d="M 225.885496 -137.171602 
L 225.885496 -126.236831 
L 254.900899 -126.236831 
L 254.900899 -137.171602 
L 254.900899 -137.171602 
L 225.885496 -137.171602 
z
" style="stroke: #008000; stroke-opacity: 0.4"/>
    </defs>
    <g clip-path="url(#p6457d328a1)">
     <use xlink:href="#mf04026527b" x="0" y="368.39952" style="fill: #008000; fill-opacity: 0.4; stroke: #008000; stroke-opacity: 0.4"/>
    </g>
   </g>
   <g id="FillBetweenPolyCollection_54">
    <defs>
     <path id="m23cda7c1a3" d="M 254.900899 -137.171602 
L 254.900899 -46.04851 
L 283.916301 -46.04851 
L 283.916301 -137.171602 
L 283.916301 -137.171602 
L 254.900899 -137.171602 
z
" style="stroke: #008000; stroke-opacity: 0.4"/>
    </defs>
    <g clip-path="url(#p6457d328a1)">
     <use xlink:href="#m23cda7c1a3" x="0" y="368.39952" style="fill: #008000; fill-opacity: 0.4; stroke: #008000; stroke-opacity: 0.4"/>
    </g>
   </g>
   <g id="FillBetweenPolyCollection_55">
    <defs>
     <path id="mdfe384d8a9" d="M 283.916301 -137.171602 
L 283.916301 -46.04851 
L 312.931704 -46.04851 
L 312.931704 -137.171602 
L 312.931704 -137.171602 
L 283.916301 -137.171602 
z
" style="stroke: #008000; stroke-opacity: 0.4"/>
    </defs>
    <g clip-path="url(#p6457d328a1)">
     <use xlink:href="#mdfe384d8a9" x="0" y="368.39952" style="fill: #008000; fill-opacity: 0.4; stroke: #008000; stroke-opacity: 0.4"/>
    </g>
   </g>
   <g id="FillBetweenPolyCollection_56">
    <defs>
     <path id="mb83f1d316b" d="M 312.931704 -137.171602 
L 312.931704 -46.04851 
L 341.947107 -46.04851 
L 341.947107 -137.171602 
L 341.947107 -137.171602 
L 312.931704 -137.171602 
z
" style="stroke: #008000; stroke-opacity: 0.4"/>
    </defs>
    <g clip-path="url(#p6457d328a1)">
     <use xlink:href="#mb83f1d316b" x="0" y="368.39952" style="fill: #008000; fill-opacity: 0.4; stroke: #008000; stroke-opacity: 0.4"/>
    </g>
   </g>
   <g id="FillBetweenPolyCollection_57">
    <defs>
     <path id="m8d445b493e" d="M 341.947107 -137.171602 
L 341.947107 -46.04851 
L 370.962509 -46.04851 
L 370.962509 -137.171602 
L 370.962509 -137.171602 
L 341.947107 -137.171602 
z
" style="stroke: #008000; stroke-opacity: 0.4"/>
    </defs>
    <g clip-path="url(#p6457d328a1)">
     <use xlink:href="#m8d445b493e" x="0" y="368.39952" style="fill: #008000; fill-opacity: 0.4; stroke: #008000; stroke-opacity: 0.4"/>
    </g>
   </g>
   <g id="FillBetweenPolyCollection_58">
    <defs>
     <path id="me7bfedae77" d="M 370.962509 -137.171602 
L 370.962509 -46.04851 
L 399.977912 -46.04851 
L 399.977912 -137.171602 
L 399.977912 -137.171602 
L 370.962509 -137.171602 
z
" style="stroke: #008000; stroke-opacity: 0.4"/>
    </defs>
    <g clip-path="url(#p6457d328a1)">
     <use xlink:href="#me7bfedae77" x="0" y="368.39952" style="fill: #008000; fill-opacity: 0.4; stroke: #008000; stroke-opacity: 0.4"/>
    </g>
   </g>
   <g id="FillBetweenPolyCollection_59">
    <defs>
     <path id="me1d306f391" d="M 399.977912 -137.171602 
L 399.977912 -46.04851 
L 428.993314 -46.04851 
L 428.993314 -137.171602 
L 428.993314 -137.171602 
L 399.977912 -137.171602 
z
" style="stroke: #008000; stroke-opacity: 0.4"/>
    </defs>
    <g clip-path="url(#p6457d328a1)">
     <use xlink:href="#me1d306f391" x="0" y="368.39952" style="fill: #008000; fill-opacity: 0.4; stroke: #008000; stroke-opacity: 0.4"/>
    </g>
   </g>
   <g id="FillBetweenPolyCollection_60">
    <defs>
     <path id="mcd4fed3116" d="M 428.993314 -137.171602 
L 428.993314 -46.04851 
L 458.008717 -46.04851 
L 458.008717 -137.171602 
L 458.008717 -137.171602 
L 428.993314 -137.171602 
z
" style="stroke: #008000; stroke-opacity: 0.4"/>
    </defs>
    <g clip-path="url(#p6457d328a1)">
     <use xlink:href="#mcd4fed3116" x="0" y="368.39952" style="fill: #008000; fill-opacity: 0.4; stroke: #008000; stroke-opacity: 0.4"/>
    </g>
   </g>
   <g id="FillBetweenPolyCollection_61">
    <defs>
     <path id="mbe2dec5a6f" d="M 458.008717 -137.171602 
L 458.008717 -46.04851 
L 487.02412 -46.04851 
L 487.02412 -137.171602 
L 487.02412 -137.171602 
L 458.008717 -137.171602 
z
" style="stroke: #008000; stroke-opacity: 0.4"/>
    </defs>
    <g clip-path="url(#p6457d328a1)">
     <use xlink:href="#mbe2dec5a6f" x="0" y="368.39952" style="fill: #008000; fill-opacity: 0.4; stroke: #008000; stroke-opacity: 0.4"/>
    </g>
   </g>
   <g id="FillBetweenPolyCollection_62">
    <defs>
     <path id="mda57558cd9" d="M 487.02412 -137.171602 
L 487.02412 -46.04851 
L 516.039522 -46.04851 
L 516.039522 -137.171602 
L 516.039522 -137.171602 
L 487.02412 -137.171602 
z
" style="stroke: #008000; stroke-opacity: 0.4"/>
    </defs>
    <g clip-path="url(#p6457d328a1)">
     <use xlink:href="#mda57558cd9" x="0" y="368.39952" style="fill: #008000; fill-opacity: 0.4; stroke: #008000; stroke-opacity: 0.4"/>
    </g>
   </g>
   <g id="FillBetweenPolyCollection_63">
    <defs>
     <path id="md44655163e" d="M 516.039522 -137.171602 
L 516.039522 -46.04851 
L 545.054925 -46.04851 
L 545.054925 -137.171602 
L 545.054925 -137.171602 
L 516.039522 -137.171602 
z
" style="stroke: #008000; stroke-opacity: 0.4"/>
    </defs>
    <g clip-path="url(#p6457d328a1)">
     <use xlink:href="#md44655163e" x="0" y="368.39952" style="fill: #008000; fill-opacity: 0.4; stroke: #008000; stroke-opacity: 0.4"/>
    </g>
   </g>
   <g id="FillBetweenPolyCollection_64">
    <defs>
     <path id="m279d8d2da9" d="M 545.054925 -137.171602 
L 545.054925 -46.04851 
L 574.070327 -46.04851 
L 574.070327 -137.171602 
L 574.070327 -137.171602 
L 545.054925 -137.171602 
z
" style="stroke: #008000; stroke-opacity: 0.4"/>
    </defs>
    <g clip-path="url(#p6457d328a1)">
     <use xlink:href="#m279d8d2da9" x="0" y="368.39952" style="fill: #008000; fill-opacity: 0.4; stroke: #008000; stroke-opacity: 0.4"/>
    </g>
   </g>
   <g id="FillBetweenPolyCollection_65">
    <defs>
     <path id="madf4ea7ad6" d="M 574.070327 -137.171602 
L 574.070327 -46.04851 
L 603.08573 -46.04851 
L 603.08573 -137.171602 
L 603.08573 -137.171602 
L 574.070327 -137.171602 
z
" style="stroke: #008000; stroke-opacity: 0.4"/>
    </defs>
    <g clip-path="url(#p6457d328a1)">
     <use xlink:href="#madf4ea7ad6" x="0" y="368.39952" style="fill: #008000; fill-opacity: 0.4; stroke: #008000; stroke-opacity: 0.4"/>
    </g>
   </g>
   <g id="FillBetweenPolyCollection_66">
    <defs>
     <path id="m7961c8c63d" d="M 603.08573 -67.918052 
L 603.08573 -46.04851 
L 632.101132 -46.04851 
L 632.101132 -67.918052 
L 632.101132 -67.918052 
L 603.08573 -67.918052 
z
" style="stroke: #008000; stroke-opacity: 0.4"/>
    </defs>
    <g clip-path="url(#p6457d328a1)">
     <use xlink:href="#m7961c8c63d" x="0" y="368.39952" style="fill: #008000; fill-opacity: 0.4; stroke: #008000; stroke-opacity: 0.4"/>
    </g>
   </g>
   <g id="FillBetweenPolyCollection_67">
    <defs>
     <path id="m373ca0d967" d="M 603.08573 -137.171602 
L 603.08573 -129.881755 
L 632.101132 -129.881755 
L 632.101132 -137.171602 
L 632.101132 -137.171602 
L 603.08573 -137.171602 
z
" style="stroke: #008000; stroke-opacity: 0.4"/>
    </defs>
    <g clip-path="url(#p6457d328a1)">
     <use xlink:href="#m373ca0d967" x="0" y="368.39952" style="fill: #008000; fill-opacity: 0.4; stroke: #008000; stroke-opacity: 0.4"/>
    </g>
   </g>
   <g id="FillBetweenPolyCollection_68"/>
   <g id="matplotlib.axis_5">
    <g id="xtick_27">
     <g id="line2d_37">
      <g>
       <use xlink:href="#m8721808f30" x="95.316185" y="326.907165" style="stroke: #000000; stroke-width: 0.8"/>
      </g>
     </g>
     <g id="text_7">
      <!-- 0 -->
      <g transform="translate(92.134935 341.505602) scale(0.1 -0.1)">
       <use xlink:href="#DejaVuSans-30"/>
      </g>
     </g>
    </g>
    <g id="xtick_28">
     <g id="line2d_38">
      <g>
       <use xlink:href="#m8721808f30" x="153.34699" y="326.907165" style="stroke: #000000; stroke-width: 0.8"/>
      </g>
     </g>
     <g id="text_8">
      <!-- 30 -->
      <g transform="translate(146.98449 341.505602) scale(0.1 -0.1)">
       <defs>
        <path id="DejaVuSans-33" d="M 2597 2516 
Q 3050 2419 3304 2112 
Q 3559 1806 3559 1356 
Q 3559 666 3084 287 
Q 2609 -91 1734 -91 
Q 1441 -91 1130 -33 
Q 819 25 488 141 
L 488 750 
Q 750 597 1062 519 
Q 1375 441 1716 441 
Q 2309 441 2620 675 
Q 2931 909 2931 1356 
Q 2931 1769 2642 2001 
Q 2353 2234 1838 2234 
L 1294 2234 
L 1294 2753 
L 1863 2753 
Q 2328 2753 2575 2939 
Q 2822 3125 2822 3475 
Q 2822 3834 2567 4026 
Q 2313 4219 1838 4219 
Q 1578 4219 1281 4162 
Q 984 4106 628 3988 
L 628 4550 
Q 988 4650 1302 4700 
Q 1616 4750 1894 4750 
Q 2613 4750 3031 4423 
Q 3450 4097 3450 3541 
Q 3450 3153 3228 2886 
Q 3006 2619 2597 2516 
z
" transform="scale(0.015625)"/>
       </defs>
       <use xlink:href="#DejaVuSans-33"/>
       <use xlink:href="#DejaVuSans-30" transform="translate(63.623047 0)"/>
      </g>
     </g>
    </g>
    <g id="xtick_29">
     <g id="line2d_39">
      <g>
       <use xlink:href="#m8721808f30" x="211.377795" y="326.907165" style="stroke: #000000; stroke-width: 0.8"/>
      </g>
     </g>
     <g id="text_9">
      <!-- 60 -->
      <g transform="translate(205.015295 341.505602) scale(0.1 -0.1)">
       <defs>
        <path id="DejaVuSans-36" d="M 2113 2584 
Q 1688 2584 1439 2293 
Q 1191 2003 1191 1497 
Q 1191 994 1439 701 
Q 1688 409 2113 409 
Q 2538 409 2786 701 
Q 3034 994 3034 1497 
Q 3034 2003 2786 2293 
Q 2538 2584 2113 2584 
z
M 3366 4563 
L 3366 3988 
Q 3128 4100 2886 4159 
Q 2644 4219 2406 4219 
Q 1781 4219 1451 3797 
Q 1122 3375 1075 2522 
Q 1259 2794 1537 2939 
Q 1816 3084 2150 3084 
Q 2853 3084 3261 2657 
Q 3669 2231 3669 1497 
Q 3669 778 3244 343 
Q 2819 -91 2113 -91 
Q 1303 -91 875 529 
Q 447 1150 447 2328 
Q 447 3434 972 4092 
Q 1497 4750 2381 4750 
Q 2619 4750 2861 4703 
Q 3103 4656 3366 4563 
z
" transform="scale(0.015625)"/>
       </defs>
       <use xlink:href="#DejaVuSans-36"/>
       <use xlink:href="#DejaVuSans-30" transform="translate(63.623047 0)"/>
      </g>
     </g>
    </g>
    <g id="xtick_30">
     <g id="line2d_40">
      <g>
       <use xlink:href="#m8721808f30" x="269.4086" y="326.907165" style="stroke: #000000; stroke-width: 0.8"/>
      </g>
     </g>
     <g id="text_10">
      <!-- 90 -->
      <g transform="translate(263.0461 341.505602) scale(0.1 -0.1)">
       <defs>
        <path id="DejaVuSans-39" d="M 703 97 
L 703 672 
Q 941 559 1184 500 
Q 1428 441 1663 441 
Q 2288 441 2617 861 
Q 2947 1281 2994 2138 
Q 2813 1869 2534 1725 
Q 2256 1581 1919 1581 
Q 1219 1581 811 2004 
Q 403 2428 403 3163 
Q 403 3881 828 4315 
Q 1253 4750 1959 4750 
Q 2769 4750 3195 4129 
Q 3622 3509 3622 2328 
Q 3622 1225 3098 567 
Q 2575 -91 1691 -91 
Q 1453 -91 1209 -44 
Q 966 3 703 97 
z
M 1959 2075 
Q 2384 2075 2632 2365 
Q 2881 2656 2881 3163 
Q 2881 3666 2632 3958 
Q 2384 4250 1959 4250 
Q 1534 4250 1286 3958 
Q 1038 3666 1038 3163 
Q 1038 2656 1286 2365 
Q 1534 2075 1959 2075 
z
" transform="scale(0.015625)"/>
       </defs>
       <use xlink:href="#DejaVuSans-39"/>
       <use xlink:href="#DejaVuSans-30" transform="translate(63.623047 0)"/>
      </g>
     </g>
    </g>
    <g id="xtick_31">
     <g id="line2d_41">
      <g>
       <use xlink:href="#m8721808f30" x="327.439405" y="326.907165" style="stroke: #000000; stroke-width: 0.8"/>
      </g>
     </g>
     <g id="text_11">
      <!-- 120 -->
      <g transform="translate(317.895655 341.505602) scale(0.1 -0.1)">
       <use xlink:href="#DejaVuSans-31"/>
       <use xlink:href="#DejaVuSans-32" transform="translate(63.623047 0)"/>
       <use xlink:href="#DejaVuSans-30" transform="translate(127.246094 0)"/>
      </g>
     </g>
    </g>
    <g id="xtick_32">
     <g id="line2d_42">
      <g>
       <use xlink:href="#m8721808f30" x="385.47021" y="326.907165" style="stroke: #000000; stroke-width: 0.8"/>
      </g>
     </g>
     <g id="text_12">
      <!-- 150 -->
      <g transform="translate(375.92646 341.505602) scale(0.1 -0.1)">
       <defs>
        <path id="DejaVuSans-35" d="M 691 4666 
L 3169 4666 
L 3169 4134 
L 1269 4134 
L 1269 2991 
Q 1406 3038 1543 3061 
Q 1681 3084 1819 3084 
Q 2600 3084 3056 2656 
Q 3513 2228 3513 1497 
Q 3513 744 3044 326 
Q 2575 -91 1722 -91 
Q 1428 -91 1123 -41 
Q 819 9 494 109 
L 494 744 
Q 775 591 1075 516 
Q 1375 441 1709 441 
Q 2250 441 2565 725 
Q 2881 1009 2881 1497 
Q 2881 1984 2565 2268 
Q 2250 2553 1709 2553 
Q 1456 2553 1204 2497 
Q 953 2441 691 2322 
L 691 4666 
z
" transform="scale(0.015625)"/>
       </defs>
       <use xlink:href="#DejaVuSans-31"/>
       <use xlink:href="#DejaVuSans-35" transform="translate(63.623047 0)"/>
       <use xlink:href="#DejaVuSans-30" transform="translate(127.246094 0)"/>
      </g>
     </g>
    </g>
    <g id="xtick_33">
     <g id="line2d_43">
      <g>
       <use xlink:href="#m8721808f30" x="443.501016" y="326.907165" style="stroke: #000000; stroke-width: 0.8"/>
      </g>
     </g>
     <g id="text_13">
      <!-- 180 -->
      <g transform="translate(433.957266 341.505602) scale(0.1 -0.1)">
       <defs>
        <path id="DejaVuSans-38" d="M 2034 2216 
Q 1584 2216 1326 1975 
Q 1069 1734 1069 1313 
Q 1069 891 1326 650 
Q 1584 409 2034 409 
Q 2484 409 2743 651 
Q 3003 894 3003 1313 
Q 3003 1734 2745 1975 
Q 2488 2216 2034 2216 
z
M 1403 2484 
Q 997 2584 770 2862 
Q 544 3141 544 3541 
Q 544 4100 942 4425 
Q 1341 4750 2034 4750 
Q 2731 4750 3128 4425 
Q 3525 4100 3525 3541 
Q 3525 3141 3298 2862 
Q 3072 2584 2669 2484 
Q 3125 2378 3379 2068 
Q 3634 1759 3634 1313 
Q 3634 634 3220 271 
Q 2806 -91 2034 -91 
Q 1263 -91 848 271 
Q 434 634 434 1313 
Q 434 1759 690 2068 
Q 947 2378 1403 2484 
z
M 1172 3481 
Q 1172 3119 1398 2916 
Q 1625 2713 2034 2713 
Q 2441 2713 2670 2916 
Q 2900 3119 2900 3481 
Q 2900 3844 2670 4047 
Q 2441 4250 2034 4250 
Q 1625 4250 1398 4047 
Q 1172 3844 1172 3481 
z
" transform="scale(0.015625)"/>
       </defs>
       <use xlink:href="#DejaVuSans-31"/>
       <use xlink:href="#DejaVuSans-38" transform="translate(63.623047 0)"/>
       <use xlink:href="#DejaVuSans-30" transform="translate(127.246094 0)"/>
      </g>
     </g>
    </g>
    <g id="xtick_34">
     <g id="line2d_44">
      <g>
       <use xlink:href="#m8721808f30" x="501.531821" y="326.907165" style="stroke: #000000; stroke-width: 0.8"/>
      </g>
     </g>
     <g id="text_14">
      <!-- 210 -->
      <g transform="translate(491.988071 341.505602) scale(0.1 -0.1)">
       <use xlink:href="#DejaVuSans-32"/>
       <use xlink:href="#DejaVuSans-31" transform="translate(63.623047 0)"/>
       <use xlink:href="#DejaVuSans-30" transform="translate(127.246094 0)"/>
      </g>
     </g>
    </g>
    <g id="xtick_35">
     <g id="line2d_45">
      <g>
       <use xlink:href="#m8721808f30" x="559.562626" y="326.907165" style="stroke: #000000; stroke-width: 0.8"/>
      </g>
     </g>
     <g id="text_15">
      <!-- 240 -->
      <g transform="translate(550.018876 341.505602) scale(0.1 -0.1)">
       <defs>
        <path id="DejaVuSans-34" d="M 2419 4116 
L 825 1625 
L 2419 1625 
L 2419 4116 
z
M 2253 4666 
L 3047 4666 
L 3047 1625 
L 3713 1625 
L 3713 1100 
L 3047 1100 
L 3047 0 
L 2419 0 
L 2419 1100 
L 313 1100 
L 313 1709 
L 2253 4666 
z
" transform="scale(0.015625)"/>
       </defs>
       <use xlink:href="#DejaVuSans-32"/>
       <use xlink:href="#DejaVuSans-34" transform="translate(63.623047 0)"/>
       <use xlink:href="#DejaVuSans-30" transform="translate(127.246094 0)"/>
      </g>
     </g>
    </g>
    <g id="xtick_36">
     <g id="line2d_46">
      <g>
       <use xlink:href="#m8721808f30" x="617.593431" y="326.907165" style="stroke: #000000; stroke-width: 0.8"/>
      </g>
     </g>
     <g id="text_16">
      <!-- 270 -->
      <g transform="translate(608.049681 341.505602) scale(0.1 -0.1)">
       <defs>
        <path id="DejaVuSans-37" d="M 525 4666 
L 3525 4666 
L 3525 4397 
L 1831 0 
L 1172 0 
L 2766 4134 
L 525 4134 
L 525 4666 
z
" transform="scale(0.015625)"/>
       </defs>
       <use xlink:href="#DejaVuSans-32"/>
       <use xlink:href="#DejaVuSans-37" transform="translate(63.623047 0)"/>
       <use xlink:href="#DejaVuSans-30" transform="translate(127.246094 0)"/>
      </g>
     </g>
    </g>
    <g id="xtick_37">
     <g id="line2d_47">
      <g>
       <use xlink:href="#m8721808f30" x="675.624236" y="326.907165" style="stroke: #000000; stroke-width: 0.8"/>
      </g>
     </g>
     <g id="text_17">
      <!-- 300 -->
      <g transform="translate(666.080486 341.505602) scale(0.1 -0.1)">
       <use xlink:href="#DejaVuSans-33"/>
       <use xlink:href="#DejaVuSans-30" transform="translate(63.623047 0)"/>
       <use xlink:href="#DejaVuSans-30" transform="translate(127.246094 0)"/>
      </g>
     </g>
    </g>
    <g id="xtick_38">
     <g id="line2d_48">
      <g>
       <use xlink:href="#m8721808f30" x="733.655042" y="326.907165" style="stroke: #000000; stroke-width: 0.8"/>
      </g>
     </g>
     <g id="text_18">
      <!-- 330 -->
      <g transform="translate(724.111292 341.505602) scale(0.1 -0.1)">
       <use xlink:href="#DejaVuSans-33"/>
       <use xlink:href="#DejaVuSans-33" transform="translate(63.623047 0)"/>
       <use xlink:href="#DejaVuSans-30" transform="translate(127.246094 0)"/>
      </g>
     </g>
    </g>
    <g id="xtick_39">
     <g id="line2d_49">
      <g>
       <use xlink:href="#m8721808f30" x="791.685847" y="326.907165" style="stroke: #000000; stroke-width: 0.8"/>
      </g>
     </g>
     <g id="text_19">
      <!-- 360 -->
      <g transform="translate(782.142097 341.505602) scale(0.1 -0.1)">
       <use xlink:href="#DejaVuSans-33"/>
       <use xlink:href="#DejaVuSans-36" transform="translate(63.623047 0)"/>
       <use xlink:href="#DejaVuSans-30" transform="translate(127.246094 0)"/>
      </g>
     </g>
    </g>
   </g>
   <g id="matplotlib.axis_6">
    <g id="ytick_7">
     <g id="line2d_50">
      <g>
       <use xlink:href="#m0e49439ad0" x="44.53923" y="320.528549" style="stroke: #000000; stroke-width: 0.8"/>
      </g>
     </g>
     <g id="text_20">
      <!-- 0 -->
      <g transform="translate(31.17673 324.327767) scale(0.1 -0.1)">
       <use xlink:href="#DejaVuSans-30"/>
      </g>
     </g>
    </g>
    <g id="ytick_8">
     <g id="line2d_51">
      <g>
       <use xlink:href="#m0e49439ad0" x="44.53923" y="284.079312" style="stroke: #000000; stroke-width: 0.8"/>
      </g>
     </g>
     <g id="text_21">
      <!-- 10 -->
      <g transform="translate(24.81423 287.87853) scale(0.1 -0.1)">
       <use xlink:href="#DejaVuSans-31"/>
       <use xlink:href="#DejaVuSans-30" transform="translate(63.623047 0)"/>
      </g>
     </g>
    </g>
    <g id="ytick_9">
     <g id="line2d_52">
      <g>
       <use xlink:href="#m0e49439ad0" x="44.53923" y="247.630075" style="stroke: #000000; stroke-width: 0.8"/>
      </g>
     </g>
     <g id="text_22">
      <!-- 20 -->
      <g transform="translate(24.81423 251.429293) scale(0.1 -0.1)">
       <use xlink:href="#DejaVuSans-32"/>
       <use xlink:href="#DejaVuSans-30" transform="translate(63.623047 0)"/>
      </g>
     </g>
    </g>
   </g>
   <g id="line2d_53">
    <path d="M 95.316185 287.160889 
L 124.331587 288.478619 
L 153.34699 290.464933 
L 182.362392 292.795096 
L 211.377795 295.275264 
L 240.393197 297.810203 
L 269.4086 300.355551 
L 298.424003 302.878792 
L 327.439405 305.323356 
L 356.454808 307.566746 
L 385.47021 309.372173 
L 414.485613 310.381291 
L 443.501016 310.284488 
L 472.516418 309.115911 
L 501.531821 307.215149 
L 530.547223 304.925433 
L 559.562626 302.461622 
L 588.578029 299.931884 
L 617.593431 297.386129 
L 646.608834 294.856391 
L 675.624236 292.39258 
L 704.639639 290.102864 
L 733.655042 288.202102 
L 762.670444 287.033524 
L 791.685847 286.936722 
" clip-path="url(#p6457d328a1)" style="fill: none; stroke-dasharray: 5.55,2.4; stroke-dashoffset: 0; stroke: #000000; stroke-width: 1.5"/>
   </g>
   <g id="line2d_54">
    <path d="M 95.316185 266.41804 
L 124.331587 265.100309 
L 153.34699 263.113996 
L 182.362392 260.783833 
L 211.377795 258.303664 
L 240.393197 255.768726 
L 269.4086 253.223377 
L 298.424003 250.700137 
L 327.439405 248.255572 
L 356.454808 246.012182 
L 385.47021 244.206755 
L 414.485613 243.197638 
L 443.501016 243.29444 
L 472.516418 244.463018 
L 501.531821 246.363779 
L 530.547223 248.653495 
L 559.562626 251.117306 
L 588.578029 253.647045 
L 617.593431 256.192799 
L 646.608834 258.722538 
L 675.624236 261.186349 
L 704.639639 263.476065 
L 733.655042 265.376826 
L 762.670444 266.545404 
L 791.685847 266.642206 
" clip-path="url(#p6457d328a1)" style="fill: none; stroke-dasharray: 9.6,2.4,1.5,2.4; stroke-dashoffset: 0; stroke: #000000; stroke-width: 1.5"/>
   </g>
   <g id="line2d_55"/>
   <g id="line2d_56"/>
   <g id="patch_13">
    <path d="M 44.53923 326.907165 
L 44.53923 226.671763 
" style="fill: none; stroke: #000000; stroke-width: 0.8; stroke-linejoin: miter; stroke-linecap: square"/>
   </g>
   <g id="patch_14">
    <path d="M 842.462801 326.907165 
L 842.462801 226.671763 
" style="fill: none; stroke: #000000; stroke-width: 0.8; stroke-linejoin: miter; stroke-linecap: square"/>
   </g>
   <g id="patch_15">
    <path d="M 44.53923 326.907165 
L 842.462801 326.907165 
" style="fill: none; stroke: #000000; stroke-width: 0.8; stroke-linejoin: miter; stroke-linecap: square"/>
   </g>
   <g id="patch_16">
    <path d="M 44.53923 226.671763 
L 842.462801 226.671763 
" style="fill: none; stroke: #000000; stroke-width: 0.8; stroke-linejoin: miter; stroke-linecap: square"/>
   </g>
   <g id="legend_1">
    <g id="patch_17">
     <path d="M 704.436239 321.907165 
L 835.462801 321.907165 
Q 837.462801 321.907165 837.462801 319.907165 
L 837.462801 276.87279 
Q 837.462801 274.87279 835.462801 274.87279 
L 704.436239 274.87279 
Q 702.436239 274.87279 702.436239 276.87279 
L 702.436239 319.907165 
Q 702.436239 321.907165 704.436239 321.907165 
z
" style="fill: #ffffff; opacity: 0.8; stroke: #cccccc; stroke-linejoin: miter"/>
    </g>
    <g id="line2d_57">
     <path d="M 706.436239 282.971227 
L 716.436239 282.971227 
L 726.436239 282.971227 
" style="fill: none; stroke-dasharray: 5.55,2.4; stroke-dashoffset: 0; stroke: #000000; stroke-width: 1.5"/>
    </g>
    <g id="text_23">
     <!-- Sunrise Time -->
     <g transform="translate(734.436239 286.471227) scale(0.1 -0.1)">
      <defs>
       <path id="DejaVuSans-53" d="M 3425 4513 
L 3425 3897 
Q 3066 4069 2747 4153 
Q 2428 4238 2131 4238 
Q 1616 4238 1336 4038 
Q 1056 3838 1056 3469 
Q 1056 3159 1242 3001 
Q 1428 2844 1947 2747 
L 2328 2669 
Q 3034 2534 3370 2195 
Q 3706 1856 3706 1288 
Q 3706 609 3251 259 
Q 2797 -91 1919 -91 
Q 1588 -91 1214 -16 
Q 841 59 441 206 
L 441 856 
Q 825 641 1194 531 
Q 1563 422 1919 422 
Q 2459 422 2753 634 
Q 3047 847 3047 1241 
Q 3047 1584 2836 1778 
Q 2625 1972 2144 2069 
L 1759 2144 
Q 1053 2284 737 2584 
Q 422 2884 422 3419 
Q 422 4038 858 4394 
Q 1294 4750 2059 4750 
Q 2388 4750 2728 4690 
Q 3069 4631 3425 4513 
z
" transform="scale(0.015625)"/>
       <path id="DejaVuSans-75" d="M 544 1381 
L 544 3500 
L 1119 3500 
L 1119 1403 
Q 1119 906 1312 657 
Q 1506 409 1894 409 
Q 2359 409 2629 706 
Q 2900 1003 2900 1516 
L 2900 3500 
L 3475 3500 
L 3475 0 
L 2900 0 
L 2900 538 
Q 2691 219 2414 64 
Q 2138 -91 1772 -91 
Q 1169 -91 856 284 
Q 544 659 544 1381 
z
M 1991 3584 
L 1991 3584 
z
" transform="scale(0.015625)"/>
       <path id="DejaVuSans-6e" d="M 3513 2113 
L 3513 0 
L 2938 0 
L 2938 2094 
Q 2938 2591 2744 2837 
Q 2550 3084 2163 3084 
Q 1697 3084 1428 2787 
Q 1159 2491 1159 1978 
L 1159 0 
L 581 0 
L 581 3500 
L 1159 3500 
L 1159 2956 
Q 1366 3272 1645 3428 
Q 1925 3584 2291 3584 
Q 2894 3584 3203 3211 
Q 3513 2838 3513 2113 
z
" transform="scale(0.015625)"/>
       <path id="DejaVuSans-72" d="M 2631 2963 
Q 2534 3019 2420 3045 
Q 2306 3072 2169 3072 
Q 1681 3072 1420 2755 
Q 1159 2438 1159 1844 
L 1159 0 
L 581 0 
L 581 3500 
L 1159 3500 
L 1159 2956 
Q 1341 3275 1631 3429 
Q 1922 3584 2338 3584 
Q 2397 3584 2469 3576 
Q 2541 3569 2628 3553 
L 2631 2963 
z
" transform="scale(0.015625)"/>
       <path id="DejaVuSans-69" d="M 603 3500 
L 1178 3500 
L 1178 0 
L 603 0 
L 603 3500 
z
M 603 4863 
L 1178 4863 
L 1178 4134 
L 603 4134 
L 603 4863 
z
" transform="scale(0.015625)"/>
       <path id="DejaVuSans-73" d="M 2834 3397 
L 2834 2853 
Q 2591 2978 2328 3040 
Q 2066 3103 1784 3103 
Q 1356 3103 1142 2972 
Q 928 2841 928 2578 
Q 928 2378 1081 2264 
Q 1234 2150 1697 2047 
L 1894 2003 
Q 2506 1872 2764 1633 
Q 3022 1394 3022 966 
Q 3022 478 2636 193 
Q 2250 -91 1575 -91 
Q 1294 -91 989 -36 
Q 684 19 347 128 
L 347 722 
Q 666 556 975 473 
Q 1284 391 1588 391 
Q 1994 391 2212 530 
Q 2431 669 2431 922 
Q 2431 1156 2273 1281 
Q 2116 1406 1581 1522 
L 1381 1569 
Q 847 1681 609 1914 
Q 372 2147 372 2553 
Q 372 3047 722 3315 
Q 1072 3584 1716 3584 
Q 2034 3584 2315 3537 
Q 2597 3491 2834 3397 
z
" transform="scale(0.015625)"/>
       <path id="DejaVuSans-65" d="M 3597 1894 
L 3597 1613 
L 953 1613 
Q 991 1019 1311 708 
Q 1631 397 2203 397 
Q 2534 397 2845 478 
Q 3156 559 3463 722 
L 3463 178 
Q 3153 47 2828 -22 
Q 2503 -91 2169 -91 
Q 1331 -91 842 396 
Q 353 884 353 1716 
Q 353 2575 817 3079 
Q 1281 3584 2069 3584 
Q 2775 3584 3186 3129 
Q 3597 2675 3597 1894 
z
M 3022 2063 
Q 3016 2534 2758 2815 
Q 2500 3097 2075 3097 
Q 1594 3097 1305 2825 
Q 1016 2553 972 2059 
L 3022 2063 
z
" transform="scale(0.015625)"/>
       <path id="DejaVuSans-20" transform="scale(0.015625)"/>
       <path id="DejaVuSans-54" d="M -19 4666 
L 3928 4666 
L 3928 4134 
L 2272 4134 
L 2272 0 
L 1638 0 
L 1638 4134 
L -19 4134 
L -19 4666 
z
" transform="scale(0.015625)"/>
       <path id="DejaVuSans-6d" d="M 3328 2828 
Q 3544 3216 3844 3400 
Q 4144 3584 4550 3584 
Q 5097 3584 5394 3201 
Q 5691 2819 5691 2113 
L 5691 0 
L 5113 0 
L 5113 2094 
Q 5113 2597 4934 2840 
Q 4756 3084 4391 3084 
Q 3944 3084 3684 2787 
Q 3425 2491 3425 1978 
L 3425 0 
L 2847 0 
L 2847 2094 
Q 2847 2600 2669 2842 
Q 2491 3084 2119 3084 
Q 1678 3084 1418 2786 
Q 1159 2488 1159 1978 
L 1159 0 
L 581 0 
L 581 3500 
L 1159 3500 
L 1159 2956 
Q 1356 3278 1631 3431 
Q 1906 3584 2284 3584 
Q 2666 3584 2933 3390 
Q 3200 3197 3328 2828 
z
" transform="scale(0.015625)"/>
      </defs>
      <use xlink:href="#DejaVuSans-53"/>
      <use xlink:href="#DejaVuSans-75" transform="translate(63.476562 0)"/>
      <use xlink:href="#DejaVuSans-6e" transform="translate(126.855469 0)"/>
      <use xlink:href="#DejaVuSans-72" transform="translate(190.234375 0)"/>
      <use xlink:href="#DejaVuSans-69" transform="translate(231.347656 0)"/>
      <use xlink:href="#DejaVuSans-73" transform="translate(259.130859 0)"/>
      <use xlink:href="#DejaVuSans-65" transform="translate(311.230469 0)"/>
      <use xlink:href="#DejaVuSans-20" transform="translate(372.753906 0)"/>
      <use xlink:href="#DejaVuSans-54" transform="translate(404.541016 0)"/>
      <use xlink:href="#DejaVuSans-69" transform="translate(462.5 0)"/>
      <use xlink:href="#DejaVuSans-6d" transform="translate(490.283203 0)"/>
      <use xlink:href="#DejaVuSans-65" transform="translate(587.695312 0)"/>
     </g>
    </g>
    <g id="line2d_58">
     <path d="M 706.436239 297.649352 
L 716.436239 297.649352 
L 726.436239 297.649352 
" style="fill: none; stroke-dasharray: 9.6,2.4,1.5,2.4; stroke-dashoffset: 0; stroke: #000000; stroke-width: 1.5"/>
    </g>
    <g id="text_24">
     <!-- Sunset Time -->
     <g transform="translate(734.436239 301.149352) scale(0.1 -0.1)">
      <defs>
       <path id="DejaVuSans-74" d="M 1172 4494 
L 1172 3500 
L 2356 3500 
L 2356 3053 
L 1172 3053 
L 1172 1153 
Q 1172 725 1289 603 
Q 1406 481 1766 481 
L 2356 481 
L 2356 0 
L 1766 0 
Q 1100 0 847 248 
Q 594 497 594 1153 
L 594 3053 
L 172 3053 
L 172 3500 
L 594 3500 
L 594 4494 
L 1172 4494 
z
" transform="scale(0.015625)"/>
      </defs>
      <use xlink:href="#DejaVuSans-53"/>
      <use xlink:href="#DejaVuSans-75" transform="translate(63.476562 0)"/>
      <use xlink:href="#DejaVuSans-6e" transform="translate(126.855469 0)"/>
      <use xlink:href="#DejaVuSans-73" transform="translate(190.234375 0)"/>
      <use xlink:href="#DejaVuSans-65" transform="translate(242.333984 0)"/>
      <use xlink:href="#DejaVuSans-74" transform="translate(303.857422 0)"/>
      <use xlink:href="#DejaVuSans-20" transform="translate(343.066406 0)"/>
      <use xlink:href="#DejaVuSans-54" transform="translate(374.853516 0)"/>
      <use xlink:href="#DejaVuSans-69" transform="translate(432.8125 0)"/>
      <use xlink:href="#DejaVuSans-6d" transform="translate(460.595703 0)"/>
      <use xlink:href="#DejaVuSans-65" transform="translate(558.007812 0)"/>
     </g>
    </g>
    <g id="patch_18">
     <path d="M 706.436239 315.827477 
L 726.436239 315.827477 
L 726.436239 308.827477 
L 706.436239 308.827477 
z
" style="fill: #008000; fill-opacity: 0.4; stroke: #008000; stroke-opacity: 0.4; stroke-linejoin: miter"/>
    </g>
    <g id="text_25">
     <!-- Deployable Window -->
     <g transform="translate(734.436239 315.827477) scale(0.1 -0.1)">
      <defs>
       <path id="DejaVuSans-44" d="M 1259 4147 
L 1259 519 
L 2022 519 
Q 2988 519 3436 956 
Q 3884 1394 3884 2338 
Q 3884 3275 3436 3711 
Q 2988 4147 2022 4147 
L 1259 4147 
z
M 628 4666 
L 1925 4666 
Q 3281 4666 3915 4102 
Q 4550 3538 4550 2338 
Q 4550 1131 3912 565 
Q 3275 0 1925 0 
L 628 0 
L 628 4666 
z
" transform="scale(0.015625)"/>
       <path id="DejaVuSans-70" d="M 1159 525 
L 1159 -1331 
L 581 -1331 
L 581 3500 
L 1159 3500 
L 1159 2969 
Q 1341 3281 1617 3432 
Q 1894 3584 2278 3584 
Q 2916 3584 3314 3078 
Q 3713 2572 3713 1747 
Q 3713 922 3314 415 
Q 2916 -91 2278 -91 
Q 1894 -91 1617 61 
Q 1341 213 1159 525 
z
M 3116 1747 
Q 3116 2381 2855 2742 
Q 2594 3103 2138 3103 
Q 1681 3103 1420 2742 
Q 1159 2381 1159 1747 
Q 1159 1113 1420 752 
Q 1681 391 2138 391 
Q 2594 391 2855 752 
Q 3116 1113 3116 1747 
z
" transform="scale(0.015625)"/>
       <path id="DejaVuSans-6c" d="M 603 4863 
L 1178 4863 
L 1178 0 
L 603 0 
L 603 4863 
z
" transform="scale(0.015625)"/>
       <path id="DejaVuSans-6f" d="M 1959 3097 
Q 1497 3097 1228 2736 
Q 959 2375 959 1747 
Q 959 1119 1226 758 
Q 1494 397 1959 397 
Q 2419 397 2687 759 
Q 2956 1122 2956 1747 
Q 2956 2369 2687 2733 
Q 2419 3097 1959 3097 
z
M 1959 3584 
Q 2709 3584 3137 3096 
Q 3566 2609 3566 1747 
Q 3566 888 3137 398 
Q 2709 -91 1959 -91 
Q 1206 -91 779 398 
Q 353 888 353 1747 
Q 353 2609 779 3096 
Q 1206 3584 1959 3584 
z
" transform="scale(0.015625)"/>
       <path id="DejaVuSans-79" d="M 2059 -325 
Q 1816 -950 1584 -1140 
Q 1353 -1331 966 -1331 
L 506 -1331 
L 506 -850 
L 844 -850 
Q 1081 -850 1212 -737 
Q 1344 -625 1503 -206 
L 1606 56 
L 191 3500 
L 800 3500 
L 1894 763 
L 2988 3500 
L 3597 3500 
L 2059 -325 
z
" transform="scale(0.015625)"/>
       <path id="DejaVuSans-61" d="M 2194 1759 
Q 1497 1759 1228 1600 
Q 959 1441 959 1056 
Q 959 750 1161 570 
Q 1363 391 1709 391 
Q 2188 391 2477 730 
Q 2766 1069 2766 1631 
L 2766 1759 
L 2194 1759 
z
M 3341 1997 
L 3341 0 
L 2766 0 
L 2766 531 
Q 2569 213 2275 61 
Q 1981 -91 1556 -91 
Q 1019 -91 701 211 
Q 384 513 384 1019 
Q 384 1609 779 1909 
Q 1175 2209 1959 2209 
L 2766 2209 
L 2766 2266 
Q 2766 2663 2505 2880 
Q 2244 3097 1772 3097 
Q 1472 3097 1187 3025 
Q 903 2953 641 2809 
L 641 3341 
Q 956 3463 1253 3523 
Q 1550 3584 1831 3584 
Q 2591 3584 2966 3190 
Q 3341 2797 3341 1997 
z
" transform="scale(0.015625)"/>
       <path id="DejaVuSans-62" d="M 3116 1747 
Q 3116 2381 2855 2742 
Q 2594 3103 2138 3103 
Q 1681 3103 1420 2742 
Q 1159 2381 1159 1747 
Q 1159 1113 1420 752 
Q 1681 391 2138 391 
Q 2594 391 2855 752 
Q 3116 1113 3116 1747 
z
M 1159 2969 
Q 1341 3281 1617 3432 
Q 1894 3584 2278 3584 
Q 2916 3584 3314 3078 
Q 3713 2572 3713 1747 
Q 3713 922 3314 415 
Q 2916 -91 2278 -91 
Q 1894 -91 1617 61 
Q 1341 213 1159 525 
L 1159 0 
L 581 0 
L 581 4863 
L 1159 4863 
L 1159 2969 
z
" transform="scale(0.015625)"/>
       <path id="DejaVuSans-57" d="M 213 4666 
L 850 4666 
L 1831 722 
L 2809 4666 
L 3519 4666 
L 4500 722 
L 5478 4666 
L 6119 4666 
L 4947 0 
L 4153 0 
L 3169 4050 
L 2175 0 
L 1381 0 
L 213 4666 
z
" transform="scale(0.015625)"/>
       <path id="DejaVuSans-64" d="M 2906 2969 
L 2906 4863 
L 3481 4863 
L 3481 0 
L 2906 0 
L 2906 525 
Q 2725 213 2448 61 
Q 2172 -91 1784 -91 
Q 1150 -91 751 415 
Q 353 922 353 1747 
Q 353 2572 751 3078 
Q 1150 3584 1784 3584 
Q 2172 3584 2448 3432 
Q 2725 3281 2906 2969 
z
M 947 1747 
Q 947 1113 1208 752 
Q 1469 391 1925 391 
Q 2381 391 2643 752 
Q 2906 1113 2906 1747 
Q 2906 2381 2643 2742 
Q 2381 3103 1925 3103 
Q 1469 3103 1208 2742 
Q 947 2381 947 1747 
z
" transform="scale(0.015625)"/>
       <path id="DejaVuSans-77" d="M 269 3500 
L 844 3500 
L 1563 769 
L 2278 3500 
L 2956 3500 
L 3675 769 
L 4391 3500 
L 4966 3500 
L 4050 0 
L 3372 0 
L 2619 2869 
L 1863 0 
L 1184 0 
L 269 3500 
z
" transform="scale(0.015625)"/>
      </defs>
      <use xlink:href="#DejaVuSans-44"/>
      <use xlink:href="#DejaVuSans-65" transform="translate(77.001953 0)"/>
      <use xlink:href="#DejaVuSans-70" transform="translate(138.525391 0)"/>
      <use xlink:href="#DejaVuSans-6c" transform="translate(202.001953 0)"/>
      <use xlink:href="#DejaVuSans-6f" transform="translate(229.785156 0)"/>
      <use xlink:href="#DejaVuSans-79" transform="translate(290.966797 0)"/>
      <use xlink:href="#DejaVuSans-61" transform="translate(350.146484 0)"/>
      <use xlink:href="#DejaVuSans-62" transform="translate(411.425781 0)"/>
      <use xlink:href="#DejaVuSans-6c" transform="translate(474.902344 0)"/>
      <use xlink:href="#DejaVuSans-65" transform="translate(502.685547 0)"/>
      <use xlink:href="#DejaVuSans-20" transform="translate(564.208984 0)"/>
      <use xlink:href="#DejaVuSans-57" transform="translate(595.996094 0)"/>
      <use xlink:href="#DejaVuSans-69" transform="translate(692.623047 0)"/>
      <use xlink:href="#DejaVuSans-6e" transform="translate(720.40625 0)"/>
      <use xlink:href="#DejaVuSans-64" transform="translate(783.785156 0)"/>
      <use xlink:href="#DejaVuSans-6f" transform="translate(847.261719 0)"/>
      <use xlink:href="#DejaVuSans-77" transform="translate(908.443359 0)"/>
     </g>
    </g>
   </g>
  </g>
  <g id="axes_4">
   <g id="matplotlib.axis_7">
    <g id="text_26">
     <!-- 30' -->
     <g transform="translate(849.726082 64.916138) scale(0.1 -0.1)">
      <defs>
       <path id="DejaVuSans-27" d="M 1147 4666 
L 1147 2931 
L 616 2931 
L 616 4666 
L 1147 4666 
z
" transform="scale(0.015625)"/>
      </defs>
      <use xlink:href="#DejaVuSans-33"/>
      <use xlink:href="#DejaVuSans-30" transform="translate(63.623047 0)"/>
      <use xlink:href="#DejaVuSans-27" transform="translate(127.246094 0)"/>
     </g>
    </g>
   </g>
   <g id="patch_19">
    <path d="M 44.53923 107.435402 
L 44.53923 7.2 
" style="fill: none; stroke: #000000; stroke-width: 0.8; stroke-linejoin: miter; stroke-linecap: square"/>
   </g>
   <g id="patch_20">
    <path d="M 842.462801 107.435402 
L 842.462801 7.2 
" style="fill: none; stroke: #000000; stroke-width: 0.8; stroke-linejoin: miter; stroke-linecap: square"/>
   </g>
   <g id="patch_21">
    <path d="M 44.53923 107.435402 
L 842.462801 107.435402 
" style="fill: none; stroke: #000000; stroke-width: 0.8; stroke-linejoin: miter; stroke-linecap: square"/>
   </g>
   <g id="patch_22">
    <path d="M 44.53923 7.2 
L 842.462801 7.2 
" style="fill: none; stroke: #000000; stroke-width: 0.8; stroke-linejoin: miter; stroke-linecap: square"/>
   </g>
  </g>
  <g id="axes_5">
   <g id="matplotlib.axis_8">
    <g id="text_27">
     <!-- 45' -->
     <g transform="translate(849.726082 174.65202) scale(0.1 -0.1)">
      <use xlink:href="#DejaVuSans-34"/>
      <use xlink:href="#DejaVuSans-35" transform="translate(63.623047 0)"/>
      <use xlink:href="#DejaVuSans-27" transform="translate(127.246094 0)"/>
     </g>
    </g>
   </g>
   <g id="patch_23">
    <path d="M 44.53923 217.171283 
L 44.53923 116.935882 
" style="fill: none; stroke: #000000; stroke-width: 0.8; stroke-linejoin: miter; stroke-linecap: square"/>
   </g>
   <g id="patch_24">
    <path d="M 842.462801 217.171283 
L 842.462801 116.935882 
" style="fill: none; stroke: #000000; stroke-width: 0.8; stroke-linejoin: miter; stroke-linecap: square"/>
   </g>
   <g id="patch_25">
    <path d="M 44.53923 217.171283 
L 842.462801 217.171283 
" style="fill: none; stroke: #000000; stroke-width: 0.8; stroke-linejoin: miter; stroke-linecap: square"/>
   </g>
   <g id="patch_26">
    <path d="M 44.53923 116.935882 
L 842.462801 116.935882 
" style="fill: none; stroke: #000000; stroke-width: 0.8; stroke-linejoin: miter; stroke-linecap: square"/>
   </g>
  </g>
  <g id="axes_6">
   <g id="matplotlib.axis_9">
    <g id="text_28">
     <!-- 60' -->
     <g transform="translate(849.726082 284.387902) scale(0.1 -0.1)">
      <use xlink:href="#DejaVuSans-36"/>
      <use xlink:href="#DejaVuSans-30" transform="translate(63.623047 0)"/>
      <use xlink:href="#DejaVuSans-27" transform="translate(127.246094 0)"/>
     </g>
    </g>
   </g>
   <g id="patch_27">
    <path d="M 44.53923 326.907165 
L 44.53923 226.671763 
" style="fill: none; stroke: #000000; stroke-width: 0.8; stroke-linejoin: miter; stroke-linecap: square"/>
   </g>
   <g id="patch_28">
    <path d="M 842.462801 326.907165 
L 842.462801 226.671763 
" style="fill: none; stroke: #000000; stroke-width: 0.8; stroke-linejoin: miter; stroke-linecap: square"/>
   </g>
   <g id="patch_29">
    <path d="M 44.53923 326.907165 
L 842.462801 326.907165 
" style="fill: none; stroke: #000000; stroke-width: 0.8; stroke-linejoin: miter; stroke-linecap: square"/>
   </g>
   <g id="patch_30">
    <path d="M 44.53923 226.671763 
L 842.462801 226.671763 
" style="fill: none; stroke: #000000; stroke-width: 0.8; stroke-linejoin: miter; stroke-linecap: square"/>
   </g>
  </g>
  <g id="text_29">
   <!-- Latitude [deg] -->
   <g transform="translate(877.881322 148.705229) rotate(-270) scale(0.1 -0.1)">
    <defs>
     <path id="DejaVuSans-4c" d="M 628 4666 
L 1259 4666 
L 1259 531 
L 3531 531 
L 3531 0 
L 628 0 
L 628 4666 
z
" transform="scale(0.015625)"/>
     <path id="DejaVuSans-5b" d="M 550 4863 
L 1875 4863 
L 1875 4416 
L 1125 4416 
L 1125 -397 
L 1875 -397 
L 1875 -844 
L 550 -844 
L 550 4863 
z
" transform="scale(0.015625)"/>
     <path id="DejaVuSans-67" d="M 2906 1791 
Q 2906 2416 2648 2759 
Q 2391 3103 1925 3103 
Q 1463 3103 1205 2759 
Q 947 2416 947 1791 
Q 947 1169 1205 825 
Q 1463 481 1925 481 
Q 2391 481 2648 825 
Q 2906 1169 2906 1791 
z
M 3481 434 
Q 3481 -459 3084 -895 
Q 2688 -1331 1869 -1331 
Q 1566 -1331 1297 -1286 
Q 1028 -1241 775 -1147 
L 775 -588 
Q 1028 -725 1275 -790 
Q 1522 -856 1778 -856 
Q 2344 -856 2625 -561 
Q 2906 -266 2906 331 
L 2906 616 
Q 2728 306 2450 153 
Q 2172 0 1784 0 
Q 1141 0 747 490 
Q 353 981 353 1791 
Q 353 2603 747 3093 
Q 1141 3584 1784 3584 
Q 2172 3584 2450 3431 
Q 2728 3278 2906 2969 
L 2906 3500 
L 3481 3500 
L 3481 434 
z
" transform="scale(0.015625)"/>
     <path id="DejaVuSans-5d" d="M 1947 4863 
L 1947 -844 
L 622 -844 
L 622 -397 
L 1369 -397 
L 1369 4416 
L 622 4416 
L 622 4863 
L 1947 4863 
z
" transform="scale(0.015625)"/>
    </defs>
    <use xlink:href="#DejaVuSans-4c"/>
    <use xlink:href="#DejaVuSans-61" transform="translate(55.712891 0)"/>
    <use xlink:href="#DejaVuSans-74" transform="translate(116.992188 0)"/>
    <use xlink:href="#DejaVuSans-69" transform="translate(156.201172 0)"/>
    <use xlink:href="#DejaVuSans-74" transform="translate(183.984375 0)"/>
    <use xlink:href="#DejaVuSans-75" transform="translate(223.193359 0)"/>
    <use xlink:href="#DejaVuSans-64" transform="translate(286.572266 0)"/>
    <use xlink:href="#DejaVuSans-65" transform="translate(350.048828 0)"/>
    <use xlink:href="#DejaVuSans-20" transform="translate(411.572266 0)"/>
    <use xlink:href="#DejaVuSans-5b" transform="translate(443.359375 0)"/>
    <use xlink:href="#DejaVuSans-64" transform="translate(482.373047 0)"/>
    <use xlink:href="#DejaVuSans-65" transform="translate(545.849609 0)"/>
    <use xlink:href="#DejaVuSans-67" transform="translate(607.373047 0)"/>
    <use xlink:href="#DejaVuSans-5d" transform="translate(670.849609 0)"/>
   </g>
  </g>
  <g id="text_30">
   <!-- Hour of day -->
   <g transform="translate(16.318125 219.286635) rotate(-90) scale(0.12 -0.12)">
    <defs>
     <path id="DejaVuSans-48" d="M 628 4666 
L 1259 4666 
L 1259 2753 
L 3553 2753 
L 3553 4666 
L 4184 4666 
L 4184 0 
L 3553 0 
L 3553 2222 
L 1259 2222 
L 1259 0 
L 628 0 
L 628 4666 
z
" transform="scale(0.015625)"/>
     <path id="DejaVuSans-66" d="M 2375 4863 
L 2375 4384 
L 1825 4384 
Q 1516 4384 1395 4259 
Q 1275 4134 1275 3809 
L 1275 3500 
L 2222 3500 
L 2222 3053 
L 1275 3053 
L 1275 0 
L 697 0 
L 697 3053 
L 147 3053 
L 147 3500 
L 697 3500 
L 697 3744 
Q 697 4328 969 4595 
Q 1241 4863 1831 4863 
L 2375 4863 
z
" transform="scale(0.015625)"/>
    </defs>
    <use xlink:href="#DejaVuSans-48"/>
    <use xlink:href="#DejaVuSans-6f" transform="translate(75.195312 0)"/>
    <use xlink:href="#DejaVuSans-75" transform="translate(136.376953 0)"/>
    <use xlink:href="#DejaVuSans-72" transform="translate(199.755859 0)"/>
    <use xlink:href="#DejaVuSans-20" transform="translate(240.869141 0)"/>
    <use xlink:href="#DejaVuSans-6f" transform="translate(272.65625 0)"/>
    <use xlink:href="#DejaVuSans-66" transform="translate(333.837891 0)"/>
    <use xlink:href="#DejaVuSans-20" transform="translate(369.042969 0)"/>
    <use xlink:href="#DejaVuSans-64" transform="translate(400.830078 0)"/>
    <use xlink:href="#DejaVuSans-61" transform="translate(464.306641 0)"/>
    <use xlink:href="#DejaVuSans-79" transform="translate(525.585938 0)"/>
   </g>
  </g>
  <g id="text_31">
   <!-- Day -->
   <g transform="translate(424.351635 358.703895) scale(0.12 -0.12)">
    <use xlink:href="#DejaVuSans-44"/>
    <use xlink:href="#DejaVuSans-61" transform="translate(77.001953 0)"/>
    <use xlink:href="#DejaVuSans-79" transform="translate(138.28125 0)"/>
   </g>
  </g>
 </g>
 <defs>
  <clipPath id="p912010d39a">
   <rect x="44.53923" y="7.2" width="797.923571" height="100.235402"/>
  </clipPath>
  <clipPath id="p0a75a73cb7">
   <rect x="44.53923" y="116.935882" width="797.923571" height="100.235402"/>
  </clipPath>
  <clipPath id="p6457d328a1">
   <rect x="44.53923" y="226.671763" width="797.923571" height="100.235402"/>
  </clipPath>
 </defs>
</svg>
